<?xml version="1.0" encoding="utf-8" standalone="no"?>
<!DOCTYPE svg PUBLIC "-//W3C//DTD SVG 1.1//EN"
  "http://www.w3.org/Graphics/SVG/1.1/DTD/svg11.dtd">
<svg xmlns:xlink="http://www.w3.org/1999/xlink" width="432pt" height="180pt" viewBox="0 0 432 180" xmlns="http://www.w3.org/2000/svg" version="1.1">
 <metadata>
  <rdf:RDF xmlns:dc="http://purl.org/dc/elements/1.1/" xmlns:cc="http://creativecommons.org/ns#" xmlns:rdf="http://www.w3.org/1999/02/22-rdf-syntax-ns#">
   <cc:Work>
    <dc:type rdf:resource="http://purl.org/dc/dcmitype/StillImage"/>
    <dc:date>2025-11-18T18:06:55.321268</dc:date>
    <dc:format>image/svg+xml</dc:format>
    <dc:creator>
     <cc:Agent>
      <dc:title>Matplotlib v3.10.6, https://matplotlib.org/</dc:title>
     </cc:Agent>
    </dc:creator>
   </cc:Work>
  </rdf:RDF>
 </metadata>
 <defs>
  <style type="text/css">*{stroke-linejoin: round; stroke-linecap: butt}</style>
 </defs>
 <g id="figure_1">
  <g id="patch_1">
   <path d="M 0 180 
L 432 180 
L 432 0 
L 0 0 
L 0 180 
z
" style="fill: none"/>
  </g>
  <g id="axes_1">
   <g id="line2d_1">
    <path d="M 19.636364 17.430831 
L 21.176471 20.27668 
L 22.716578 19.565218 
L 24.256684 17.430831 
L 25.796791 17.430831 
L 27.336898 15.296443 
L 28.877005 18.142292 
L 30.417112 18.142292 
L 31.957219 18.853755 
L 33.497326 16.719368 
L 35.037433 15.296443 
L 36.57754 12.450593 
L 38.117647 11.73913 
L 39.657754 12.450593 
L 41.197861 11.027668 
L 42.737968 11.73913 
L 44.278075 11.73913 
L 45.818182 11.027668 
L 48.898396 15.296443 
L 50.438503 16.007906 
L 53.518717 14.58498 
L 55.058824 16.719368 
L 56.59893 19.565218 
L 58.139037 21.699605 
L 59.679144 24.545456 
L 61.219251 23.833992 
L 62.759358 24.545456 
L 64.299465 23.833992 
L 65.839572 24.545456 
L 67.379679 25.96838 
L 68.919786 25.96838 
L 72 23.12253 
L 73.540107 23.12253 
L 75.080214 24.545456 
L 76.620321 23.833992 
L 78.160428 21.699605 
L 79.700535 17.430831 
L 81.240642 15.296443 
L 82.780749 16.007906 
L 85.860963 20.27668 
L 87.40107 19.565218 
L 88.941176 18.142292 
L 90.481283 16.007906 
L 93.561497 18.853755 
L 95.101604 20.988143 
L 96.641711 19.565218 
L 98.181818 17.430831 
L 99.721925 17.430831 
L 102.802139 18.853755 
L 104.342246 20.27668 
L 105.882353 18.853755 
L 108.962567 17.430831 
L 110.502674 18.142292 
L 112.042781 19.565218 
L 115.122995 20.988143 
L 116.663102 17.430831 
L 118.203209 17.430831 
L 119.743316 18.853755 
L 121.283422 20.988143 
L 122.823529 21.699605 
L 125.903743 18.853755 
L 127.44385 16.719368 
L 128.983957 16.007906 
L 132.064171 13.162056 
L 133.604278 10.316206 
L 135.144385 8.181818 
L 136.684492 11.73913 
L 138.224599 21.699605 
L 139.764706 36.640318 
L 142.84492 72.924906 
L 144.385027 92.845853 
L 145.925134 114.901195 
L 147.465241 139.090913 
L 149.005348 159.723331 
L 150.545455 171.10672 
L 152.085561 171.818182 
L 153.625668 163.28064 
L 155.165775 151.185772 
L 156.705882 134.110681 
L 158.245989 109.209492 
L 159.786096 82.173918 
L 161.326203 60.11858 
L 162.86631 43.04348 
L 164.406417 33.083004 
L 165.946524 30.237155 
L 167.486631 33.083004 
L 169.026738 33.794468 
L 170.566845 30.237155 
L 172.106952 25.256918 
L 173.647059 21.699605 
L 175.187166 17.430831 
L 176.727273 17.430831 
L 178.26738 18.142292 
L 179.807487 17.430831 
L 181.347594 14.58498 
L 182.887701 13.162056 
L 185.967914 13.162056 
L 187.508021 16.007906 
L 189.048128 14.58498 
L 190.588235 11.027668 
L 192.128342 10.316206 
L 195.208556 11.73913 
L 196.748663 14.58498 
L 198.28877 14.58498 
L 199.828877 13.873518 
L 201.368984 11.027668 
L 202.909091 11.73913 
L 205.989305 14.58498 
L 207.529412 14.58498 
L 209.069519 12.450593 
L 210.609626 13.162056 
L 212.149733 11.027668 
L 213.68984 14.58498 
L 215.229947 16.007906 
L 219.850267 11.73913 
L 221.390374 12.450593 
L 224.470588 15.296443 
L 226.010695 14.58498 
L 229.090909 14.58498 
L 230.631016 13.873518 
L 232.171123 15.296443 
L 233.71123 17.430831 
L 235.251337 16.007906 
L 236.791444 15.296443 
L 239.871658 15.296443 
L 242.951872 19.565218 
L 244.491979 18.142292 
L 247.572193 16.719368 
L 250.652406 19.565218 
L 252.192513 21.699605 
L 255.272727 20.27668 
L 256.812834 20.27668 
L 258.352941 20.988143 
L 259.893048 23.833992 
L 261.433155 25.256918 
L 262.973262 23.833992 
L 264.513369 24.545456 
L 266.053476 23.833992 
L 267.593583 24.545456 
L 269.13369 26.679844 
L 270.673797 29.525693 
L 272.213904 30.237155 
L 273.754011 28.814231 
L 275.294118 28.814231 
L 276.834225 30.948617 
L 278.374332 32.371542 
L 279.914439 34.50593 
L 281.454545 33.083004 
L 282.994652 35.217392 
L 284.534759 35.217392 
L 287.614973 36.640318 
L 289.15508 38.774705 
L 290.695187 38.774705 
L 292.235294 38.063243 
L 293.775401 38.774705 
L 295.315508 37.351779 
L 296.855615 40.90909 
L 298.395722 43.04348 
L 299.935829 41.620557 
L 301.475936 39.486167 
L 303.016043 40.197629 
L 304.55615 38.774705 
L 307.636364 38.774705 
L 309.176471 38.063243 
L 310.716578 35.217392 
L 313.796791 33.794468 
L 316.877005 30.948617 
L 318.417112 30.237155 
L 319.957219 28.102767 
L 321.497326 24.545456 
L 323.037433 23.12253 
L 324.57754 24.545456 
L 326.117647 25.256918 
L 327.657754 23.833992 
L 329.197861 20.27668 
L 333.818182 18.142292 
L 335.358289 21.699605 
L 336.898396 18.142292 
L 338.438503 17.430831 
L 339.97861 14.58498 
L 343.058824 16.007906 
L 344.59893 17.430831 
L 346.139037 15.296443 
L 347.679144 16.719368 
L 349.219251 16.007906 
L 350.759358 13.873518 
L 352.299465 13.873518 
L 353.839572 16.719368 
L 356.919786 15.296443 
L 358.459893 13.873518 
L 361.540107 15.296443 
L 363.080214 17.430831 
L 364.620321 15.296443 
L 369.240642 13.162056 
L 372.320856 16.007906 
L 373.860963 14.58498 
L 375.40107 15.296443 
L 378.481283 12.450593 
L 380.02139 15.296443 
L 381.561497 16.007906 
L 383.101604 15.296443 
L 384.641711 15.296443 
L 386.181818 12.450593 
L 387.721925 13.873518 
L 389.262032 16.007906 
L 390.802139 16.719368 
L 392.342246 13.873518 
L 393.882353 15.296443 
L 395.42246 12.450593 
L 398.502674 13.873518 
L 400.042781 15.296443 
L 403.122995 13.873518 
L 404.663102 11.73913 
L 406.203209 13.162056 
L 407.743316 12.450593 
L 410.823529 15.296443 
L 412.363636 13.162056 
L 412.363636 13.162056 
" clip-path="url(#pa5c7a924c3)" style="fill: none; stroke: #1f77b4; stroke-width: 1.5; stroke-linecap: round"/>
   </g>
  </g>
 </g>
 <defs>
  <clipPath id="pa5c7a924c3">
   <rect x="0" y="0" width="432" height="180"/>
  </clipPath>
 </defs>
</svg>
