<?xml version="1.0" encoding="utf-8" standalone="no"?>
<!DOCTYPE svg PUBLIC "-//W3C//DTD SVG 1.1//EN"
  "http://www.w3.org/Graphics/SVG/1.1/DTD/svg11.dtd">
<svg xmlns:xlink="http://www.w3.org/1999/xlink" width="432pt" height="180pt" viewBox="0 0 432 180" xmlns="http://www.w3.org/2000/svg" version="1.1">
 <metadata>
  <rdf:RDF xmlns:dc="http://purl.org/dc/elements/1.1/" xmlns:cc="http://creativecommons.org/ns#" xmlns:rdf="http://www.w3.org/1999/02/22-rdf-syntax-ns#">
   <cc:Work>
    <dc:type rdf:resource="http://purl.org/dc/dcmitype/StillImage"/>
    <dc:date>2025-11-18T18:06:55.262730</dc:date>
    <dc:format>image/svg+xml</dc:format>
    <dc:creator>
     <cc:Agent>
      <dc:title>Matplotlib v3.10.6, https://matplotlib.org/</dc:title>
     </cc:Agent>
    </dc:creator>
   </cc:Work>
  </rdf:RDF>
 </metadata>
 <defs>
  <style type="text/css">*{stroke-linejoin: round; stroke-linecap: butt}</style>
 </defs>
 <g id="figure_1">
  <g id="patch_1">
   <path d="M 0 180 
L 432 180 
L 432 0 
L 0 0 
L 0 180 
z
" style="fill: none"/>
  </g>
  <g id="axes_1">
   <g id="line2d_1">
    <path d="M 19.636364 164.968289 
L 21.176471 165.729388 
L 22.716578 165.729388 
L 24.256684 164.968289 
L 25.796791 165.729388 
L 27.336898 164.207191 
L 28.877005 164.207191 
L 30.417112 165.729388 
L 31.957219 165.729388 
L 33.497326 163.44609 
L 36.57754 161.923893 
L 38.117647 161.923893 
L 39.657754 162.684991 
L 41.197861 161.162792 
L 42.737968 158.879496 
L 44.278075 155.835097 
L 45.818182 155.835097 
L 47.358289 155.073998 
L 48.898396 155.835097 
L 50.438503 155.835097 
L 53.518717 149.746302 
L 56.59893 149.746302 
L 58.139037 152.7907 
L 59.679144 152.7907 
L 61.219251 150.507402 
L 62.759358 145.940805 
L 64.299465 147.463004 
L 65.839572 148.224103 
L 67.379679 150.507402 
L 68.919786 153.551798 
L 70.459893 153.551798 
L 72 152.7907 
L 73.540107 152.7907 
L 75.080214 155.073998 
L 76.620321 155.835097 
L 78.160428 157.357296 
L 79.700535 156.596198 
L 81.240642 156.596198 
L 82.780749 158.879496 
L 84.320856 160.401693 
L 85.860963 163.44609 
L 87.40107 168.012686 
L 88.941176 166.490489 
L 90.481283 165.729388 
L 92.02139 166.490489 
L 93.561497 166.490489 
L 96.641711 169.534886 
L 98.181818 169.534886 
L 99.721925 168.012686 
L 101.262032 168.012686 
L 102.802139 168.773787 
L 104.342246 170.295985 
L 105.882353 170.295985 
L 107.42246 168.012686 
L 110.502674 168.012686 
L 112.042781 167.251588 
L 113.582888 170.295985 
L 115.122995 169.534886 
L 116.663102 168.012686 
L 118.203209 168.012686 
L 119.743316 167.251588 
L 121.283422 168.773787 
L 122.823529 169.534886 
L 124.363636 168.773787 
L 125.903743 167.251588 
L 127.44385 166.490489 
L 128.983957 166.490489 
L 130.524064 167.251588 
L 132.064171 166.490489 
L 133.604278 168.012686 
L 135.144385 165.729388 
L 136.684492 161.162792 
L 138.224599 158.879496 
L 139.764706 155.835097 
L 141.304813 155.835097 
L 142.84492 153.551798 
L 144.385027 145.179706 
L 145.925134 130.718818 
L 147.465241 113.974631 
L 150.545455 82.769558 
L 153.625668 50.04228 
L 156.705882 19.598307 
L 158.245989 8.181818 
L 159.786096 10.465114 
L 161.326203 27.209303 
L 162.86631 52.325585 
L 165.946524 110.169135 
L 167.486631 133.002116 
L 169.026738 149.746302 
L 170.566845 161.162792 
L 172.106952 168.012686 
L 173.647059 165.729388 
L 175.187166 160.401693 
L 176.727273 158.879496 
L 178.26738 159.640594 
L 179.807487 161.923893 
L 181.347594 164.968289 
L 182.887701 164.207191 
L 184.427807 166.490489 
L 185.967914 165.729388 
L 187.508021 168.773787 
L 189.048128 170.295985 
L 190.588235 169.534886 
L 192.128342 170.295985 
L 193.668449 169.534886 
L 195.208556 171.057083 
L 196.748663 171.818182 
L 198.28877 171.818182 
L 199.828877 169.534886 
L 201.368984 170.295985 
L 202.909091 169.534886 
L 204.449198 170.295985 
L 205.989305 171.818182 
L 207.529412 171.818182 
L 210.609626 167.251588 
L 212.149733 168.012686 
L 213.68984 169.534886 
L 215.229947 169.534886 
L 216.770053 170.295985 
L 218.31016 168.773787 
L 219.850267 166.490489 
L 221.390374 166.490489 
L 222.930481 167.251588 
L 224.470588 168.773787 
L 226.010695 169.534886 
L 227.550802 167.251588 
L 229.090909 166.490489 
L 230.631016 166.490489 
L 232.171123 165.729388 
L 233.71123 166.490489 
L 235.251337 166.490489 
L 238.331551 163.44609 
L 241.411765 164.968289 
L 242.951872 164.968289 
L 244.491979 165.729388 
L 246.032086 164.207191 
L 250.652406 161.923893 
L 253.73262 163.44609 
L 255.272727 161.162792 
L 256.812834 160.401693 
L 258.352941 158.879496 
L 259.893048 159.640594 
L 261.433155 159.640594 
L 264.513369 156.596198 
L 266.053476 155.835097 
L 267.593583 153.551798 
L 269.13369 153.551798 
L 270.673797 154.312899 
L 272.213904 153.551798 
L 273.754011 152.029601 
L 275.294118 148.985203 
L 278.374332 145.940805 
L 279.914439 146.701905 
L 281.454545 146.701905 
L 282.994652 143.657507 
L 284.534759 141.374209 
L 286.074866 141.374209 
L 287.614973 139.85201 
L 289.15508 141.374209 
L 290.695187 139.85201 
L 292.235294 137.568712 
L 293.775401 136.046513 
L 295.315508 135.285414 
L 296.855615 133.763215 
L 298.395722 133.763215 
L 299.935829 135.285414 
L 301.475936 133.763215 
L 303.016043 129.957718 
L 304.55615 129.957718 
L 306.096257 128.43552 
L 307.636364 129.957718 
L 310.716578 129.957718 
L 312.256684 129.196619 
L 313.796791 129.196619 
L 315.336898 131.479917 
L 316.877005 132.241017 
L 318.417112 135.285414 
L 319.957219 133.763215 
L 321.497326 135.285414 
L 323.037433 136.046513 
L 324.57754 139.85201 
L 326.117647 142.135308 
L 327.657754 143.657507 
L 329.197861 146.701905 
L 330.737968 145.940805 
L 332.278075 148.224103 
L 333.818182 151.2685 
L 335.358289 153.551798 
L 336.898396 155.073998 
L 339.97861 156.596198 
L 341.518717 158.118395 
L 343.058824 158.118395 
L 344.59893 160.401693 
L 347.679144 161.923893 
L 349.219251 159.640594 
L 350.759358 160.401693 
L 352.299465 161.923893 
L 355.379679 163.44609 
L 356.919786 161.162792 
L 358.459893 162.684991 
L 360 161.162792 
L 364.620321 165.729388 
L 366.160428 164.207191 
L 367.700535 164.207191 
L 369.240642 163.44609 
L 370.780749 164.968289 
L 373.860963 166.490489 
L 375.40107 166.490489 
L 376.941176 164.968289 
L 378.481283 164.968289 
L 380.02139 165.729388 
L 381.561497 165.729388 
L 383.101604 166.490489 
L 384.641711 166.490489 
L 386.181818 164.968289 
L 387.721925 164.207191 
L 389.262032 164.968289 
L 392.342246 168.012686 
L 393.882353 166.490489 
L 395.42246 166.490489 
L 396.962567 164.968289 
L 398.502674 165.729388 
L 400.042781 167.251588 
L 401.582888 168.012686 
L 403.122995 168.012686 
L 404.663102 166.490489 
L 406.203209 165.729388 
L 407.743316 167.251588 
L 409.283422 169.534886 
L 410.823529 169.534886 
L 412.363636 167.251588 
L 412.363636 167.251588 
" clip-path="url(#p32df8a8bf0)" style="fill: none; stroke: #1f77b4; stroke-width: 1.5; stroke-linecap: round"/>
   </g>
  </g>
 </g>
 <defs>
  <clipPath id="p32df8a8bf0">
   <rect x="0" y="0" width="432" height="180"/>
  </clipPath>
 </defs>
</svg>
