<?xml version="1.0" encoding="utf-8" standalone="no"?>
<!DOCTYPE svg PUBLIC "-//W3C//DTD SVG 1.1//EN"
  "http://www.w3.org/Graphics/SVG/1.1/DTD/svg11.dtd">
<svg xmlns:xlink="http://www.w3.org/1999/xlink" width="568.825625pt" height="281.3825pt" viewBox="0 0 568.825625 281.3825" xmlns="http://www.w3.org/2000/svg" version="1.1">
 <metadata>
  <rdf:RDF xmlns:dc="http://purl.org/dc/elements/1.1/" xmlns:cc="http://creativecommons.org/ns#" xmlns:rdf="http://www.w3.org/1999/02/22-rdf-syntax-ns#">
   <cc:Work>
    <dc:type rdf:resource="http://purl.org/dc/dcmitype/StillImage"/>
    <dc:date>2025-12-12T22:54:44.045741</dc:date>
    <dc:format>image/svg+xml</dc:format>
    <dc:creator>
     <cc:Agent>
      <dc:title>Matplotlib v3.10.6, https://matplotlib.org/</dc:title>
     </cc:Agent>
    </dc:creator>
   </cc:Work>
  </rdf:RDF>
 </metadata>
 <defs>
  <style type="text/css">*{stroke-linejoin: round; stroke-linecap: butt}</style>
 </defs>
 <g id="figure_1">
  <g id="patch_1">
   <path d="M 0 281.3825 
L 568.825625 281.3825 
L 568.825625 0 
L 0 0 
z
" style="fill: #ffffff"/>
  </g>
  <g id="axes_1">
   <g id="patch_2">
    <path d="M 61.065625 230.276875 
L 561.625625 230.276875 
L 561.625625 28.396875 
L 61.065625 28.396875 
z
" style="fill: #ffffff"/>
   </g>
   <g id="FillBetweenPolyCollection_1">
    <defs>
     <path id="me47cf68a7c" d="M 83.818352 -83.178976 
L 83.818352 -60.281989 
L 85.60288 -60.281989 
L 87.387408 -60.281989 
L 89.171935 -60.281989 
L 90.956463 -60.281989 
L 92.74099 -60.281989 
L 94.525518 -60.281989 
L 96.310046 -60.281989 
L 98.094573 -60.281989 
L 99.879101 -60.281989 
L 101.663629 -60.281989 
L 103.448156 -60.281989 
L 105.232684 -60.281989 
L 107.017211 -60.281989 
L 108.801739 -60.281989 
L 110.586267 -60.281989 
L 112.370794 -60.281989 
L 114.155322 -60.281989 
L 115.93985 -60.281989 
L 117.724377 -60.281989 
L 119.508905 -60.281989 
L 121.293432 -60.281989 
L 123.07796 -60.281989 
L 124.862488 -60.281989 
L 126.647015 -60.281989 
L 128.431543 -60.281989 
L 130.216071 -60.281989 
L 132.000598 -60.281989 
L 133.785126 -60.281989 
L 135.569654 -60.281989 
L 137.354181 -60.281989 
L 139.138709 -60.281989 
L 140.923236 -60.281989 
L 142.707764 -60.281989 
L 144.492292 -60.281989 
L 146.276819 -60.281989 
L 148.061347 -60.281989 
L 149.845875 -60.281989 
L 151.630402 -60.281989 
L 153.41493 -60.281989 
L 155.199457 -60.281989 
L 156.983985 -60.281989 
L 158.768513 -60.281989 
L 160.55304 -60.281989 
L 162.337568 -60.281989 
L 164.122096 -60.281989 
L 165.906623 -60.281989 
L 167.691151 -60.281989 
L 169.475678 -60.281989 
L 171.260206 -60.281989 
L 173.044734 -60.281989 
L 174.829261 -60.281989 
L 176.613789 -60.281989 
L 178.398317 -60.281989 
L 180.182844 -60.281989 
L 181.967372 -60.281989 
L 183.7519 -60.281989 
L 185.536427 -60.281989 
L 187.320955 -60.281989 
L 189.105482 -60.281989 
L 190.89001 -60.281989 
L 192.674538 -60.281989 
L 194.459065 -60.281989 
L 196.243593 -60.281989 
L 198.028121 -60.281989 
L 199.812648 -60.281989 
L 201.597176 -60.281989 
L 203.381703 -60.281989 
L 205.166231 -60.281989 
L 206.950759 -60.281989 
L 208.735286 -60.281989 
L 210.519814 -60.281989 
L 212.304342 -60.281989 
L 214.088869 -60.281989 
L 215.873397 -60.281989 
L 217.657924 -60.281989 
L 219.442452 -60.281989 
L 221.22698 -60.281989 
L 223.011507 -60.281989 
L 224.796035 -60.281989 
L 226.580563 -60.281989 
L 228.36509 -60.281989 
L 230.149618 -60.281989 
L 231.934145 -60.281989 
L 233.718673 -60.281989 
L 235.503201 -60.281989 
L 237.287728 -60.281989 
L 239.072256 -60.281989 
L 240.856784 -60.281989 
L 242.641311 -60.281989 
L 244.425839 -60.281989 
L 246.210367 -60.281989 
L 247.994894 -60.281989 
L 249.779422 -60.281989 
L 251.563949 -60.281989 
L 253.348477 -60.281989 
L 255.133005 -60.281989 
L 256.917532 -60.281989 
L 258.70206 -60.281989 
L 260.486588 -60.281989 
L 262.271115 -60.281989 
L 264.055643 -60.281989 
L 265.84017 -60.281989 
L 267.624698 -60.281989 
L 269.409226 -60.281989 
L 271.193753 -60.281989 
L 272.978281 -60.281989 
L 274.762809 -60.281989 
L 276.547336 -60.281989 
L 278.331864 -60.281989 
L 280.116391 -60.281989 
L 281.900919 -60.281989 
L 283.685447 -60.281989 
L 285.469974 -60.281989 
L 287.254502 -60.281989 
L 289.03903 -60.281989 
L 290.823557 -60.281989 
L 292.608085 -60.281989 
L 294.392613 -60.281989 
L 296.17714 -60.281989 
L 297.961668 -60.281989 
L 299.746195 -60.281989 
L 301.530723 -60.281989 
L 303.315251 -60.281989 
L 305.099778 -60.281989 
L 306.884306 -60.281989 
L 308.668834 -60.281989 
L 310.453361 -60.281989 
L 312.237889 -60.281989 
L 314.022416 -60.281989 
L 315.806944 -60.281989 
L 317.591472 -60.281989 
L 319.375999 -60.281989 
L 321.160527 -60.281989 
L 322.945055 -60.281989 
L 324.729582 -60.281989 
L 326.51411 -60.281989 
L 328.298637 -60.281989 
L 330.083165 -60.281989 
L 331.867693 -60.281989 
L 333.65222 -60.281989 
L 335.436748 -60.281989 
L 337.221276 -60.281989 
L 339.005803 -60.281989 
L 340.790331 -60.281989 
L 342.574859 -60.281989 
L 344.359386 -60.281989 
L 346.143914 -60.281989 
L 347.928441 -60.281989 
L 349.712969 -60.281989 
L 351.497497 -60.281989 
L 353.282024 -60.281989 
L 355.066552 -60.281989 
L 356.85108 -60.281989 
L 358.635607 -60.281989 
L 360.420135 -60.281989 
L 362.204662 -60.281989 
L 363.98919 -60.281989 
L 365.773718 -60.281989 
L 367.558245 -60.281989 
L 369.342773 -60.281989 
L 371.127301 -60.281989 
L 372.911828 -60.281989 
L 374.696356 -60.281989 
L 376.480883 -60.281989 
L 378.265411 -60.281989 
L 380.049939 -60.281989 
L 381.834466 -60.281989 
L 383.618994 -60.281989 
L 385.403522 -60.281989 
L 387.188049 -60.281989 
L 388.972577 -60.281989 
L 390.757105 -60.281989 
L 392.541632 -60.281989 
L 394.32616 -60.281989 
L 396.110687 -60.281989 
L 397.895215 -60.281989 
L 399.679743 -60.281989 
L 401.46427 -60.281989 
L 403.248798 -60.281989 
L 405.033326 -60.281989 
L 406.817853 -60.281989 
L 408.602381 -60.281989 
L 410.386908 -60.281989 
L 412.171436 -60.281989 
L 413.955964 -60.281989 
L 415.740491 -60.281989 
L 417.525019 -60.281989 
L 419.309547 -60.281989 
L 421.094074 -60.281989 
L 422.878602 -60.281989 
L 424.663129 -60.281989 
L 426.447657 -60.281989 
L 428.232185 -60.281989 
L 430.016712 -60.281989 
L 431.80124 -60.281989 
L 433.585768 -60.281989 
L 435.370295 -60.281989 
L 437.154823 -60.281989 
L 438.93935 -60.281989 
L 440.723878 -60.281989 
L 442.508406 -60.281989 
L 444.292933 -60.281989 
L 446.077461 -60.281989 
L 447.861989 -60.281989 
L 449.646516 -60.281989 
L 451.431044 -60.281989 
L 453.215572 -60.281989 
L 455.000099 -60.281989 
L 456.784627 -60.281989 
L 458.569154 -60.281989 
L 460.353682 -60.281989 
L 462.13821 -60.281989 
L 463.922737 -60.281989 
L 465.707265 -60.281989 
L 467.491793 -60.281989 
L 469.27632 -60.281989 
L 471.060848 -60.281989 
L 472.845375 -60.281989 
L 474.629903 -60.281989 
L 476.414431 -60.281989 
L 478.198958 -60.281989 
L 479.983486 -60.281989 
L 481.768014 -60.281989 
L 483.552541 -60.281989 
L 485.337069 -60.281989 
L 487.121596 -60.281989 
L 488.906124 -60.281989 
L 490.690652 -60.281989 
L 492.475179 -60.281989 
L 494.259707 -60.281989 
L 496.044235 -60.281989 
L 497.828762 -60.281989 
L 499.61329 -60.281989 
L 501.397818 -60.281989 
L 503.182345 -60.281989 
L 504.966873 -60.281989 
L 506.7514 -60.281989 
L 508.535928 -60.281989 
L 510.320456 -60.281989 
L 512.104983 -60.281989 
L 513.889511 -60.281989 
L 515.674039 -60.281989 
L 517.458566 -60.281989 
L 519.243094 -60.281989 
L 521.027621 -60.281989 
L 522.812149 -60.281989 
L 524.596677 -60.281989 
L 526.381204 -60.281989 
L 528.165732 -60.281989 
L 529.95026 -60.281989 
L 531.734787 -60.281989 
L 533.519315 -60.281989 
L 535.303842 -60.281989 
L 537.08837 -60.281989 
L 538.872898 -60.281989 
L 538.872898 -83.178976 
L 538.872898 -83.178976 
L 537.08837 -83.178976 
L 535.303842 -83.178976 
L 533.519315 -83.178976 
L 531.734787 -83.178976 
L 529.95026 -83.178976 
L 528.165732 -83.178976 
L 526.381204 -83.178976 
L 524.596677 -83.178976 
L 522.812149 -83.178976 
L 521.027621 -83.178976 
L 519.243094 -83.178976 
L 517.458566 -83.178976 
L 515.674039 -83.178976 
L 513.889511 -83.178976 
L 512.104983 -83.178976 
L 510.320456 -83.178976 
L 508.535928 -83.178976 
L 506.7514 -83.178976 
L 504.966873 -83.178976 
L 503.182345 -83.178976 
L 501.397818 -83.178976 
L 499.61329 -83.178976 
L 497.828762 -83.178976 
L 496.044235 -83.178976 
L 494.259707 -83.178976 
L 492.475179 -83.178976 
L 490.690652 -83.178976 
L 488.906124 -83.178976 
L 487.121596 -83.178976 
L 485.337069 -83.178976 
L 483.552541 -83.178976 
L 481.768014 -83.178976 
L 479.983486 -83.178976 
L 478.198958 -83.178976 
L 476.414431 -83.178976 
L 474.629903 -83.178976 
L 472.845375 -83.178976 
L 471.060848 -83.178976 
L 469.27632 -83.178976 
L 467.491793 -83.178976 
L 465.707265 -83.178976 
L 463.922737 -83.178976 
L 462.13821 -83.178976 
L 460.353682 -83.178976 
L 458.569154 -83.178976 
L 456.784627 -83.178976 
L 455.000099 -83.178976 
L 453.215572 -83.178976 
L 451.431044 -83.178976 
L 449.646516 -83.178976 
L 447.861989 -83.178976 
L 446.077461 -83.178976 
L 444.292933 -83.178976 
L 442.508406 -83.178976 
L 440.723878 -83.178976 
L 438.93935 -83.178976 
L 437.154823 -83.178976 
L 435.370295 -83.178976 
L 433.585768 -83.178976 
L 431.80124 -83.178976 
L 430.016712 -83.178976 
L 428.232185 -83.178976 
L 426.447657 -83.178976 
L 424.663129 -83.178976 
L 422.878602 -83.178976 
L 421.094074 -83.178976 
L 419.309547 -83.178976 
L 417.525019 -83.178976 
L 415.740491 -83.178976 
L 413.955964 -83.178976 
L 412.171436 -83.178976 
L 410.386908 -83.178976 
L 408.602381 -83.178976 
L 406.817853 -83.178976 
L 405.033326 -83.178976 
L 403.248798 -83.178976 
L 401.46427 -83.178976 
L 399.679743 -83.178976 
L 397.895215 -83.178976 
L 396.110687 -83.178976 
L 394.32616 -83.178976 
L 392.541632 -83.178976 
L 390.757105 -83.178976 
L 388.972577 -83.178976 
L 387.188049 -83.178976 
L 385.403522 -83.178976 
L 383.618994 -83.178976 
L 381.834466 -83.178976 
L 380.049939 -83.178976 
L 378.265411 -83.178976 
L 376.480883 -83.178976 
L 374.696356 -83.178976 
L 372.911828 -83.178976 
L 371.127301 -83.178976 
L 369.342773 -83.178976 
L 367.558245 -83.178976 
L 365.773718 -83.178976 
L 363.98919 -83.178976 
L 362.204662 -83.178976 
L 360.420135 -83.178976 
L 358.635607 -83.178976 
L 356.85108 -83.178976 
L 355.066552 -83.178976 
L 353.282024 -83.178976 
L 351.497497 -83.178976 
L 349.712969 -83.178976 
L 347.928441 -83.178976 
L 346.143914 -83.178976 
L 344.359386 -83.178976 
L 342.574859 -83.178976 
L 340.790331 -83.178976 
L 339.005803 -83.178976 
L 337.221276 -83.178976 
L 335.436748 -83.178976 
L 333.65222 -83.178976 
L 331.867693 -83.178976 
L 330.083165 -83.178976 
L 328.298637 -83.178976 
L 326.51411 -83.178976 
L 324.729582 -83.178976 
L 322.945055 -83.178976 
L 321.160527 -83.178976 
L 319.375999 -83.178976 
L 317.591472 -83.178976 
L 315.806944 -83.178976 
L 314.022416 -83.178976 
L 312.237889 -83.178976 
L 310.453361 -83.178976 
L 308.668834 -83.178976 
L 306.884306 -83.178976 
L 305.099778 -83.178976 
L 303.315251 -83.178976 
L 301.530723 -83.178976 
L 299.746195 -83.178976 
L 297.961668 -83.178976 
L 296.17714 -83.178976 
L 294.392613 -83.178976 
L 292.608085 -83.178976 
L 290.823557 -83.178976 
L 289.03903 -83.178976 
L 287.254502 -83.178976 
L 285.469974 -83.178976 
L 283.685447 -83.178976 
L 281.900919 -83.178976 
L 280.116391 -83.178976 
L 278.331864 -83.178976 
L 276.547336 -83.178976 
L 274.762809 -83.178976 
L 272.978281 -83.178976 
L 271.193753 -83.178976 
L 269.409226 -83.178976 
L 267.624698 -83.178976 
L 265.84017 -83.178976 
L 264.055643 -83.178976 
L 262.271115 -83.178976 
L 260.486588 -83.178976 
L 258.70206 -83.178976 
L 256.917532 -83.178976 
L 255.133005 -83.178976 
L 253.348477 -83.178976 
L 251.563949 -83.178976 
L 249.779422 -83.178976 
L 247.994894 -83.178976 
L 246.210367 -83.178976 
L 244.425839 -83.178976 
L 242.641311 -83.178976 
L 240.856784 -83.178976 
L 239.072256 -83.178976 
L 237.287728 -83.178976 
L 235.503201 -83.178976 
L 233.718673 -83.178976 
L 231.934145 -83.178976 
L 230.149618 -83.178976 
L 228.36509 -83.178976 
L 226.580563 -83.178976 
L 224.796035 -83.178976 
L 223.011507 -83.178976 
L 221.22698 -83.178976 
L 219.442452 -83.178976 
L 217.657924 -83.178976 
L 215.873397 -83.178976 
L 214.088869 -83.178976 
L 212.304342 -83.178976 
L 210.519814 -83.178976 
L 208.735286 -83.178976 
L 206.950759 -83.178976 
L 205.166231 -83.178976 
L 203.381703 -83.178976 
L 201.597176 -83.178976 
L 199.812648 -83.178976 
L 198.028121 -83.178976 
L 196.243593 -83.178976 
L 194.459065 -83.178976 
L 192.674538 -83.178976 
L 190.89001 -83.178976 
L 189.105482 -83.178976 
L 187.320955 -83.178976 
L 185.536427 -83.178976 
L 183.7519 -83.178976 
L 181.967372 -83.178976 
L 180.182844 -83.178976 
L 178.398317 -83.178976 
L 176.613789 -83.178976 
L 174.829261 -83.178976 
L 173.044734 -83.178976 
L 171.260206 -83.178976 
L 169.475678 -83.178976 
L 167.691151 -83.178976 
L 165.906623 -83.178976 
L 164.122096 -83.178976 
L 162.337568 -83.178976 
L 160.55304 -83.178976 
L 158.768513 -83.178976 
L 156.983985 -83.178976 
L 155.199457 -83.178976 
L 153.41493 -83.178976 
L 151.630402 -83.178976 
L 149.845875 -83.178976 
L 148.061347 -83.178976 
L 146.276819 -83.178976 
L 144.492292 -83.178976 
L 142.707764 -83.178976 
L 140.923236 -83.178976 
L 139.138709 -83.178976 
L 137.354181 -83.178976 
L 135.569654 -83.178976 
L 133.785126 -83.178976 
L 132.000598 -83.178976 
L 130.216071 -83.178976 
L 128.431543 -83.178976 
L 126.647015 -83.178976 
L 124.862488 -83.178976 
L 123.07796 -83.178976 
L 121.293432 -83.178976 
L 119.508905 -83.178976 
L 117.724377 -83.178976 
L 115.93985 -83.178976 
L 114.155322 -83.178976 
L 112.370794 -83.178976 
L 110.586267 -83.178976 
L 108.801739 -83.178976 
L 107.017211 -83.178976 
L 105.232684 -83.178976 
L 103.448156 -83.178976 
L 101.663629 -83.178976 
L 99.879101 -83.178976 
L 98.094573 -83.178976 
L 96.310046 -83.178976 
L 94.525518 -83.178976 
L 92.74099 -83.178976 
L 90.956463 -83.178976 
L 89.171935 -83.178976 
L 87.387408 -83.178976 
L 85.60288 -83.178976 
L 83.818352 -83.178976 
z
" style="stroke: #ff0000; stroke-opacity: 0.1"/>
    </defs>
    <g clip-path="url(#p2efba9acb2)">
     <use xlink:href="#me47cf68a7c" x="0" y="281.3825" style="fill: #ff0000; fill-opacity: 0.1; stroke: #ff0000; stroke-opacity: 0.1"/>
    </g>
   </g>
   <g id="matplotlib.axis_1">
    <g id="xtick_1">
     <g id="line2d_1">
      <path d="M 83.818352 230.276875 
L 83.818352 28.396875 
" clip-path="url(#p2efba9acb2)" style="fill: none; stroke-dasharray: 0.8,1.32; stroke-dashoffset: 0; stroke: #b0b0b0; stroke-opacity: 0.6; stroke-width: 0.8"/>
     </g>
     <g id="line2d_2">
      <defs>
       <path id="mec77ff3dfd" d="M 0 0 
L 0 3.5 
" style="stroke: #000000; stroke-width: 0.8"/>
      </defs>
      <g>
       <use xlink:href="#mec77ff3dfd" x="83.818352" y="230.276875" style="stroke: #000000; stroke-width: 0.8"/>
      </g>
     </g>
     <g id="text_1">
      <!-- 0 -->
      <g transform="translate(78.728352 249.434375) scale(0.16 -0.16)">
       <defs>
        <path id="DejaVuSans-30" d="M 2034 4250 
Q 1547 4250 1301 3770 
Q 1056 3291 1056 2328 
Q 1056 1369 1301 889 
Q 1547 409 2034 409 
Q 2525 409 2770 889 
Q 3016 1369 3016 2328 
Q 3016 3291 2770 3770 
Q 2525 4250 2034 4250 
z
M 2034 4750 
Q 2819 4750 3233 4129 
Q 3647 3509 3647 2328 
Q 3647 1150 3233 529 
Q 2819 -91 2034 -91 
Q 1250 -91 836 529 
Q 422 1150 422 2328 
Q 422 3509 836 4129 
Q 1250 4750 2034 4750 
z
" transform="scale(0.015625)"/>
       </defs>
       <use xlink:href="#DejaVuSans-30"/>
      </g>
     </g>
    </g>
    <g id="xtick_2">
     <g id="line2d_3">
      <path d="M 173.044734 230.276875 
L 173.044734 28.396875 
" clip-path="url(#p2efba9acb2)" style="fill: none; stroke-dasharray: 0.8,1.32; stroke-dashoffset: 0; stroke: #b0b0b0; stroke-opacity: 0.6; stroke-width: 0.8"/>
     </g>
     <g id="line2d_4">
      <g>
       <use xlink:href="#mec77ff3dfd" x="173.044734" y="230.276875" style="stroke: #000000; stroke-width: 0.8"/>
      </g>
     </g>
     <g id="text_2">
      <!-- 50 -->
      <g transform="translate(162.864734 249.434375) scale(0.16 -0.16)">
       <defs>
        <path id="DejaVuSans-35" d="M 691 4666 
L 3169 4666 
L 3169 4134 
L 1269 4134 
L 1269 2991 
Q 1406 3038 1543 3061 
Q 1681 3084 1819 3084 
Q 2600 3084 3056 2656 
Q 3513 2228 3513 1497 
Q 3513 744 3044 326 
Q 2575 -91 1722 -91 
Q 1428 -91 1123 -41 
Q 819 9 494 109 
L 494 744 
Q 775 591 1075 516 
Q 1375 441 1709 441 
Q 2250 441 2565 725 
Q 2881 1009 2881 1497 
Q 2881 1984 2565 2268 
Q 2250 2553 1709 2553 
Q 1456 2553 1204 2497 
Q 953 2441 691 2322 
L 691 4666 
z
" transform="scale(0.015625)"/>
       </defs>
       <use xlink:href="#DejaVuSans-35"/>
       <use xlink:href="#DejaVuSans-30" transform="translate(63.623047 0)"/>
      </g>
     </g>
    </g>
    <g id="xtick_3">
     <g id="line2d_5">
      <path d="M 262.271115 230.276875 
L 262.271115 28.396875 
" clip-path="url(#p2efba9acb2)" style="fill: none; stroke-dasharray: 0.8,1.32; stroke-dashoffset: 0; stroke: #b0b0b0; stroke-opacity: 0.6; stroke-width: 0.8"/>
     </g>
     <g id="line2d_6">
      <g>
       <use xlink:href="#mec77ff3dfd" x="262.271115" y="230.276875" style="stroke: #000000; stroke-width: 0.8"/>
      </g>
     </g>
     <g id="text_3">
      <!-- 100 -->
      <g transform="translate(247.001115 249.434375) scale(0.16 -0.16)">
       <defs>
        <path id="DejaVuSans-31" d="M 794 531 
L 1825 531 
L 1825 4091 
L 703 3866 
L 703 4441 
L 1819 4666 
L 2450 4666 
L 2450 531 
L 3481 531 
L 3481 0 
L 794 0 
L 794 531 
z
" transform="scale(0.015625)"/>
       </defs>
       <use xlink:href="#DejaVuSans-31"/>
       <use xlink:href="#DejaVuSans-30" transform="translate(63.623047 0)"/>
       <use xlink:href="#DejaVuSans-30" transform="translate(127.246094 0)"/>
      </g>
     </g>
    </g>
    <g id="xtick_4">
     <g id="line2d_7">
      <path d="M 351.497497 230.276875 
L 351.497497 28.396875 
" clip-path="url(#p2efba9acb2)" style="fill: none; stroke-dasharray: 0.8,1.32; stroke-dashoffset: 0; stroke: #b0b0b0; stroke-opacity: 0.6; stroke-width: 0.8"/>
     </g>
     <g id="line2d_8">
      <g>
       <use xlink:href="#mec77ff3dfd" x="351.497497" y="230.276875" style="stroke: #000000; stroke-width: 0.8"/>
      </g>
     </g>
     <g id="text_4">
      <!-- 150 -->
      <g transform="translate(336.227497 249.434375) scale(0.16 -0.16)">
       <use xlink:href="#DejaVuSans-31"/>
       <use xlink:href="#DejaVuSans-35" transform="translate(63.623047 0)"/>
       <use xlink:href="#DejaVuSans-30" transform="translate(127.246094 0)"/>
      </g>
     </g>
    </g>
    <g id="xtick_5">
     <g id="line2d_9">
      <path d="M 440.723878 230.276875 
L 440.723878 28.396875 
" clip-path="url(#p2efba9acb2)" style="fill: none; stroke-dasharray: 0.8,1.32; stroke-dashoffset: 0; stroke: #b0b0b0; stroke-opacity: 0.6; stroke-width: 0.8"/>
     </g>
     <g id="line2d_10">
      <g>
       <use xlink:href="#mec77ff3dfd" x="440.723878" y="230.276875" style="stroke: #000000; stroke-width: 0.8"/>
      </g>
     </g>
     <g id="text_5">
      <!-- 200 -->
      <g transform="translate(425.453878 249.434375) scale(0.16 -0.16)">
       <defs>
        <path id="DejaVuSans-32" d="M 1228 531 
L 3431 531 
L 3431 0 
L 469 0 
L 469 531 
Q 828 903 1448 1529 
Q 2069 2156 2228 2338 
Q 2531 2678 2651 2914 
Q 2772 3150 2772 3378 
Q 2772 3750 2511 3984 
Q 2250 4219 1831 4219 
Q 1534 4219 1204 4116 
Q 875 4013 500 3803 
L 500 4441 
Q 881 4594 1212 4672 
Q 1544 4750 1819 4750 
Q 2544 4750 2975 4387 
Q 3406 4025 3406 3419 
Q 3406 3131 3298 2873 
Q 3191 2616 2906 2266 
Q 2828 2175 2409 1742 
Q 1991 1309 1228 531 
z
" transform="scale(0.015625)"/>
       </defs>
       <use xlink:href="#DejaVuSans-32"/>
       <use xlink:href="#DejaVuSans-30" transform="translate(63.623047 0)"/>
       <use xlink:href="#DejaVuSans-30" transform="translate(127.246094 0)"/>
      </g>
     </g>
    </g>
    <g id="xtick_6">
     <g id="line2d_11">
      <path d="M 529.95026 230.276875 
L 529.95026 28.396875 
" clip-path="url(#p2efba9acb2)" style="fill: none; stroke-dasharray: 0.8,1.32; stroke-dashoffset: 0; stroke: #b0b0b0; stroke-opacity: 0.6; stroke-width: 0.8"/>
     </g>
     <g id="line2d_12">
      <g>
       <use xlink:href="#mec77ff3dfd" x="529.95026" y="230.276875" style="stroke: #000000; stroke-width: 0.8"/>
      </g>
     </g>
     <g id="text_6">
      <!-- 250 -->
      <g transform="translate(514.68026 249.434375) scale(0.16 -0.16)">
       <use xlink:href="#DejaVuSans-32"/>
       <use xlink:href="#DejaVuSans-35" transform="translate(63.623047 0)"/>
       <use xlink:href="#DejaVuSans-30" transform="translate(127.246094 0)"/>
      </g>
     </g>
    </g>
    <g id="text_7">
     <!-- Time Steps -->
     <g transform="translate(261.283125 270.439062) scale(0.18 -0.18)">
      <defs>
       <path id="DejaVuSans-54" d="M -19 4666 
L 3928 4666 
L 3928 4134 
L 2272 4134 
L 2272 0 
L 1638 0 
L 1638 4134 
L -19 4134 
L -19 4666 
z
" transform="scale(0.015625)"/>
       <path id="DejaVuSans-69" d="M 603 3500 
L 1178 3500 
L 1178 0 
L 603 0 
L 603 3500 
z
M 603 4863 
L 1178 4863 
L 1178 4134 
L 603 4134 
L 603 4863 
z
" transform="scale(0.015625)"/>
       <path id="DejaVuSans-6d" d="M 3328 2828 
Q 3544 3216 3844 3400 
Q 4144 3584 4550 3584 
Q 5097 3584 5394 3201 
Q 5691 2819 5691 2113 
L 5691 0 
L 5113 0 
L 5113 2094 
Q 5113 2597 4934 2840 
Q 4756 3084 4391 3084 
Q 3944 3084 3684 2787 
Q 3425 2491 3425 1978 
L 3425 0 
L 2847 0 
L 2847 2094 
Q 2847 2600 2669 2842 
Q 2491 3084 2119 3084 
Q 1678 3084 1418 2786 
Q 1159 2488 1159 1978 
L 1159 0 
L 581 0 
L 581 3500 
L 1159 3500 
L 1159 2956 
Q 1356 3278 1631 3431 
Q 1906 3584 2284 3584 
Q 2666 3584 2933 3390 
Q 3200 3197 3328 2828 
z
" transform="scale(0.015625)"/>
       <path id="DejaVuSans-65" d="M 3597 1894 
L 3597 1613 
L 953 1613 
Q 991 1019 1311 708 
Q 1631 397 2203 397 
Q 2534 397 2845 478 
Q 3156 559 3463 722 
L 3463 178 
Q 3153 47 2828 -22 
Q 2503 -91 2169 -91 
Q 1331 -91 842 396 
Q 353 884 353 1716 
Q 353 2575 817 3079 
Q 1281 3584 2069 3584 
Q 2775 3584 3186 3129 
Q 3597 2675 3597 1894 
z
M 3022 2063 
Q 3016 2534 2758 2815 
Q 2500 3097 2075 3097 
Q 1594 3097 1305 2825 
Q 1016 2553 972 2059 
L 3022 2063 
z
" transform="scale(0.015625)"/>
       <path id="DejaVuSans-20" transform="scale(0.015625)"/>
       <path id="DejaVuSans-53" d="M 3425 4513 
L 3425 3897 
Q 3066 4069 2747 4153 
Q 2428 4238 2131 4238 
Q 1616 4238 1336 4038 
Q 1056 3838 1056 3469 
Q 1056 3159 1242 3001 
Q 1428 2844 1947 2747 
L 2328 2669 
Q 3034 2534 3370 2195 
Q 3706 1856 3706 1288 
Q 3706 609 3251 259 
Q 2797 -91 1919 -91 
Q 1588 -91 1214 -16 
Q 841 59 441 206 
L 441 856 
Q 825 641 1194 531 
Q 1563 422 1919 422 
Q 2459 422 2753 634 
Q 3047 847 3047 1241 
Q 3047 1584 2836 1778 
Q 2625 1972 2144 2069 
L 1759 2144 
Q 1053 2284 737 2584 
Q 422 2884 422 3419 
Q 422 4038 858 4394 
Q 1294 4750 2059 4750 
Q 2388 4750 2728 4690 
Q 3069 4631 3425 4513 
z
" transform="scale(0.015625)"/>
       <path id="DejaVuSans-74" d="M 1172 4494 
L 1172 3500 
L 2356 3500 
L 2356 3053 
L 1172 3053 
L 1172 1153 
Q 1172 725 1289 603 
Q 1406 481 1766 481 
L 2356 481 
L 2356 0 
L 1766 0 
Q 1100 0 847 248 
Q 594 497 594 1153 
L 594 3053 
L 172 3053 
L 172 3500 
L 594 3500 
L 594 4494 
L 1172 4494 
z
" transform="scale(0.015625)"/>
       <path id="DejaVuSans-70" d="M 1159 525 
L 1159 -1331 
L 581 -1331 
L 581 3500 
L 1159 3500 
L 1159 2969 
Q 1341 3281 1617 3432 
Q 1894 3584 2278 3584 
Q 2916 3584 3314 3078 
Q 3713 2572 3713 1747 
Q 3713 922 3314 415 
Q 2916 -91 2278 -91 
Q 1894 -91 1617 61 
Q 1341 213 1159 525 
z
M 3116 1747 
Q 3116 2381 2855 2742 
Q 2594 3103 2138 3103 
Q 1681 3103 1420 2742 
Q 1159 2381 1159 1747 
Q 1159 1113 1420 752 
Q 1681 391 2138 391 
Q 2594 391 2855 752 
Q 3116 1113 3116 1747 
z
" transform="scale(0.015625)"/>
       <path id="DejaVuSans-73" d="M 2834 3397 
L 2834 2853 
Q 2591 2978 2328 3040 
Q 2066 3103 1784 3103 
Q 1356 3103 1142 2972 
Q 928 2841 928 2578 
Q 928 2378 1081 2264 
Q 1234 2150 1697 2047 
L 1894 2003 
Q 2506 1872 2764 1633 
Q 3022 1394 3022 966 
Q 3022 478 2636 193 
Q 2250 -91 1575 -91 
Q 1294 -91 989 -36 
Q 684 19 347 128 
L 347 722 
Q 666 556 975 473 
Q 1284 391 1588 391 
Q 1994 391 2212 530 
Q 2431 669 2431 922 
Q 2431 1156 2273 1281 
Q 2116 1406 1581 1522 
L 1381 1569 
Q 847 1681 609 1914 
Q 372 2147 372 2553 
Q 372 3047 722 3315 
Q 1072 3584 1716 3584 
Q 2034 3584 2315 3537 
Q 2597 3491 2834 3397 
z
" transform="scale(0.015625)"/>
      </defs>
      <use xlink:href="#DejaVuSans-54"/>
      <use xlink:href="#DejaVuSans-69" transform="translate(57.958984 0)"/>
      <use xlink:href="#DejaVuSans-6d" transform="translate(85.742188 0)"/>
      <use xlink:href="#DejaVuSans-65" transform="translate(183.154297 0)"/>
      <use xlink:href="#DejaVuSans-20" transform="translate(244.677734 0)"/>
      <use xlink:href="#DejaVuSans-53" transform="translate(276.464844 0)"/>
      <use xlink:href="#DejaVuSans-74" transform="translate(339.941406 0)"/>
      <use xlink:href="#DejaVuSans-65" transform="translate(379.150391 0)"/>
      <use xlink:href="#DejaVuSans-70" transform="translate(440.673828 0)"/>
      <use xlink:href="#DejaVuSans-73" transform="translate(504.150391 0)"/>
     </g>
    </g>
   </g>
   <g id="matplotlib.axis_2">
    <g id="ytick_1">
     <g id="line2d_13">
      <path d="M 61.065625 221.100511 
L 561.625625 221.100511 
" clip-path="url(#p2efba9acb2)" style="fill: none; stroke-dasharray: 0.8,1.32; stroke-dashoffset: 0; stroke: #b0b0b0; stroke-opacity: 0.6; stroke-width: 0.8"/>
     </g>
     <g id="line2d_14">
      <defs>
       <path id="ma38d712d06" d="M 0 0 
L -3.5 0 
" style="stroke: #000000; stroke-width: 0.8"/>
      </defs>
      <g>
       <use xlink:href="#ma38d712d06" x="61.065625" y="221.100511" style="stroke: #000000; stroke-width: 0.8"/>
      </g>
     </g>
     <g id="text_8">
      <!-- 0.0 -->
      <g transform="translate(28.620625 227.179261) scale(0.16 -0.16)">
       <defs>
        <path id="DejaVuSans-2e" d="M 684 794 
L 1344 794 
L 1344 0 
L 684 0 
L 684 794 
z
" transform="scale(0.015625)"/>
       </defs>
       <use xlink:href="#DejaVuSans-30"/>
       <use xlink:href="#DejaVuSans-2e" transform="translate(63.623047 0)"/>
       <use xlink:href="#DejaVuSans-30" transform="translate(95.410156 0)"/>
      </g>
     </g>
    </g>
    <g id="ytick_2">
     <g id="line2d_15">
      <path d="M 61.065625 184.203444 
L 561.625625 184.203444 
" clip-path="url(#p2efba9acb2)" style="fill: none; stroke-dasharray: 0.8,1.32; stroke-dashoffset: 0; stroke: #b0b0b0; stroke-opacity: 0.6; stroke-width: 0.8"/>
     </g>
     <g id="line2d_16">
      <g>
       <use xlink:href="#ma38d712d06" x="61.065625" y="184.203444" style="stroke: #000000; stroke-width: 0.8"/>
      </g>
     </g>
     <g id="text_9">
      <!-- 0.1 -->
      <g transform="translate(28.620625 190.282194) scale(0.16 -0.16)">
       <use xlink:href="#DejaVuSans-30"/>
       <use xlink:href="#DejaVuSans-2e" transform="translate(63.623047 0)"/>
       <use xlink:href="#DejaVuSans-31" transform="translate(95.410156 0)"/>
      </g>
     </g>
    </g>
    <g id="ytick_3">
     <g id="line2d_17">
      <path d="M 61.065625 147.306376 
L 561.625625 147.306376 
" clip-path="url(#p2efba9acb2)" style="fill: none; stroke-dasharray: 0.8,1.32; stroke-dashoffset: 0; stroke: #b0b0b0; stroke-opacity: 0.6; stroke-width: 0.8"/>
     </g>
     <g id="line2d_18">
      <g>
       <use xlink:href="#ma38d712d06" x="61.065625" y="147.306376" style="stroke: #000000; stroke-width: 0.8"/>
      </g>
     </g>
     <g id="text_10">
      <!-- 0.2 -->
      <g transform="translate(28.620625 153.385126) scale(0.16 -0.16)">
       <use xlink:href="#DejaVuSans-30"/>
       <use xlink:href="#DejaVuSans-2e" transform="translate(63.623047 0)"/>
       <use xlink:href="#DejaVuSans-32" transform="translate(95.410156 0)"/>
      </g>
     </g>
    </g>
    <g id="ytick_4">
     <g id="line2d_19">
      <path d="M 61.065625 110.409309 
L 561.625625 110.409309 
" clip-path="url(#p2efba9acb2)" style="fill: none; stroke-dasharray: 0.8,1.32; stroke-dashoffset: 0; stroke: #b0b0b0; stroke-opacity: 0.6; stroke-width: 0.8"/>
     </g>
     <g id="line2d_20">
      <g>
       <use xlink:href="#ma38d712d06" x="61.065625" y="110.409309" style="stroke: #000000; stroke-width: 0.8"/>
      </g>
     </g>
     <g id="text_11">
      <!-- 0.3 -->
      <g transform="translate(28.620625 116.488059) scale(0.16 -0.16)">
       <defs>
        <path id="DejaVuSans-33" d="M 2597 2516 
Q 3050 2419 3304 2112 
Q 3559 1806 3559 1356 
Q 3559 666 3084 287 
Q 2609 -91 1734 -91 
Q 1441 -91 1130 -33 
Q 819 25 488 141 
L 488 750 
Q 750 597 1062 519 
Q 1375 441 1716 441 
Q 2309 441 2620 675 
Q 2931 909 2931 1356 
Q 2931 1769 2642 2001 
Q 2353 2234 1838 2234 
L 1294 2234 
L 1294 2753 
L 1863 2753 
Q 2328 2753 2575 2939 
Q 2822 3125 2822 3475 
Q 2822 3834 2567 4026 
Q 2313 4219 1838 4219 
Q 1578 4219 1281 4162 
Q 984 4106 628 3988 
L 628 4550 
Q 988 4650 1302 4700 
Q 1616 4750 1894 4750 
Q 2613 4750 3031 4423 
Q 3450 4097 3450 3541 
Q 3450 3153 3228 2886 
Q 3006 2619 2597 2516 
z
" transform="scale(0.015625)"/>
       </defs>
       <use xlink:href="#DejaVuSans-30"/>
       <use xlink:href="#DejaVuSans-2e" transform="translate(63.623047 0)"/>
       <use xlink:href="#DejaVuSans-33" transform="translate(95.410156 0)"/>
      </g>
     </g>
    </g>
    <g id="ytick_5">
     <g id="line2d_21">
      <path d="M 61.065625 73.512242 
L 561.625625 73.512242 
" clip-path="url(#p2efba9acb2)" style="fill: none; stroke-dasharray: 0.8,1.32; stroke-dashoffset: 0; stroke: #b0b0b0; stroke-opacity: 0.6; stroke-width: 0.8"/>
     </g>
     <g id="line2d_22">
      <g>
       <use xlink:href="#ma38d712d06" x="61.065625" y="73.512242" style="stroke: #000000; stroke-width: 0.8"/>
      </g>
     </g>
     <g id="text_12">
      <!-- 0.4 -->
      <g transform="translate(28.620625 79.590992) scale(0.16 -0.16)">
       <defs>
        <path id="DejaVuSans-34" d="M 2419 4116 
L 825 1625 
L 2419 1625 
L 2419 4116 
z
M 2253 4666 
L 3047 4666 
L 3047 1625 
L 3713 1625 
L 3713 1100 
L 3047 1100 
L 3047 0 
L 2419 0 
L 2419 1100 
L 313 1100 
L 313 1709 
L 2253 4666 
z
" transform="scale(0.015625)"/>
       </defs>
       <use xlink:href="#DejaVuSans-30"/>
       <use xlink:href="#DejaVuSans-2e" transform="translate(63.623047 0)"/>
       <use xlink:href="#DejaVuSans-34" transform="translate(95.410156 0)"/>
      </g>
     </g>
    </g>
    <g id="ytick_6">
     <g id="line2d_23">
      <path d="M 61.065625 36.615174 
L 561.625625 36.615174 
" clip-path="url(#p2efba9acb2)" style="fill: none; stroke-dasharray: 0.8,1.32; stroke-dashoffset: 0; stroke: #b0b0b0; stroke-opacity: 0.6; stroke-width: 0.8"/>
     </g>
     <g id="line2d_24">
      <g>
       <use xlink:href="#ma38d712d06" x="61.065625" y="36.615174" style="stroke: #000000; stroke-width: 0.8"/>
      </g>
     </g>
     <g id="text_13">
      <!-- 0.5 -->
      <g transform="translate(28.620625 42.693924) scale(0.16 -0.16)">
       <use xlink:href="#DejaVuSans-30"/>
       <use xlink:href="#DejaVuSans-2e" transform="translate(63.623047 0)"/>
       <use xlink:href="#DejaVuSans-35" transform="translate(95.410156 0)"/>
      </g>
     </g>
    </g>
    <g id="text_14">
     <!-- Feature Magnitude -->
     <g transform="translate(20.877188 213.880625) rotate(-90) scale(0.18 -0.18)">
      <defs>
       <path id="DejaVuSans-46" d="M 628 4666 
L 3309 4666 
L 3309 4134 
L 1259 4134 
L 1259 2759 
L 3109 2759 
L 3109 2228 
L 1259 2228 
L 1259 0 
L 628 0 
L 628 4666 
z
" transform="scale(0.015625)"/>
       <path id="DejaVuSans-61" d="M 2194 1759 
Q 1497 1759 1228 1600 
Q 959 1441 959 1056 
Q 959 750 1161 570 
Q 1363 391 1709 391 
Q 2188 391 2477 730 
Q 2766 1069 2766 1631 
L 2766 1759 
L 2194 1759 
z
M 3341 1997 
L 3341 0 
L 2766 0 
L 2766 531 
Q 2569 213 2275 61 
Q 1981 -91 1556 -91 
Q 1019 -91 701 211 
Q 384 513 384 1019 
Q 384 1609 779 1909 
Q 1175 2209 1959 2209 
L 2766 2209 
L 2766 2266 
Q 2766 2663 2505 2880 
Q 2244 3097 1772 3097 
Q 1472 3097 1187 3025 
Q 903 2953 641 2809 
L 641 3341 
Q 956 3463 1253 3523 
Q 1550 3584 1831 3584 
Q 2591 3584 2966 3190 
Q 3341 2797 3341 1997 
z
" transform="scale(0.015625)"/>
       <path id="DejaVuSans-75" d="M 544 1381 
L 544 3500 
L 1119 3500 
L 1119 1403 
Q 1119 906 1312 657 
Q 1506 409 1894 409 
Q 2359 409 2629 706 
Q 2900 1003 2900 1516 
L 2900 3500 
L 3475 3500 
L 3475 0 
L 2900 0 
L 2900 538 
Q 2691 219 2414 64 
Q 2138 -91 1772 -91 
Q 1169 -91 856 284 
Q 544 659 544 1381 
z
M 1991 3584 
L 1991 3584 
z
" transform="scale(0.015625)"/>
       <path id="DejaVuSans-72" d="M 2631 2963 
Q 2534 3019 2420 3045 
Q 2306 3072 2169 3072 
Q 1681 3072 1420 2755 
Q 1159 2438 1159 1844 
L 1159 0 
L 581 0 
L 581 3500 
L 1159 3500 
L 1159 2956 
Q 1341 3275 1631 3429 
Q 1922 3584 2338 3584 
Q 2397 3584 2469 3576 
Q 2541 3569 2628 3553 
L 2631 2963 
z
" transform="scale(0.015625)"/>
       <path id="DejaVuSans-4d" d="M 628 4666 
L 1569 4666 
L 2759 1491 
L 3956 4666 
L 4897 4666 
L 4897 0 
L 4281 0 
L 4281 4097 
L 3078 897 
L 2444 897 
L 1241 4097 
L 1241 0 
L 628 0 
L 628 4666 
z
" transform="scale(0.015625)"/>
       <path id="DejaVuSans-67" d="M 2906 1791 
Q 2906 2416 2648 2759 
Q 2391 3103 1925 3103 
Q 1463 3103 1205 2759 
Q 947 2416 947 1791 
Q 947 1169 1205 825 
Q 1463 481 1925 481 
Q 2391 481 2648 825 
Q 2906 1169 2906 1791 
z
M 3481 434 
Q 3481 -459 3084 -895 
Q 2688 -1331 1869 -1331 
Q 1566 -1331 1297 -1286 
Q 1028 -1241 775 -1147 
L 775 -588 
Q 1028 -725 1275 -790 
Q 1522 -856 1778 -856 
Q 2344 -856 2625 -561 
Q 2906 -266 2906 331 
L 2906 616 
Q 2728 306 2450 153 
Q 2172 0 1784 0 
Q 1141 0 747 490 
Q 353 981 353 1791 
Q 353 2603 747 3093 
Q 1141 3584 1784 3584 
Q 2172 3584 2450 3431 
Q 2728 3278 2906 2969 
L 2906 3500 
L 3481 3500 
L 3481 434 
z
" transform="scale(0.015625)"/>
       <path id="DejaVuSans-6e" d="M 3513 2113 
L 3513 0 
L 2938 0 
L 2938 2094 
Q 2938 2591 2744 2837 
Q 2550 3084 2163 3084 
Q 1697 3084 1428 2787 
Q 1159 2491 1159 1978 
L 1159 0 
L 581 0 
L 581 3500 
L 1159 3500 
L 1159 2956 
Q 1366 3272 1645 3428 
Q 1925 3584 2291 3584 
Q 2894 3584 3203 3211 
Q 3513 2838 3513 2113 
z
" transform="scale(0.015625)"/>
       <path id="DejaVuSans-64" d="M 2906 2969 
L 2906 4863 
L 3481 4863 
L 3481 0 
L 2906 0 
L 2906 525 
Q 2725 213 2448 61 
Q 2172 -91 1784 -91 
Q 1150 -91 751 415 
Q 353 922 353 1747 
Q 353 2572 751 3078 
Q 1150 3584 1784 3584 
Q 2172 3584 2448 3432 
Q 2725 3281 2906 2969 
z
M 947 1747 
Q 947 1113 1208 752 
Q 1469 391 1925 391 
Q 2381 391 2643 752 
Q 2906 1113 2906 1747 
Q 2906 2381 2643 2742 
Q 2381 3103 1925 3103 
Q 1469 3103 1208 2742 
Q 947 2381 947 1747 
z
" transform="scale(0.015625)"/>
      </defs>
      <use xlink:href="#DejaVuSans-46"/>
      <use xlink:href="#DejaVuSans-65" transform="translate(52.019531 0)"/>
      <use xlink:href="#DejaVuSans-61" transform="translate(113.542969 0)"/>
      <use xlink:href="#DejaVuSans-74" transform="translate(174.822266 0)"/>
      <use xlink:href="#DejaVuSans-75" transform="translate(214.03125 0)"/>
      <use xlink:href="#DejaVuSans-72" transform="translate(277.410156 0)"/>
      <use xlink:href="#DejaVuSans-65" transform="translate(316.273438 0)"/>
      <use xlink:href="#DejaVuSans-20" transform="translate(377.796875 0)"/>
      <use xlink:href="#DejaVuSans-4d" transform="translate(409.583984 0)"/>
      <use xlink:href="#DejaVuSans-61" transform="translate(495.863281 0)"/>
      <use xlink:href="#DejaVuSans-67" transform="translate(557.142578 0)"/>
      <use xlink:href="#DejaVuSans-6e" transform="translate(620.619141 0)"/>
      <use xlink:href="#DejaVuSans-69" transform="translate(683.998047 0)"/>
      <use xlink:href="#DejaVuSans-74" transform="translate(711.78125 0)"/>
      <use xlink:href="#DejaVuSans-75" transform="translate(750.990234 0)"/>
      <use xlink:href="#DejaVuSans-64" transform="translate(814.369141 0)"/>
      <use xlink:href="#DejaVuSans-65" transform="translate(877.845703 0)"/>
     </g>
    </g>
   </g>
   <g id="line2d_25">
    <path d="M 83.818352 116.027222 
L 85.60288 129.020696 
L 87.387408 94.75096 
L 89.171935 133.824511 
L 90.956463 159.112917 
L 92.74099 164.070997 
L 94.525518 205.013332 
L 96.310046 198.043165 
L 98.094573 169.224226 
L 99.879101 144.904254 
L 101.663629 139.830505 
L 103.448156 156.419512 
L 105.232684 197.665886 
L 107.017211 203.053548 
L 108.801739 182.852521 
L 110.586267 193.082386 
L 112.370794 214.896207 
L 114.155322 178.891542 
L 115.93985 154.239265 
L 117.724377 149.602021 
L 119.508905 175.802978 
L 121.293432 219.641312 
L 123.07796 177.438622 
L 124.862488 142.93818 
L 126.647015 131.635797 
L 128.431543 139.371497 
L 130.216071 156.01919 
L 132.000598 171.108999 
L 133.785126 178.029526 
L 135.569654 182.170994 
L 137.354181 187.313994 
L 139.138709 192.047661 
L 140.923236 198.226675 
L 142.707764 196.772375 
L 144.492292 188.577016 
L 146.276819 190.303087 
L 148.061347 189.622255 
L 149.845875 193.271624 
L 151.630402 192.595233 
L 153.41493 199.228653 
L 155.199457 213.19712 
L 156.983985 212.018648 
L 158.768513 202.983695 
L 160.55304 208.993444 
L 162.337568 190.384744 
L 164.122096 187.234247 
L 165.906623 194.752656 
L 167.691151 197.688599 
L 169.475678 216.024497 
L 171.260206 217.890858 
L 173.044734 216.976442 
L 174.829261 217.608382 
L 176.613789 206.269498 
L 178.398317 197.991478 
L 180.182844 200.814044 
L 181.967372 201.72682 
L 183.7519 197.422183 
L 185.536427 190.31632 
L 187.320955 183.958561 
L 189.105482 182.909894 
L 190.89001 185.909114 
L 192.674538 195.257062 
L 194.459065 198.957927 
L 196.243593 190.559402 
L 198.028121 179.320399 
L 199.812648 164.87175 
L 201.597176 156.537803 
L 203.381703 156.165676 
L 205.166231 157.801842 
L 206.950759 147.490523 
L 208.735286 134.395784 
L 210.519814 123.705141 
L 212.304342 120.979715 
L 214.088869 121.622651 
L 215.873397 136.043612 
L 217.657924 154.740158 
L 221.22698 176.500551 
L 223.011507 181.74556 
L 224.796035 181.944979 
L 226.580563 175.877606 
L 230.149618 148.961306 
L 231.934145 140.847113 
L 233.718673 136.042072 
L 235.503201 132.512677 
L 237.287728 132.313877 
L 239.072256 142.589838 
L 240.856784 147.73549 
L 242.641311 156.096345 
L 244.425839 170.18141 
L 246.210367 182.93974 
L 247.994894 189.055212 
L 249.779422 175.481747 
L 251.563949 146.243902 
L 253.348477 124.212626 
L 255.133005 114.291507 
L 256.917532 125.594901 
L 258.70206 125.376253 
L 260.486588 130.471175 
L 262.271115 127.185444 
L 264.055643 124.336333 
L 265.84017 116.077672 
L 267.624698 86.86364 
L 269.409226 91.434313 
L 271.193753 86.872943 
L 272.978281 82.958258 
L 274.762809 120.249547 
L 278.331864 209.551473 
L 280.116391 180.620208 
L 281.900919 189.297736 
L 283.685447 210.47159 
L 287.254502 89.654141 
L 290.823557 37.573239 
L 292.608085 45.179188 
L 294.392613 64.997444 
L 296.17714 89.417459 
L 297.961668 105.530276 
L 299.746195 125.537886 
L 301.530723 135.561039 
L 303.315251 133.027546 
L 305.099778 136.738917 
L 306.884306 129.131516 
L 308.668834 119.396287 
L 310.453361 118.959585 
L 312.237889 122.062883 
L 314.022416 131.171511 
L 315.806944 152.248632 
L 317.591472 171.236032 
L 319.375999 182.064606 
L 321.160527 195.483611 
L 322.945055 194.019403 
L 324.729582 173.523293 
L 326.51411 149.441163 
L 328.298637 130.604416 
L 330.083165 124.334112 
L 331.867693 131.220747 
L 333.65222 142.699134 
L 335.436748 169.800211 
L 337.221276 180.627908 
L 339.005803 181.25331 
L 340.790331 180.593509 
L 342.574859 174.420263 
L 344.359386 155.38405 
L 346.143914 139.845487 
L 347.928441 130.829535 
L 349.712969 114.536524 
L 351.497497 111.644682 
L 353.282024 122.941489 
L 355.066552 130.311604 
L 356.85108 133.834237 
L 358.635607 130.38993 
L 360.420135 112.582975 
L 362.204662 80.012996 
L 363.98919 71.562253 
L 365.773718 81.073908 
L 367.558245 91.496244 
L 371.127301 117.479334 
L 372.911828 126.393873 
L 374.696356 151.215046 
L 376.480883 171.204897 
L 378.265411 175.427634 
L 380.049939 173.793239 
L 381.834466 166.926848 
L 385.403522 123.148943 
L 387.188049 111.669797 
L 388.972577 105.768377 
L 390.757105 112.208588 
L 392.541632 125.691426 
L 394.32616 146.687873 
L 396.110687 159.324797 
L 397.895215 166.223939 
L 399.679743 159.756243 
L 401.46427 151.171336 
L 403.248798 152.428414 
L 405.033326 154.889668 
L 406.817853 165.795902 
L 408.602381 179.126289 
L 410.386908 180.067336 
L 412.171436 173.326082 
L 413.955964 165.008234 
L 415.740491 154.742187 
L 417.525019 145.138093 
L 419.309547 140.658496 
L 421.094074 148.353053 
L 422.878602 151.410189 
L 424.663129 163.649029 
L 426.447657 171.374122 
L 428.232185 172.683295 
L 430.016712 170.228661 
L 431.80124 175.931862 
L 433.585768 187.8843 
L 435.370295 191.212908 
L 437.154823 204.760376 
L 438.93935 205.537927 
L 440.723878 196.132694 
L 442.508406 193.593763 
L 444.292933 193.865897 
L 446.077461 199.190523 
L 447.861989 206.597167 
L 449.646516 207.318072 
L 451.431044 206.953763 
L 453.215572 207.74998 
L 455.000099 207.705962 
L 456.784627 203.489096 
L 458.569154 198.727078 
L 460.353682 189.576462 
L 462.13821 185.620379 
L 463.922737 185.396147 
L 465.707265 194.141829 
L 469.27632 215.085704 
L 471.060848 207.038048 
L 472.845375 206.396168 
L 474.629903 203.679435 
L 476.414431 204.197487 
L 478.198958 217.686741 
L 479.983486 217.639969 
L 481.768014 204.833429 
L 483.552541 188.039679 
L 485.337069 195.191041 
L 487.121596 199.554167 
L 488.906124 209.999722 
L 490.690652 217.018195 
L 492.475179 214.246519 
L 494.259707 216.086576 
L 496.044235 216.89401 
L 497.828762 221.081653 
L 499.61329 217.518059 
L 501.397818 212.079397 
L 503.182345 213.240764 
L 504.966873 217.607717 
L 506.7514 207.433575 
L 508.535928 191.930772 
L 510.320456 173.663352 
L 512.104983 164.839476 
L 513.889511 164.751968 
L 515.674039 172.942849 
L 517.458566 187.568234 
L 519.243094 198.285713 
L 521.027621 201.236292 
L 522.812149 193.770483 
L 524.596677 181.996268 
L 528.165732 167.655318 
L 529.95026 157.705592 
L 531.734787 145.6562 
L 533.519315 130.383294 
L 535.303842 121.539509 
L 537.08837 111.717631 
L 538.872898 109.860639 
L 538.872898 109.860639 
" clip-path="url(#p2efba9acb2)" style="fill: none; stroke: #d3d3d3; stroke-width: 2; stroke-linecap: square"/>
   </g>
   <g id="line2d_26">
    <path d="M 61.065625 198.203524 
L 561.625625 198.203524 
" clip-path="url(#p2efba9acb2)" style="fill: none; stroke-dasharray: 5.55,2.4; stroke-dashoffset: 0; stroke: #ff0000; stroke-width: 1.5"/>
   </g>
   <g id="line2d_27">
    <path d="M 83.818352 138.924211 
L 85.60288 151.917685 
L 87.387408 117.647949 
L 89.171935 156.7215 
L 90.956463 182.009906 
L 92.74099 186.967985 
L 94.525518 221.100511 
L 96.310046 220.940153 
L 98.094573 192.121215 
L 99.879101 167.801243 
L 101.663629 162.727494 
L 103.448156 179.3165 
L 105.232684 220.562874 
L 107.017211 221.100511 
L 108.801739 205.749509 
L 110.586267 215.979373 
L 112.370794 221.100511 
L 114.155322 201.78853 
L 115.93985 177.136254 
L 117.724377 172.49901 
L 119.508905 198.699966 
L 121.293432 221.100511 
L 123.07796 200.335609 
L 124.862488 165.835169 
L 126.647015 154.532786 
L 128.431543 162.268486 
L 130.216071 178.916179 
L 132.000598 194.005988 
L 133.785126 200.926514 
L 135.569654 205.067982 
L 137.354181 210.210982 
L 139.138709 214.944649 
L 140.923236 221.100511 
L 142.707764 219.669362 
L 144.492292 211.474003 
L 146.276819 213.200074 
L 148.061347 212.519243 
L 149.845875 216.168612 
L 151.630402 215.49222 
L 153.41493 221.100511 
L 160.55304 221.100511 
L 162.337568 213.281732 
L 164.122096 210.131235 
L 165.906623 217.649644 
L 167.691151 220.585586 
L 169.475678 221.100511 
L 176.613789 221.100511 
L 178.398317 220.888465 
L 180.182844 221.100511 
L 181.967372 221.100511 
L 183.7519 220.319171 
L 185.536427 213.213308 
L 187.320955 206.855549 
L 189.105482 205.806881 
L 190.89001 208.806101 
L 192.674538 218.15405 
L 194.459065 221.100511 
L 196.243593 213.45639 
L 198.028121 202.217386 
L 199.812648 187.768739 
L 201.597176 179.434792 
L 203.381703 179.062665 
L 205.166231 180.698831 
L 206.950759 170.387512 
L 208.735286 157.292773 
L 210.519814 146.60213 
L 212.304342 143.876704 
L 214.088869 144.51964 
L 215.873397 158.940601 
L 217.657924 177.637147 
L 221.22698 199.397539 
L 223.011507 204.642548 
L 224.796035 204.841966 
L 226.580563 198.774594 
L 230.149618 171.858295 
L 231.934145 163.744102 
L 233.718673 158.939061 
L 235.503201 155.409666 
L 237.287728 155.210866 
L 239.072256 165.486827 
L 240.856784 170.632479 
L 242.641311 178.993334 
L 244.425839 193.078399 
L 246.210367 205.836728 
L 247.994894 211.9522 
L 249.779422 198.378734 
L 251.563949 169.140891 
L 253.348477 147.109615 
L 255.133005 137.188496 
L 256.917532 148.49189 
L 258.70206 148.273242 
L 260.486588 153.368164 
L 262.271115 150.082433 
L 264.055643 147.233322 
L 265.84017 138.974661 
L 267.624698 109.760629 
L 269.409226 114.331302 
L 271.193753 109.769932 
L 272.978281 105.855246 
L 274.762809 143.146536 
L 276.547336 186.510984 
L 278.331864 221.100511 
L 280.116391 203.517196 
L 283.685447 221.100511 
L 285.469974 174.256283 
L 287.254502 112.55113 
L 290.823557 60.470228 
L 292.608085 68.076177 
L 294.392613 87.894433 
L 296.17714 112.314448 
L 297.961668 128.427265 
L 299.746195 148.434875 
L 301.530723 158.458028 
L 303.315251 155.924535 
L 305.099778 159.635906 
L 306.884306 152.028505 
L 308.668834 142.293276 
L 310.453361 141.856574 
L 312.237889 144.959872 
L 314.022416 154.0685 
L 315.806944 175.145621 
L 317.591472 194.133021 
L 319.375999 204.961594 
L 321.160527 218.380599 
L 322.945055 216.916391 
L 324.729582 196.420282 
L 326.51411 172.338152 
L 328.298637 153.501405 
L 330.083165 147.231101 
L 331.867693 154.117736 
L 333.65222 165.596123 
L 335.436748 192.6972 
L 337.221276 203.524896 
L 339.005803 204.150298 
L 340.790331 203.490497 
L 342.574859 197.317252 
L 344.359386 178.281039 
L 346.143914 162.742476 
L 347.928441 153.726524 
L 349.712969 137.433513 
L 351.497497 134.541671 
L 353.282024 145.838478 
L 355.066552 153.208593 
L 356.85108 156.731226 
L 358.635607 153.286919 
L 360.420135 135.479964 
L 362.204662 102.909985 
L 363.98919 94.459242 
L 365.773718 103.970897 
L 367.558245 114.393233 
L 371.127301 140.376322 
L 372.911828 149.290862 
L 374.696356 174.112035 
L 376.480883 194.101886 
L 378.265411 198.324622 
L 380.049939 196.690228 
L 381.834466 189.823837 
L 385.403522 146.045932 
L 387.188049 134.566786 
L 388.972577 128.665366 
L 390.757105 135.105577 
L 392.541632 148.588415 
L 394.32616 169.584862 
L 396.110687 182.221786 
L 397.895215 189.120928 
L 399.679743 182.653232 
L 401.46427 174.068325 
L 403.248798 175.325403 
L 405.033326 177.786657 
L 406.817853 188.692891 
L 408.602381 202.023276 
L 410.386908 202.964324 
L 412.171436 196.223071 
L 413.955964 187.905223 
L 415.740491 177.639176 
L 417.525019 168.035082 
L 419.309547 163.555484 
L 421.094074 171.250042 
L 422.878602 174.307178 
L 424.663129 186.546018 
L 426.447657 194.271111 
L 428.232185 195.580284 
L 430.016712 193.12565 
L 431.80124 198.828849 
L 433.585768 210.781288 
L 435.370295 214.109896 
L 437.154823 221.100511 
L 438.93935 221.100511 
L 440.723878 219.029681 
L 442.508406 216.490751 
L 444.292933 216.762884 
L 446.077461 221.100511 
L 458.569154 221.100511 
L 460.353682 212.473449 
L 462.13821 208.517366 
L 463.922737 208.293135 
L 465.707265 217.038817 
L 467.491793 221.100511 
L 481.768014 221.100511 
L 483.552541 210.936667 
L 485.337069 218.088029 
L 487.121596 221.100511 
L 506.7514 221.100511 
L 508.535928 214.827759 
L 510.320456 196.560341 
L 512.104983 187.736465 
L 513.889511 187.648957 
L 515.674039 195.839838 
L 517.458566 210.465222 
L 519.243094 221.100511 
L 521.027621 221.100511 
L 522.812149 216.66747 
L 524.596677 204.893255 
L 528.165732 190.552307 
L 529.95026 180.602581 
L 531.734787 168.553189 
L 533.519315 153.280283 
L 535.303842 144.436498 
L 537.08837 134.614619 
L 538.872898 132.757628 
L 538.872898 132.757628 
" clip-path="url(#p2efba9acb2)" style="fill: none; stroke: #1f77b4; stroke-width: 2.5; stroke-linecap: square"/>
   </g>
   <g id="patch_3">
    <path d="M 61.065625 230.276875 
L 61.065625 28.396875 
" style="fill: none; stroke: #000000; stroke-width: 0.8; stroke-linejoin: miter; stroke-linecap: square"/>
   </g>
   <g id="patch_4">
    <path d="M 561.625625 230.276875 
L 561.625625 28.396875 
" style="fill: none; stroke: #000000; stroke-width: 0.8; stroke-linejoin: miter; stroke-linecap: square"/>
   </g>
   <g id="patch_5">
    <path d="M 61.065625 230.276875 
L 561.625625 230.276875 
" style="fill: none; stroke: #000000; stroke-width: 0.8; stroke-linejoin: miter; stroke-linecap: square"/>
   </g>
   <g id="patch_6">
    <path d="M 61.065625 28.396875 
L 561.625625 28.396875 
" style="fill: none; stroke: #000000; stroke-width: 0.8; stroke-linejoin: miter; stroke-linecap: square"/>
   </g>
   <g id="text_15">
    <!-- Channel 5 Mechanism Visualization -->
    <g transform="translate(112.408125 22.396875) scale(0.2 -0.2)">
     <defs>
      <path id="DejaVuSans-Bold-43" d="M 4288 256 
Q 3956 84 3597 -3 
Q 3238 -91 2847 -91 
Q 1681 -91 1000 561 
Q 319 1213 319 2328 
Q 319 3447 1000 4098 
Q 1681 4750 2847 4750 
Q 3238 4750 3597 4662 
Q 3956 4575 4288 4403 
L 4288 3438 
Q 3953 3666 3628 3772 
Q 3303 3878 2944 3878 
Q 2300 3878 1931 3465 
Q 1563 3053 1563 2328 
Q 1563 1606 1931 1193 
Q 2300 781 2944 781 
Q 3303 781 3628 887 
Q 3953 994 4288 1222 
L 4288 256 
z
" transform="scale(0.015625)"/>
      <path id="DejaVuSans-Bold-68" d="M 4056 2131 
L 4056 0 
L 2931 0 
L 2931 347 
L 2931 1625 
Q 2931 2084 2911 2256 
Q 2891 2428 2841 2509 
Q 2775 2619 2662 2680 
Q 2550 2741 2406 2741 
Q 2056 2741 1856 2470 
Q 1656 2200 1656 1722 
L 1656 0 
L 538 0 
L 538 4863 
L 1656 4863 
L 1656 2988 
Q 1909 3294 2193 3439 
Q 2478 3584 2822 3584 
Q 3428 3584 3742 3212 
Q 4056 2841 4056 2131 
z
" transform="scale(0.015625)"/>
      <path id="DejaVuSans-Bold-61" d="M 2106 1575 
Q 1756 1575 1579 1456 
Q 1403 1338 1403 1106 
Q 1403 894 1545 773 
Q 1688 653 1941 653 
Q 2256 653 2472 879 
Q 2688 1106 2688 1447 
L 2688 1575 
L 2106 1575 
z
M 3816 1997 
L 3816 0 
L 2688 0 
L 2688 519 
Q 2463 200 2181 54 
Q 1900 -91 1497 -91 
Q 953 -91 614 226 
Q 275 544 275 1050 
Q 275 1666 698 1953 
Q 1122 2241 2028 2241 
L 2688 2241 
L 2688 2328 
Q 2688 2594 2478 2717 
Q 2269 2841 1825 2841 
Q 1466 2841 1156 2769 
Q 847 2697 581 2553 
L 581 3406 
Q 941 3494 1303 3539 
Q 1666 3584 2028 3584 
Q 2975 3584 3395 3211 
Q 3816 2838 3816 1997 
z
" transform="scale(0.015625)"/>
      <path id="DejaVuSans-Bold-6e" d="M 4056 2131 
L 4056 0 
L 2931 0 
L 2931 347 
L 2931 1631 
Q 2931 2084 2911 2256 
Q 2891 2428 2841 2509 
Q 2775 2619 2662 2680 
Q 2550 2741 2406 2741 
Q 2056 2741 1856 2470 
Q 1656 2200 1656 1722 
L 1656 0 
L 538 0 
L 538 3500 
L 1656 3500 
L 1656 2988 
Q 1909 3294 2193 3439 
Q 2478 3584 2822 3584 
Q 3428 3584 3742 3212 
Q 4056 2841 4056 2131 
z
" transform="scale(0.015625)"/>
      <path id="DejaVuSans-Bold-65" d="M 4031 1759 
L 4031 1441 
L 1416 1441 
Q 1456 1047 1700 850 
Q 1944 653 2381 653 
Q 2734 653 3104 758 
Q 3475 863 3866 1075 
L 3866 213 
Q 3469 63 3072 -14 
Q 2675 -91 2278 -91 
Q 1328 -91 801 392 
Q 275 875 275 1747 
Q 275 2603 792 3093 
Q 1309 3584 2216 3584 
Q 3041 3584 3536 3087 
Q 4031 2591 4031 1759 
z
M 2881 2131 
Q 2881 2450 2695 2645 
Q 2509 2841 2209 2841 
Q 1884 2841 1681 2658 
Q 1478 2475 1428 2131 
L 2881 2131 
z
" transform="scale(0.015625)"/>
      <path id="DejaVuSans-Bold-6c" d="M 538 4863 
L 1656 4863 
L 1656 0 
L 538 0 
L 538 4863 
z
" transform="scale(0.015625)"/>
      <path id="DejaVuSans-Bold-20" transform="scale(0.015625)"/>
      <path id="DejaVuSans-Bold-35" d="M 678 4666 
L 3669 4666 
L 3669 3781 
L 1638 3781 
L 1638 3059 
Q 1775 3097 1914 3117 
Q 2053 3138 2203 3138 
Q 3056 3138 3531 2711 
Q 4006 2284 4006 1522 
Q 4006 766 3489 337 
Q 2972 -91 2053 -91 
Q 1656 -91 1267 -14 
Q 878 63 494 219 
L 494 1166 
Q 875 947 1217 837 
Q 1559 728 1863 728 
Q 2300 728 2551 942 
Q 2803 1156 2803 1522 
Q 2803 1891 2551 2103 
Q 2300 2316 1863 2316 
Q 1603 2316 1309 2248 
Q 1016 2181 678 2041 
L 678 4666 
z
" transform="scale(0.015625)"/>
      <path id="DejaVuSans-Bold-4d" d="M 588 4666 
L 2119 4666 
L 3181 2169 
L 4250 4666 
L 5778 4666 
L 5778 0 
L 4641 0 
L 4641 3413 
L 3566 897 
L 2803 897 
L 1728 3413 
L 1728 0 
L 588 0 
L 588 4666 
z
" transform="scale(0.015625)"/>
      <path id="DejaVuSans-Bold-63" d="M 3366 3391 
L 3366 2478 
Q 3138 2634 2908 2709 
Q 2678 2784 2431 2784 
Q 1963 2784 1702 2511 
Q 1441 2238 1441 1747 
Q 1441 1256 1702 982 
Q 1963 709 2431 709 
Q 2694 709 2930 787 
Q 3166 866 3366 1019 
L 3366 103 
Q 3103 6 2833 -42 
Q 2563 -91 2291 -91 
Q 1344 -91 809 395 
Q 275 881 275 1747 
Q 275 2613 809 3098 
Q 1344 3584 2291 3584 
Q 2566 3584 2833 3536 
Q 3100 3488 3366 3391 
z
" transform="scale(0.015625)"/>
      <path id="DejaVuSans-Bold-69" d="M 538 3500 
L 1656 3500 
L 1656 0 
L 538 0 
L 538 3500 
z
M 538 4863 
L 1656 4863 
L 1656 3950 
L 538 3950 
L 538 4863 
z
" transform="scale(0.015625)"/>
      <path id="DejaVuSans-Bold-73" d="M 3272 3391 
L 3272 2541 
Q 2913 2691 2578 2766 
Q 2244 2841 1947 2841 
Q 1628 2841 1473 2761 
Q 1319 2681 1319 2516 
Q 1319 2381 1436 2309 
Q 1553 2238 1856 2203 
L 2053 2175 
Q 2913 2066 3209 1816 
Q 3506 1566 3506 1031 
Q 3506 472 3093 190 
Q 2681 -91 1863 -91 
Q 1516 -91 1145 -36 
Q 775 19 384 128 
L 384 978 
Q 719 816 1070 734 
Q 1422 653 1784 653 
Q 2113 653 2278 743 
Q 2444 834 2444 1013 
Q 2444 1163 2330 1236 
Q 2216 1309 1875 1350 
L 1678 1375 
Q 931 1469 631 1722 
Q 331 1975 331 2491 
Q 331 3047 712 3315 
Q 1094 3584 1881 3584 
Q 2191 3584 2531 3537 
Q 2872 3491 3272 3391 
z
" transform="scale(0.015625)"/>
      <path id="DejaVuSans-Bold-6d" d="M 3781 2919 
Q 3994 3244 4286 3414 
Q 4578 3584 4928 3584 
Q 5531 3584 5847 3212 
Q 6163 2841 6163 2131 
L 6163 0 
L 5038 0 
L 5038 1825 
Q 5041 1866 5042 1909 
Q 5044 1953 5044 2034 
Q 5044 2406 4934 2573 
Q 4825 2741 4581 2741 
Q 4263 2741 4089 2478 
Q 3916 2216 3909 1719 
L 3909 0 
L 2784 0 
L 2784 1825 
Q 2784 2406 2684 2573 
Q 2584 2741 2328 2741 
Q 2006 2741 1831 2477 
Q 1656 2213 1656 1722 
L 1656 0 
L 531 0 
L 531 3500 
L 1656 3500 
L 1656 2988 
Q 1863 3284 2130 3434 
Q 2397 3584 2719 3584 
Q 3081 3584 3359 3409 
Q 3638 3234 3781 2919 
z
" transform="scale(0.015625)"/>
      <path id="DejaVuSans-Bold-56" d="M 31 4666 
L 1241 4666 
L 2478 1222 
L 3713 4666 
L 4922 4666 
L 3194 0 
L 1759 0 
L 31 4666 
z
" transform="scale(0.015625)"/>
      <path id="DejaVuSans-Bold-75" d="M 500 1363 
L 500 3500 
L 1625 3500 
L 1625 3150 
Q 1625 2866 1622 2436 
Q 1619 2006 1619 1863 
Q 1619 1441 1641 1255 
Q 1663 1069 1716 984 
Q 1784 875 1895 815 
Q 2006 756 2150 756 
Q 2500 756 2700 1025 
Q 2900 1294 2900 1772 
L 2900 3500 
L 4019 3500 
L 4019 0 
L 2900 0 
L 2900 506 
Q 2647 200 2364 54 
Q 2081 -91 1741 -91 
Q 1134 -91 817 281 
Q 500 653 500 1363 
z
" transform="scale(0.015625)"/>
      <path id="DejaVuSans-Bold-7a" d="M 366 3500 
L 3419 3500 
L 3419 2719 
L 1575 800 
L 3419 800 
L 3419 0 
L 288 0 
L 288 781 
L 2131 2700 
L 366 2700 
L 366 3500 
z
" transform="scale(0.015625)"/>
      <path id="DejaVuSans-Bold-74" d="M 1759 4494 
L 1759 3500 
L 2913 3500 
L 2913 2700 
L 1759 2700 
L 1759 1216 
Q 1759 972 1856 886 
Q 1953 800 2241 800 
L 2816 800 
L 2816 0 
L 1856 0 
Q 1194 0 917 276 
Q 641 553 641 1216 
L 641 2700 
L 84 2700 
L 84 3500 
L 641 3500 
L 641 4494 
L 1759 4494 
z
" transform="scale(0.015625)"/>
      <path id="DejaVuSans-Bold-6f" d="M 2203 2784 
Q 1831 2784 1636 2517 
Q 1441 2250 1441 1747 
Q 1441 1244 1636 976 
Q 1831 709 2203 709 
Q 2569 709 2762 976 
Q 2956 1244 2956 1747 
Q 2956 2250 2762 2517 
Q 2569 2784 2203 2784 
z
M 2203 3584 
Q 3106 3584 3614 3096 
Q 4122 2609 4122 1747 
Q 4122 884 3614 396 
Q 3106 -91 2203 -91 
Q 1297 -91 786 396 
Q 275 884 275 1747 
Q 275 2609 786 3096 
Q 1297 3584 2203 3584 
z
" transform="scale(0.015625)"/>
     </defs>
     <use xlink:href="#DejaVuSans-Bold-43"/>
     <use xlink:href="#DejaVuSans-Bold-68" transform="translate(73.388672 0)"/>
     <use xlink:href="#DejaVuSans-Bold-61" transform="translate(144.580078 0)"/>
     <use xlink:href="#DejaVuSans-Bold-6e" transform="translate(212.060547 0)"/>
     <use xlink:href="#DejaVuSans-Bold-6e" transform="translate(283.251953 0)"/>
     <use xlink:href="#DejaVuSans-Bold-65" transform="translate(354.443359 0)"/>
     <use xlink:href="#DejaVuSans-Bold-6c" transform="translate(422.265625 0)"/>
     <use xlink:href="#DejaVuSans-Bold-20" transform="translate(456.542969 0)"/>
     <use xlink:href="#DejaVuSans-Bold-35" transform="translate(491.357422 0)"/>
     <use xlink:href="#DejaVuSans-Bold-20" transform="translate(560.9375 0)"/>
     <use xlink:href="#DejaVuSans-Bold-4d" transform="translate(595.751953 0)"/>
     <use xlink:href="#DejaVuSans-Bold-65" transform="translate(695.263672 0)"/>
     <use xlink:href="#DejaVuSans-Bold-63" transform="translate(763.085938 0)"/>
     <use xlink:href="#DejaVuSans-Bold-68" transform="translate(822.363281 0)"/>
     <use xlink:href="#DejaVuSans-Bold-61" transform="translate(893.554688 0)"/>
     <use xlink:href="#DejaVuSans-Bold-6e" transform="translate(961.035156 0)"/>
     <use xlink:href="#DejaVuSans-Bold-69" transform="translate(1032.226562 0)"/>
     <use xlink:href="#DejaVuSans-Bold-73" transform="translate(1066.503906 0)"/>
     <use xlink:href="#DejaVuSans-Bold-6d" transform="translate(1126.025391 0)"/>
     <use xlink:href="#DejaVuSans-Bold-20" transform="translate(1230.224609 0)"/>
     <use xlink:href="#DejaVuSans-Bold-56" transform="translate(1265.039062 0)"/>
     <use xlink:href="#DejaVuSans-Bold-69" transform="translate(1340.681641 0)"/>
     <use xlink:href="#DejaVuSans-Bold-73" transform="translate(1374.958984 0)"/>
     <use xlink:href="#DejaVuSans-Bold-75" transform="translate(1434.480469 0)"/>
     <use xlink:href="#DejaVuSans-Bold-61" transform="translate(1505.671875 0)"/>
     <use xlink:href="#DejaVuSans-Bold-6c" transform="translate(1573.152344 0)"/>
     <use xlink:href="#DejaVuSans-Bold-69" transform="translate(1607.429688 0)"/>
     <use xlink:href="#DejaVuSans-Bold-7a" transform="translate(1641.707031 0)"/>
     <use xlink:href="#DejaVuSans-Bold-61" transform="translate(1699.910156 0)"/>
     <use xlink:href="#DejaVuSans-Bold-74" transform="translate(1767.390625 0)"/>
     <use xlink:href="#DejaVuSans-Bold-69" transform="translate(1815.193359 0)"/>
     <use xlink:href="#DejaVuSans-Bold-6f" transform="translate(1849.470703 0)"/>
     <use xlink:href="#DejaVuSans-Bold-6e" transform="translate(1918.171875 0)"/>
    </g>
   </g>
   <g id="legend_1">
    <g id="patch_7">
     <path d="M 308.680625 112.681875 
L 550.425625 112.681875 
Q 553.625625 112.681875 553.625625 109.481875 
L 553.625625 39.596875 
Q 553.625625 36.396875 550.425625 36.396875 
L 308.680625 36.396875 
Q 305.480625 36.396875 305.480625 39.596875 
L 305.480625 109.481875 
Q 305.480625 112.681875 308.680625 112.681875 
z
" style="fill: #ffffff; stroke: #000000; stroke-linejoin: miter"/>
    </g>
    <g id="line2d_28">
     <path d="M 311.880625 49.424375 
L 327.880625 49.424375 
L 343.880625 49.424375 
" style="fill: none; stroke: #d3d3d3; stroke-width: 2; stroke-linecap: square"/>
    </g>
    <g id="text_16">
     <!-- Magnitude (|x|) -->
     <g transform="translate(356.680625 55.024375) scale(0.16 -0.16)">
      <defs>
       <path id="DejaVuSans-28" d="M 1984 4856 
Q 1566 4138 1362 3434 
Q 1159 2731 1159 2009 
Q 1159 1288 1364 580 
Q 1569 -128 1984 -844 
L 1484 -844 
Q 1016 -109 783 600 
Q 550 1309 550 2009 
Q 550 2706 781 3412 
Q 1013 4119 1484 4856 
L 1984 4856 
z
" transform="scale(0.015625)"/>
       <path id="DejaVuSans-7c" d="M 1344 4891 
L 1344 -1509 
L 813 -1509 
L 813 4891 
L 1344 4891 
z
" transform="scale(0.015625)"/>
       <path id="DejaVuSans-78" d="M 3513 3500 
L 2247 1797 
L 3578 0 
L 2900 0 
L 1881 1375 
L 863 0 
L 184 0 
L 1544 1831 
L 300 3500 
L 978 3500 
L 1906 2253 
L 2834 3500 
L 3513 3500 
z
" transform="scale(0.015625)"/>
       <path id="DejaVuSans-29" d="M 513 4856 
L 1013 4856 
Q 1481 4119 1714 3412 
Q 1947 2706 1947 2009 
Q 1947 1309 1714 600 
Q 1481 -109 1013 -844 
L 513 -844 
Q 928 -128 1133 580 
Q 1338 1288 1338 2009 
Q 1338 2731 1133 3434 
Q 928 4138 513 4856 
z
" transform="scale(0.015625)"/>
      </defs>
      <use xlink:href="#DejaVuSans-4d"/>
      <use xlink:href="#DejaVuSans-61" transform="translate(86.279297 0)"/>
      <use xlink:href="#DejaVuSans-67" transform="translate(147.558594 0)"/>
      <use xlink:href="#DejaVuSans-6e" transform="translate(211.035156 0)"/>
      <use xlink:href="#DejaVuSans-69" transform="translate(274.414062 0)"/>
      <use xlink:href="#DejaVuSans-74" transform="translate(302.197266 0)"/>
      <use xlink:href="#DejaVuSans-75" transform="translate(341.40625 0)"/>
      <use xlink:href="#DejaVuSans-64" transform="translate(404.785156 0)"/>
      <use xlink:href="#DejaVuSans-65" transform="translate(468.261719 0)"/>
      <use xlink:href="#DejaVuSans-20" transform="translate(529.785156 0)"/>
      <use xlink:href="#DejaVuSans-28" transform="translate(561.572266 0)"/>
      <use xlink:href="#DejaVuSans-7c" transform="translate(600.585938 0)"/>
      <use xlink:href="#DejaVuSans-78" transform="translate(634.277344 0)"/>
      <use xlink:href="#DejaVuSans-7c" transform="translate(693.457031 0)"/>
      <use xlink:href="#DejaVuSans-29" transform="translate(727.148438 0)"/>
     </g>
    </g>
    <g id="line2d_29">
     <path d="M 311.880625 73.354375 
L 327.880625 73.354375 
L 343.880625 73.354375 
" style="fill: none; stroke-dasharray: 5.55,2.4; stroke-dashoffset: 0; stroke: #ff0000; stroke-width: 1.5"/>
    </g>
    <g id="text_17">
     <!-- Threshold () -->
     <g transform="translate(356.680625 78.954375) scale(0.16 -0.16)">
      <defs>
       <path id="DejaVuSans-68" d="M 3513 2113 
L 3513 0 
L 2938 0 
L 2938 2094 
Q 2938 2591 2744 2837 
Q 2550 3084 2163 3084 
Q 1697 3084 1428 2787 
Q 1159 2491 1159 1978 
L 1159 0 
L 581 0 
L 581 4863 
L 1159 4863 
L 1159 2956 
Q 1366 3272 1645 3428 
Q 1925 3584 2291 3584 
Q 2894 3584 3203 3211 
Q 3513 2838 3513 2113 
z
" transform="scale(0.015625)"/>
       <path id="DejaVuSans-6f" d="M 1959 3097 
Q 1497 3097 1228 2736 
Q 959 2375 959 1747 
Q 959 1119 1226 758 
Q 1494 397 1959 397 
Q 2419 397 2687 759 
Q 2956 1122 2956 1747 
Q 2956 2369 2687 2733 
Q 2419 3097 1959 3097 
z
M 1959 3584 
Q 2709 3584 3137 3096 
Q 3566 2609 3566 1747 
Q 3566 888 3137 398 
Q 2709 -91 1959 -91 
Q 1206 -91 779 398 
Q 353 888 353 1747 
Q 353 2609 779 3096 
Q 1206 3584 1959 3584 
z
" transform="scale(0.015625)"/>
       <path id="DejaVuSans-6c" d="M 603 4863 
L 1178 4863 
L 1178 0 
L 603 0 
L 603 4863 
z
" transform="scale(0.015625)"/>
       <path id="DejaVuSans-3c4" d="M 2319 638 
Q 2431 488 2769 488 
L 3047 488 
L 3047 0 
L 2700 0 
Q 2138 0 1881 300 
Q 1625 606 1625 1269 
L 1625 2925 
L 313 2925 
L 313 3500 
L 3541 3500 
L 3541 2925 
L 2213 2925 
L 2213 1234 
Q 2213 781 2319 638 
z
" transform="scale(0.015625)"/>
      </defs>
      <use xlink:href="#DejaVuSans-54"/>
      <use xlink:href="#DejaVuSans-68" transform="translate(61.083984 0)"/>
      <use xlink:href="#DejaVuSans-72" transform="translate(124.462891 0)"/>
      <use xlink:href="#DejaVuSans-65" transform="translate(163.326172 0)"/>
      <use xlink:href="#DejaVuSans-73" transform="translate(224.849609 0)"/>
      <use xlink:href="#DejaVuSans-68" transform="translate(276.949219 0)"/>
      <use xlink:href="#DejaVuSans-6f" transform="translate(340.328125 0)"/>
      <use xlink:href="#DejaVuSans-6c" transform="translate(401.509766 0)"/>
      <use xlink:href="#DejaVuSans-64" transform="translate(429.292969 0)"/>
      <use xlink:href="#DejaVuSans-20" transform="translate(492.769531 0)"/>
      <use xlink:href="#DejaVuSans-28" transform="translate(524.556641 0)"/>
      <use xlink:href="#DejaVuSans-3c4" transform="translate(563.570312 0)"/>
      <use xlink:href="#DejaVuSans-29" transform="translate(623.775391 0)"/>
     </g>
    </g>
    <g id="line2d_30">
     <path d="M 311.880625 96.909375 
L 327.880625 96.909375 
L 343.880625 96.909375 
" style="fill: none; stroke: #1f77b4; stroke-width: 2.5; stroke-linecap: square"/>
    </g>
    <g id="text_18">
     <!-- Magnitude (ReLU(|x|-)) -->
     <g transform="translate(356.680625 102.509375) scale(0.16 -0.16)">
      <defs>
       <path id="DejaVuSans-52" d="M 2841 2188 
Q 3044 2119 3236 1894 
Q 3428 1669 3622 1275 
L 4263 0 
L 3584 0 
L 2988 1197 
Q 2756 1666 2539 1819 
Q 2322 1972 1947 1972 
L 1259 1972 
L 1259 0 
L 628 0 
L 628 4666 
L 2053 4666 
Q 2853 4666 3247 4331 
Q 3641 3997 3641 3322 
Q 3641 2881 3436 2590 
Q 3231 2300 2841 2188 
z
M 1259 4147 
L 1259 2491 
L 2053 2491 
Q 2509 2491 2742 2702 
Q 2975 2913 2975 3322 
Q 2975 3731 2742 3939 
Q 2509 4147 2053 4147 
L 1259 4147 
z
" transform="scale(0.015625)"/>
       <path id="DejaVuSans-4c" d="M 628 4666 
L 1259 4666 
L 1259 531 
L 3531 531 
L 3531 0 
L 628 0 
L 628 4666 
z
" transform="scale(0.015625)"/>
       <path id="DejaVuSans-55" d="M 556 4666 
L 1191 4666 
L 1191 1831 
Q 1191 1081 1462 751 
Q 1734 422 2344 422 
Q 2950 422 3222 751 
Q 3494 1081 3494 1831 
L 3494 4666 
L 4128 4666 
L 4128 1753 
Q 4128 841 3676 375 
Q 3225 -91 2344 -91 
Q 1459 -91 1007 375 
Q 556 841 556 1753 
L 556 4666 
z
" transform="scale(0.015625)"/>
       <path id="DejaVuSans-2d" d="M 313 2009 
L 1997 2009 
L 1997 1497 
L 313 1497 
L 313 2009 
z
" transform="scale(0.015625)"/>
      </defs>
      <use xlink:href="#DejaVuSans-4d"/>
      <use xlink:href="#DejaVuSans-61" transform="translate(86.279297 0)"/>
      <use xlink:href="#DejaVuSans-67" transform="translate(147.558594 0)"/>
      <use xlink:href="#DejaVuSans-6e" transform="translate(211.035156 0)"/>
      <use xlink:href="#DejaVuSans-69" transform="translate(274.414062 0)"/>
      <use xlink:href="#DejaVuSans-74" transform="translate(302.197266 0)"/>
      <use xlink:href="#DejaVuSans-75" transform="translate(341.40625 0)"/>
      <use xlink:href="#DejaVuSans-64" transform="translate(404.785156 0)"/>
      <use xlink:href="#DejaVuSans-65" transform="translate(468.261719 0)"/>
      <use xlink:href="#DejaVuSans-20" transform="translate(529.785156 0)"/>
      <use xlink:href="#DejaVuSans-28" transform="translate(561.572266 0)"/>
      <use xlink:href="#DejaVuSans-52" transform="translate(600.585938 0)"/>
      <use xlink:href="#DejaVuSans-65" transform="translate(665.568359 0)"/>
      <use xlink:href="#DejaVuSans-4c" transform="translate(727.091797 0)"/>
      <use xlink:href="#DejaVuSans-55" transform="translate(777.804688 0)"/>
      <use xlink:href="#DejaVuSans-28" transform="translate(850.998047 0)"/>
      <use xlink:href="#DejaVuSans-7c" transform="translate(890.011719 0)"/>
      <use xlink:href="#DejaVuSans-78" transform="translate(923.703125 0)"/>
      <use xlink:href="#DejaVuSans-7c" transform="translate(982.882812 0)"/>
      <use xlink:href="#DejaVuSans-2d" transform="translate(1016.574219 0)"/>
      <use xlink:href="#DejaVuSans-3c4" transform="translate(1052.658203 0)"/>
      <use xlink:href="#DejaVuSans-29" transform="translate(1112.863281 0)"/>
      <use xlink:href="#DejaVuSans-29" transform="translate(1151.876953 0)"/>
     </g>
    </g>
   </g>
  </g>
 </g>
 <defs>
  <clipPath id="p2efba9acb2">
   <rect x="61.065625" y="28.396875" width="500.56" height="201.88"/>
  </clipPath>
 </defs>
</svg>
