<?xml version="1.0" encoding="utf-8" standalone="no"?>
<!DOCTYPE svg PUBLIC "-//W3C//DTD SVG 1.1//EN"
  "http://www.w3.org/Graphics/SVG/1.1/DTD/svg11.dtd">
<svg xmlns:xlink="http://www.w3.org/1999/xlink" width="568.825625pt" height="281.3825pt" viewBox="0 0 568.825625 281.3825" xmlns="http://www.w3.org/2000/svg" version="1.1">
 <metadata>
  <rdf:RDF xmlns:dc="http://purl.org/dc/elements/1.1/" xmlns:cc="http://creativecommons.org/ns#" xmlns:rdf="http://www.w3.org/1999/02/22-rdf-syntax-ns#">
   <cc:Work>
    <dc:type rdf:resource="http://purl.org/dc/dcmitype/StillImage"/>
    <dc:date>2025-12-14T19:56:56.639177</dc:date>
    <dc:format>image/svg+xml</dc:format>
    <dc:creator>
     <cc:Agent>
      <dc:title>Matplotlib v3.10.6, https://matplotlib.org/</dc:title>
     </cc:Agent>
    </dc:creator>
   </cc:Work>
  </rdf:RDF>
 </metadata>
 <defs>
  <style type="text/css">*{stroke-linejoin: round; stroke-linecap: butt}</style>
 </defs>
 <g id="figure_1">
  <g id="patch_1">
   <path d="M 0 281.3825 
L 568.825625 281.3825 
L 568.825625 0 
L 0 0 
z
" style="fill: #ffffff"/>
  </g>
  <g id="axes_1">
   <g id="patch_2">
    <path d="M 61.065625 230.276875 
L 561.625625 230.276875 
L 561.625625 28.396875 
L 61.065625 28.396875 
z
" style="fill: #ffffff"/>
   </g>
   <g id="FillBetweenPolyCollection_1">
    <defs>
     <path id="m1704caa959" d="M 83.818352 -72.405669 
L 83.818352 -60.281989 
L 85.60288 -60.281989 
L 87.387408 -60.281989 
L 89.171935 -60.281989 
L 90.956463 -60.281989 
L 92.74099 -60.281989 
L 94.525518 -60.281989 
L 96.310046 -60.281989 
L 98.094573 -60.281989 
L 99.879101 -60.281989 
L 101.663629 -60.281989 
L 103.448156 -60.281989 
L 105.232684 -60.281989 
L 107.017211 -60.281989 
L 108.801739 -60.281989 
L 110.586267 -60.281989 
L 112.370794 -60.281989 
L 114.155322 -60.281989 
L 115.93985 -60.281989 
L 117.724377 -60.281989 
L 119.508905 -60.281989 
L 121.293432 -60.281989 
L 123.07796 -60.281989 
L 124.862488 -60.281989 
L 126.647015 -60.281989 
L 128.431543 -60.281989 
L 130.216071 -60.281989 
L 132.000598 -60.281989 
L 133.785126 -60.281989 
L 135.569654 -60.281989 
L 137.354181 -60.281989 
L 139.138709 -60.281989 
L 140.923236 -60.281989 
L 142.707764 -60.281989 
L 144.492292 -60.281989 
L 146.276819 -60.281989 
L 148.061347 -60.281989 
L 149.845875 -60.281989 
L 151.630402 -60.281989 
L 153.41493 -60.281989 
L 155.199457 -60.281989 
L 156.983985 -60.281989 
L 158.768513 -60.281989 
L 160.55304 -60.281989 
L 162.337568 -60.281989 
L 164.122096 -60.281989 
L 165.906623 -60.281989 
L 167.691151 -60.281989 
L 169.475678 -60.281989 
L 171.260206 -60.281989 
L 173.044734 -60.281989 
L 174.829261 -60.281989 
L 176.613789 -60.281989 
L 178.398317 -60.281989 
L 180.182844 -60.281989 
L 181.967372 -60.281989 
L 183.7519 -60.281989 
L 185.536427 -60.281989 
L 187.320955 -60.281989 
L 189.105482 -60.281989 
L 190.89001 -60.281989 
L 192.674538 -60.281989 
L 194.459065 -60.281989 
L 196.243593 -60.281989 
L 198.028121 -60.281989 
L 199.812648 -60.281989 
L 201.597176 -60.281989 
L 203.381703 -60.281989 
L 205.166231 -60.281989 
L 206.950759 -60.281989 
L 208.735286 -60.281989 
L 210.519814 -60.281989 
L 212.304342 -60.281989 
L 214.088869 -60.281989 
L 215.873397 -60.281989 
L 217.657924 -60.281989 
L 219.442452 -60.281989 
L 221.22698 -60.281989 
L 223.011507 -60.281989 
L 224.796035 -60.281989 
L 226.580563 -60.281989 
L 228.36509 -60.281989 
L 230.149618 -60.281989 
L 231.934145 -60.281989 
L 233.718673 -60.281989 
L 235.503201 -60.281989 
L 237.287728 -60.281989 
L 239.072256 -60.281989 
L 240.856784 -60.281989 
L 242.641311 -60.281989 
L 244.425839 -60.281989 
L 246.210367 -60.281989 
L 247.994894 -60.281989 
L 249.779422 -60.281989 
L 251.563949 -60.281989 
L 253.348477 -60.281989 
L 255.133005 -60.281989 
L 256.917532 -60.281989 
L 258.70206 -60.281989 
L 260.486588 -60.281989 
L 262.271115 -60.281989 
L 264.055643 -60.281989 
L 265.84017 -60.281989 
L 267.624698 -60.281989 
L 269.409226 -60.281989 
L 271.193753 -60.281989 
L 272.978281 -60.281989 
L 274.762809 -60.281989 
L 276.547336 -60.281989 
L 278.331864 -60.281989 
L 280.116391 -60.281989 
L 281.900919 -60.281989 
L 283.685447 -60.281989 
L 285.469974 -60.281989 
L 287.254502 -60.281989 
L 289.03903 -60.281989 
L 290.823557 -60.281989 
L 292.608085 -60.281989 
L 294.392613 -60.281989 
L 296.17714 -60.281989 
L 297.961668 -60.281989 
L 299.746195 -60.281989 
L 301.530723 -60.281989 
L 303.315251 -60.281989 
L 305.099778 -60.281989 
L 306.884306 -60.281989 
L 308.668834 -60.281989 
L 310.453361 -60.281989 
L 312.237889 -60.281989 
L 314.022416 -60.281989 
L 315.806944 -60.281989 
L 317.591472 -60.281989 
L 319.375999 -60.281989 
L 321.160527 -60.281989 
L 322.945055 -60.281989 
L 324.729582 -60.281989 
L 326.51411 -60.281989 
L 328.298637 -60.281989 
L 330.083165 -60.281989 
L 331.867693 -60.281989 
L 333.65222 -60.281989 
L 335.436748 -60.281989 
L 337.221276 -60.281989 
L 339.005803 -60.281989 
L 340.790331 -60.281989 
L 342.574859 -60.281989 
L 344.359386 -60.281989 
L 346.143914 -60.281989 
L 347.928441 -60.281989 
L 349.712969 -60.281989 
L 351.497497 -60.281989 
L 353.282024 -60.281989 
L 355.066552 -60.281989 
L 356.85108 -60.281989 
L 358.635607 -60.281989 
L 360.420135 -60.281989 
L 362.204662 -60.281989 
L 363.98919 -60.281989 
L 365.773718 -60.281989 
L 367.558245 -60.281989 
L 369.342773 -60.281989 
L 371.127301 -60.281989 
L 372.911828 -60.281989 
L 374.696356 -60.281989 
L 376.480883 -60.281989 
L 378.265411 -60.281989 
L 380.049939 -60.281989 
L 381.834466 -60.281989 
L 383.618994 -60.281989 
L 385.403522 -60.281989 
L 387.188049 -60.281989 
L 388.972577 -60.281989 
L 390.757105 -60.281989 
L 392.541632 -60.281989 
L 394.32616 -60.281989 
L 396.110687 -60.281989 
L 397.895215 -60.281989 
L 399.679743 -60.281989 
L 401.46427 -60.281989 
L 403.248798 -60.281989 
L 405.033326 -60.281989 
L 406.817853 -60.281989 
L 408.602381 -60.281989 
L 410.386908 -60.281989 
L 412.171436 -60.281989 
L 413.955964 -60.281989 
L 415.740491 -60.281989 
L 417.525019 -60.281989 
L 419.309547 -60.281989 
L 421.094074 -60.281989 
L 422.878602 -60.281989 
L 424.663129 -60.281989 
L 426.447657 -60.281989 
L 428.232185 -60.281989 
L 430.016712 -60.281989 
L 431.80124 -60.281989 
L 433.585768 -60.281989 
L 435.370295 -60.281989 
L 437.154823 -60.281989 
L 438.93935 -60.281989 
L 440.723878 -60.281989 
L 442.508406 -60.281989 
L 444.292933 -60.281989 
L 446.077461 -60.281989 
L 447.861989 -60.281989 
L 449.646516 -60.281989 
L 451.431044 -60.281989 
L 453.215572 -60.281989 
L 455.000099 -60.281989 
L 456.784627 -60.281989 
L 458.569154 -60.281989 
L 460.353682 -60.281989 
L 462.13821 -60.281989 
L 463.922737 -60.281989 
L 465.707265 -60.281989 
L 467.491793 -60.281989 
L 469.27632 -60.281989 
L 471.060848 -60.281989 
L 472.845375 -60.281989 
L 474.629903 -60.281989 
L 476.414431 -60.281989 
L 478.198958 -60.281989 
L 479.983486 -60.281989 
L 481.768014 -60.281989 
L 483.552541 -60.281989 
L 485.337069 -60.281989 
L 487.121596 -60.281989 
L 488.906124 -60.281989 
L 490.690652 -60.281989 
L 492.475179 -60.281989 
L 494.259707 -60.281989 
L 496.044235 -60.281989 
L 497.828762 -60.281989 
L 499.61329 -60.281989 
L 501.397818 -60.281989 
L 503.182345 -60.281989 
L 504.966873 -60.281989 
L 506.7514 -60.281989 
L 508.535928 -60.281989 
L 510.320456 -60.281989 
L 512.104983 -60.281989 
L 513.889511 -60.281989 
L 515.674039 -60.281989 
L 517.458566 -60.281989 
L 519.243094 -60.281989 
L 521.027621 -60.281989 
L 522.812149 -60.281989 
L 524.596677 -60.281989 
L 526.381204 -60.281989 
L 528.165732 -60.281989 
L 529.95026 -60.281989 
L 531.734787 -60.281989 
L 533.519315 -60.281989 
L 535.303842 -60.281989 
L 537.08837 -60.281989 
L 538.872898 -60.281989 
L 538.872898 -72.405669 
L 538.872898 -72.405669 
L 537.08837 -72.405669 
L 535.303842 -72.405669 
L 533.519315 -72.405669 
L 531.734787 -72.405669 
L 529.95026 -72.405669 
L 528.165732 -72.405669 
L 526.381204 -72.405669 
L 524.596677 -72.405669 
L 522.812149 -72.405669 
L 521.027621 -72.405669 
L 519.243094 -72.405669 
L 517.458566 -72.405669 
L 515.674039 -72.405669 
L 513.889511 -72.405669 
L 512.104983 -72.405669 
L 510.320456 -72.405669 
L 508.535928 -72.405669 
L 506.7514 -72.405669 
L 504.966873 -72.405669 
L 503.182345 -72.405669 
L 501.397818 -72.405669 
L 499.61329 -72.405669 
L 497.828762 -72.405669 
L 496.044235 -72.405669 
L 494.259707 -72.405669 
L 492.475179 -72.405669 
L 490.690652 -72.405669 
L 488.906124 -72.405669 
L 487.121596 -72.405669 
L 485.337069 -72.405669 
L 483.552541 -72.405669 
L 481.768014 -72.405669 
L 479.983486 -72.405669 
L 478.198958 -72.405669 
L 476.414431 -72.405669 
L 474.629903 -72.405669 
L 472.845375 -72.405669 
L 471.060848 -72.405669 
L 469.27632 -72.405669 
L 467.491793 -72.405669 
L 465.707265 -72.405669 
L 463.922737 -72.405669 
L 462.13821 -72.405669 
L 460.353682 -72.405669 
L 458.569154 -72.405669 
L 456.784627 -72.405669 
L 455.000099 -72.405669 
L 453.215572 -72.405669 
L 451.431044 -72.405669 
L 449.646516 -72.405669 
L 447.861989 -72.405669 
L 446.077461 -72.405669 
L 444.292933 -72.405669 
L 442.508406 -72.405669 
L 440.723878 -72.405669 
L 438.93935 -72.405669 
L 437.154823 -72.405669 
L 435.370295 -72.405669 
L 433.585768 -72.405669 
L 431.80124 -72.405669 
L 430.016712 -72.405669 
L 428.232185 -72.405669 
L 426.447657 -72.405669 
L 424.663129 -72.405669 
L 422.878602 -72.405669 
L 421.094074 -72.405669 
L 419.309547 -72.405669 
L 417.525019 -72.405669 
L 415.740491 -72.405669 
L 413.955964 -72.405669 
L 412.171436 -72.405669 
L 410.386908 -72.405669 
L 408.602381 -72.405669 
L 406.817853 -72.405669 
L 405.033326 -72.405669 
L 403.248798 -72.405669 
L 401.46427 -72.405669 
L 399.679743 -72.405669 
L 397.895215 -72.405669 
L 396.110687 -72.405669 
L 394.32616 -72.405669 
L 392.541632 -72.405669 
L 390.757105 -72.405669 
L 388.972577 -72.405669 
L 387.188049 -72.405669 
L 385.403522 -72.405669 
L 383.618994 -72.405669 
L 381.834466 -72.405669 
L 380.049939 -72.405669 
L 378.265411 -72.405669 
L 376.480883 -72.405669 
L 374.696356 -72.405669 
L 372.911828 -72.405669 
L 371.127301 -72.405669 
L 369.342773 -72.405669 
L 367.558245 -72.405669 
L 365.773718 -72.405669 
L 363.98919 -72.405669 
L 362.204662 -72.405669 
L 360.420135 -72.405669 
L 358.635607 -72.405669 
L 356.85108 -72.405669 
L 355.066552 -72.405669 
L 353.282024 -72.405669 
L 351.497497 -72.405669 
L 349.712969 -72.405669 
L 347.928441 -72.405669 
L 346.143914 -72.405669 
L 344.359386 -72.405669 
L 342.574859 -72.405669 
L 340.790331 -72.405669 
L 339.005803 -72.405669 
L 337.221276 -72.405669 
L 335.436748 -72.405669 
L 333.65222 -72.405669 
L 331.867693 -72.405669 
L 330.083165 -72.405669 
L 328.298637 -72.405669 
L 326.51411 -72.405669 
L 324.729582 -72.405669 
L 322.945055 -72.405669 
L 321.160527 -72.405669 
L 319.375999 -72.405669 
L 317.591472 -72.405669 
L 315.806944 -72.405669 
L 314.022416 -72.405669 
L 312.237889 -72.405669 
L 310.453361 -72.405669 
L 308.668834 -72.405669 
L 306.884306 -72.405669 
L 305.099778 -72.405669 
L 303.315251 -72.405669 
L 301.530723 -72.405669 
L 299.746195 -72.405669 
L 297.961668 -72.405669 
L 296.17714 -72.405669 
L 294.392613 -72.405669 
L 292.608085 -72.405669 
L 290.823557 -72.405669 
L 289.03903 -72.405669 
L 287.254502 -72.405669 
L 285.469974 -72.405669 
L 283.685447 -72.405669 
L 281.900919 -72.405669 
L 280.116391 -72.405669 
L 278.331864 -72.405669 
L 276.547336 -72.405669 
L 274.762809 -72.405669 
L 272.978281 -72.405669 
L 271.193753 -72.405669 
L 269.409226 -72.405669 
L 267.624698 -72.405669 
L 265.84017 -72.405669 
L 264.055643 -72.405669 
L 262.271115 -72.405669 
L 260.486588 -72.405669 
L 258.70206 -72.405669 
L 256.917532 -72.405669 
L 255.133005 -72.405669 
L 253.348477 -72.405669 
L 251.563949 -72.405669 
L 249.779422 -72.405669 
L 247.994894 -72.405669 
L 246.210367 -72.405669 
L 244.425839 -72.405669 
L 242.641311 -72.405669 
L 240.856784 -72.405669 
L 239.072256 -72.405669 
L 237.287728 -72.405669 
L 235.503201 -72.405669 
L 233.718673 -72.405669 
L 231.934145 -72.405669 
L 230.149618 -72.405669 
L 228.36509 -72.405669 
L 226.580563 -72.405669 
L 224.796035 -72.405669 
L 223.011507 -72.405669 
L 221.22698 -72.405669 
L 219.442452 -72.405669 
L 217.657924 -72.405669 
L 215.873397 -72.405669 
L 214.088869 -72.405669 
L 212.304342 -72.405669 
L 210.519814 -72.405669 
L 208.735286 -72.405669 
L 206.950759 -72.405669 
L 205.166231 -72.405669 
L 203.381703 -72.405669 
L 201.597176 -72.405669 
L 199.812648 -72.405669 
L 198.028121 -72.405669 
L 196.243593 -72.405669 
L 194.459065 -72.405669 
L 192.674538 -72.405669 
L 190.89001 -72.405669 
L 189.105482 -72.405669 
L 187.320955 -72.405669 
L 185.536427 -72.405669 
L 183.7519 -72.405669 
L 181.967372 -72.405669 
L 180.182844 -72.405669 
L 178.398317 -72.405669 
L 176.613789 -72.405669 
L 174.829261 -72.405669 
L 173.044734 -72.405669 
L 171.260206 -72.405669 
L 169.475678 -72.405669 
L 167.691151 -72.405669 
L 165.906623 -72.405669 
L 164.122096 -72.405669 
L 162.337568 -72.405669 
L 160.55304 -72.405669 
L 158.768513 -72.405669 
L 156.983985 -72.405669 
L 155.199457 -72.405669 
L 153.41493 -72.405669 
L 151.630402 -72.405669 
L 149.845875 -72.405669 
L 148.061347 -72.405669 
L 146.276819 -72.405669 
L 144.492292 -72.405669 
L 142.707764 -72.405669 
L 140.923236 -72.405669 
L 139.138709 -72.405669 
L 137.354181 -72.405669 
L 135.569654 -72.405669 
L 133.785126 -72.405669 
L 132.000598 -72.405669 
L 130.216071 -72.405669 
L 128.431543 -72.405669 
L 126.647015 -72.405669 
L 124.862488 -72.405669 
L 123.07796 -72.405669 
L 121.293432 -72.405669 
L 119.508905 -72.405669 
L 117.724377 -72.405669 
L 115.93985 -72.405669 
L 114.155322 -72.405669 
L 112.370794 -72.405669 
L 110.586267 -72.405669 
L 108.801739 -72.405669 
L 107.017211 -72.405669 
L 105.232684 -72.405669 
L 103.448156 -72.405669 
L 101.663629 -72.405669 
L 99.879101 -72.405669 
L 98.094573 -72.405669 
L 96.310046 -72.405669 
L 94.525518 -72.405669 
L 92.74099 -72.405669 
L 90.956463 -72.405669 
L 89.171935 -72.405669 
L 87.387408 -72.405669 
L 85.60288 -72.405669 
L 83.818352 -72.405669 
z
" style="stroke: #ff0000; stroke-opacity: 0.1"/>
    </defs>
    <g clip-path="url(#p9811db4dd6)">
     <use xlink:href="#m1704caa959" x="0" y="281.3825" style="fill: #ff0000; fill-opacity: 0.1; stroke: #ff0000; stroke-opacity: 0.1"/>
    </g>
   </g>
   <g id="matplotlib.axis_1">
    <g id="xtick_1">
     <g id="line2d_1">
      <path d="M 83.818352 230.276875 
L 83.818352 28.396875 
" clip-path="url(#p9811db4dd6)" style="fill: none; stroke-dasharray: 0.8,1.32; stroke-dashoffset: 0; stroke: #b0b0b0; stroke-opacity: 0.6; stroke-width: 0.8"/>
     </g>
     <g id="line2d_2">
      <defs>
       <path id="me0e2eeba05" d="M 0 0 
L 0 3.5 
" style="stroke: #000000; stroke-width: 0.8"/>
      </defs>
      <g>
       <use xlink:href="#me0e2eeba05" x="83.818352" y="230.276875" style="stroke: #000000; stroke-width: 0.8"/>
      </g>
     </g>
     <g id="text_1">
      <!-- 0 -->
      <g transform="translate(78.728352 249.434375) scale(0.16 -0.16)">
       <defs>
        <path id="DejaVuSans-30" d="M 2034 4250 
Q 1547 4250 1301 3770 
Q 1056 3291 1056 2328 
Q 1056 1369 1301 889 
Q 1547 409 2034 409 
Q 2525 409 2770 889 
Q 3016 1369 3016 2328 
Q 3016 3291 2770 3770 
Q 2525 4250 2034 4250 
z
M 2034 4750 
Q 2819 4750 3233 4129 
Q 3647 3509 3647 2328 
Q 3647 1150 3233 529 
Q 2819 -91 2034 -91 
Q 1250 -91 836 529 
Q 422 1150 422 2328 
Q 422 3509 836 4129 
Q 1250 4750 2034 4750 
z
" transform="scale(0.015625)"/>
       </defs>
       <use xlink:href="#DejaVuSans-30"/>
      </g>
     </g>
    </g>
    <g id="xtick_2">
     <g id="line2d_3">
      <path d="M 173.044734 230.276875 
L 173.044734 28.396875 
" clip-path="url(#p9811db4dd6)" style="fill: none; stroke-dasharray: 0.8,1.32; stroke-dashoffset: 0; stroke: #b0b0b0; stroke-opacity: 0.6; stroke-width: 0.8"/>
     </g>
     <g id="line2d_4">
      <g>
       <use xlink:href="#me0e2eeba05" x="173.044734" y="230.276875" style="stroke: #000000; stroke-width: 0.8"/>
      </g>
     </g>
     <g id="text_2">
      <!-- 50 -->
      <g transform="translate(162.864734 249.434375) scale(0.16 -0.16)">
       <defs>
        <path id="DejaVuSans-35" d="M 691 4666 
L 3169 4666 
L 3169 4134 
L 1269 4134 
L 1269 2991 
Q 1406 3038 1543 3061 
Q 1681 3084 1819 3084 
Q 2600 3084 3056 2656 
Q 3513 2228 3513 1497 
Q 3513 744 3044 326 
Q 2575 -91 1722 -91 
Q 1428 -91 1123 -41 
Q 819 9 494 109 
L 494 744 
Q 775 591 1075 516 
Q 1375 441 1709 441 
Q 2250 441 2565 725 
Q 2881 1009 2881 1497 
Q 2881 1984 2565 2268 
Q 2250 2553 1709 2553 
Q 1456 2553 1204 2497 
Q 953 2441 691 2322 
L 691 4666 
z
" transform="scale(0.015625)"/>
       </defs>
       <use xlink:href="#DejaVuSans-35"/>
       <use xlink:href="#DejaVuSans-30" transform="translate(63.623047 0)"/>
      </g>
     </g>
    </g>
    <g id="xtick_3">
     <g id="line2d_5">
      <path d="M 262.271115 230.276875 
L 262.271115 28.396875 
" clip-path="url(#p9811db4dd6)" style="fill: none; stroke-dasharray: 0.8,1.32; stroke-dashoffset: 0; stroke: #b0b0b0; stroke-opacity: 0.6; stroke-width: 0.8"/>
     </g>
     <g id="line2d_6">
      <g>
       <use xlink:href="#me0e2eeba05" x="262.271115" y="230.276875" style="stroke: #000000; stroke-width: 0.8"/>
      </g>
     </g>
     <g id="text_3">
      <!-- 100 -->
      <g transform="translate(247.001115 249.434375) scale(0.16 -0.16)">
       <defs>
        <path id="DejaVuSans-31" d="M 794 531 
L 1825 531 
L 1825 4091 
L 703 3866 
L 703 4441 
L 1819 4666 
L 2450 4666 
L 2450 531 
L 3481 531 
L 3481 0 
L 794 0 
L 794 531 
z
" transform="scale(0.015625)"/>
       </defs>
       <use xlink:href="#DejaVuSans-31"/>
       <use xlink:href="#DejaVuSans-30" transform="translate(63.623047 0)"/>
       <use xlink:href="#DejaVuSans-30" transform="translate(127.246094 0)"/>
      </g>
     </g>
    </g>
    <g id="xtick_4">
     <g id="line2d_7">
      <path d="M 351.497497 230.276875 
L 351.497497 28.396875 
" clip-path="url(#p9811db4dd6)" style="fill: none; stroke-dasharray: 0.8,1.32; stroke-dashoffset: 0; stroke: #b0b0b0; stroke-opacity: 0.6; stroke-width: 0.8"/>
     </g>
     <g id="line2d_8">
      <g>
       <use xlink:href="#me0e2eeba05" x="351.497497" y="230.276875" style="stroke: #000000; stroke-width: 0.8"/>
      </g>
     </g>
     <g id="text_4">
      <!-- 150 -->
      <g transform="translate(336.227497 249.434375) scale(0.16 -0.16)">
       <use xlink:href="#DejaVuSans-31"/>
       <use xlink:href="#DejaVuSans-35" transform="translate(63.623047 0)"/>
       <use xlink:href="#DejaVuSans-30" transform="translate(127.246094 0)"/>
      </g>
     </g>
    </g>
    <g id="xtick_5">
     <g id="line2d_9">
      <path d="M 440.723878 230.276875 
L 440.723878 28.396875 
" clip-path="url(#p9811db4dd6)" style="fill: none; stroke-dasharray: 0.8,1.32; stroke-dashoffset: 0; stroke: #b0b0b0; stroke-opacity: 0.6; stroke-width: 0.8"/>
     </g>
     <g id="line2d_10">
      <g>
       <use xlink:href="#me0e2eeba05" x="440.723878" y="230.276875" style="stroke: #000000; stroke-width: 0.8"/>
      </g>
     </g>
     <g id="text_5">
      <!-- 200 -->
      <g transform="translate(425.453878 249.434375) scale(0.16 -0.16)">
       <defs>
        <path id="DejaVuSans-32" d="M 1228 531 
L 3431 531 
L 3431 0 
L 469 0 
L 469 531 
Q 828 903 1448 1529 
Q 2069 2156 2228 2338 
Q 2531 2678 2651 2914 
Q 2772 3150 2772 3378 
Q 2772 3750 2511 3984 
Q 2250 4219 1831 4219 
Q 1534 4219 1204 4116 
Q 875 4013 500 3803 
L 500 4441 
Q 881 4594 1212 4672 
Q 1544 4750 1819 4750 
Q 2544 4750 2975 4387 
Q 3406 4025 3406 3419 
Q 3406 3131 3298 2873 
Q 3191 2616 2906 2266 
Q 2828 2175 2409 1742 
Q 1991 1309 1228 531 
z
" transform="scale(0.015625)"/>
       </defs>
       <use xlink:href="#DejaVuSans-32"/>
       <use xlink:href="#DejaVuSans-30" transform="translate(63.623047 0)"/>
       <use xlink:href="#DejaVuSans-30" transform="translate(127.246094 0)"/>
      </g>
     </g>
    </g>
    <g id="xtick_6">
     <g id="line2d_11">
      <path d="M 529.95026 230.276875 
L 529.95026 28.396875 
" clip-path="url(#p9811db4dd6)" style="fill: none; stroke-dasharray: 0.8,1.32; stroke-dashoffset: 0; stroke: #b0b0b0; stroke-opacity: 0.6; stroke-width: 0.8"/>
     </g>
     <g id="line2d_12">
      <g>
       <use xlink:href="#me0e2eeba05" x="529.95026" y="230.276875" style="stroke: #000000; stroke-width: 0.8"/>
      </g>
     </g>
     <g id="text_6">
      <!-- 250 -->
      <g transform="translate(514.68026 249.434375) scale(0.16 -0.16)">
       <use xlink:href="#DejaVuSans-32"/>
       <use xlink:href="#DejaVuSans-35" transform="translate(63.623047 0)"/>
       <use xlink:href="#DejaVuSans-30" transform="translate(127.246094 0)"/>
      </g>
     </g>
    </g>
    <g id="text_7">
     <!-- Time Steps -->
     <g transform="translate(261.283125 270.439062) scale(0.18 -0.18)">
      <defs>
       <path id="DejaVuSans-54" d="M -19 4666 
L 3928 4666 
L 3928 4134 
L 2272 4134 
L 2272 0 
L 1638 0 
L 1638 4134 
L -19 4134 
L -19 4666 
z
" transform="scale(0.015625)"/>
       <path id="DejaVuSans-69" d="M 603 3500 
L 1178 3500 
L 1178 0 
L 603 0 
L 603 3500 
z
M 603 4863 
L 1178 4863 
L 1178 4134 
L 603 4134 
L 603 4863 
z
" transform="scale(0.015625)"/>
       <path id="DejaVuSans-6d" d="M 3328 2828 
Q 3544 3216 3844 3400 
Q 4144 3584 4550 3584 
Q 5097 3584 5394 3201 
Q 5691 2819 5691 2113 
L 5691 0 
L 5113 0 
L 5113 2094 
Q 5113 2597 4934 2840 
Q 4756 3084 4391 3084 
Q 3944 3084 3684 2787 
Q 3425 2491 3425 1978 
L 3425 0 
L 2847 0 
L 2847 2094 
Q 2847 2600 2669 2842 
Q 2491 3084 2119 3084 
Q 1678 3084 1418 2786 
Q 1159 2488 1159 1978 
L 1159 0 
L 581 0 
L 581 3500 
L 1159 3500 
L 1159 2956 
Q 1356 3278 1631 3431 
Q 1906 3584 2284 3584 
Q 2666 3584 2933 3390 
Q 3200 3197 3328 2828 
z
" transform="scale(0.015625)"/>
       <path id="DejaVuSans-65" d="M 3597 1894 
L 3597 1613 
L 953 1613 
Q 991 1019 1311 708 
Q 1631 397 2203 397 
Q 2534 397 2845 478 
Q 3156 559 3463 722 
L 3463 178 
Q 3153 47 2828 -22 
Q 2503 -91 2169 -91 
Q 1331 -91 842 396 
Q 353 884 353 1716 
Q 353 2575 817 3079 
Q 1281 3584 2069 3584 
Q 2775 3584 3186 3129 
Q 3597 2675 3597 1894 
z
M 3022 2063 
Q 3016 2534 2758 2815 
Q 2500 3097 2075 3097 
Q 1594 3097 1305 2825 
Q 1016 2553 972 2059 
L 3022 2063 
z
" transform="scale(0.015625)"/>
       <path id="DejaVuSans-20" transform="scale(0.015625)"/>
       <path id="DejaVuSans-53" d="M 3425 4513 
L 3425 3897 
Q 3066 4069 2747 4153 
Q 2428 4238 2131 4238 
Q 1616 4238 1336 4038 
Q 1056 3838 1056 3469 
Q 1056 3159 1242 3001 
Q 1428 2844 1947 2747 
L 2328 2669 
Q 3034 2534 3370 2195 
Q 3706 1856 3706 1288 
Q 3706 609 3251 259 
Q 2797 -91 1919 -91 
Q 1588 -91 1214 -16 
Q 841 59 441 206 
L 441 856 
Q 825 641 1194 531 
Q 1563 422 1919 422 
Q 2459 422 2753 634 
Q 3047 847 3047 1241 
Q 3047 1584 2836 1778 
Q 2625 1972 2144 2069 
L 1759 2144 
Q 1053 2284 737 2584 
Q 422 2884 422 3419 
Q 422 4038 858 4394 
Q 1294 4750 2059 4750 
Q 2388 4750 2728 4690 
Q 3069 4631 3425 4513 
z
" transform="scale(0.015625)"/>
       <path id="DejaVuSans-74" d="M 1172 4494 
L 1172 3500 
L 2356 3500 
L 2356 3053 
L 1172 3053 
L 1172 1153 
Q 1172 725 1289 603 
Q 1406 481 1766 481 
L 2356 481 
L 2356 0 
L 1766 0 
Q 1100 0 847 248 
Q 594 497 594 1153 
L 594 3053 
L 172 3053 
L 172 3500 
L 594 3500 
L 594 4494 
L 1172 4494 
z
" transform="scale(0.015625)"/>
       <path id="DejaVuSans-70" d="M 1159 525 
L 1159 -1331 
L 581 -1331 
L 581 3500 
L 1159 3500 
L 1159 2969 
Q 1341 3281 1617 3432 
Q 1894 3584 2278 3584 
Q 2916 3584 3314 3078 
Q 3713 2572 3713 1747 
Q 3713 922 3314 415 
Q 2916 -91 2278 -91 
Q 1894 -91 1617 61 
Q 1341 213 1159 525 
z
M 3116 1747 
Q 3116 2381 2855 2742 
Q 2594 3103 2138 3103 
Q 1681 3103 1420 2742 
Q 1159 2381 1159 1747 
Q 1159 1113 1420 752 
Q 1681 391 2138 391 
Q 2594 391 2855 752 
Q 3116 1113 3116 1747 
z
" transform="scale(0.015625)"/>
       <path id="DejaVuSans-73" d="M 2834 3397 
L 2834 2853 
Q 2591 2978 2328 3040 
Q 2066 3103 1784 3103 
Q 1356 3103 1142 2972 
Q 928 2841 928 2578 
Q 928 2378 1081 2264 
Q 1234 2150 1697 2047 
L 1894 2003 
Q 2506 1872 2764 1633 
Q 3022 1394 3022 966 
Q 3022 478 2636 193 
Q 2250 -91 1575 -91 
Q 1294 -91 989 -36 
Q 684 19 347 128 
L 347 722 
Q 666 556 975 473 
Q 1284 391 1588 391 
Q 1994 391 2212 530 
Q 2431 669 2431 922 
Q 2431 1156 2273 1281 
Q 2116 1406 1581 1522 
L 1381 1569 
Q 847 1681 609 1914 
Q 372 2147 372 2553 
Q 372 3047 722 3315 
Q 1072 3584 1716 3584 
Q 2034 3584 2315 3537 
Q 2597 3491 2834 3397 
z
" transform="scale(0.015625)"/>
      </defs>
      <use xlink:href="#DejaVuSans-54"/>
      <use xlink:href="#DejaVuSans-69" transform="translate(57.958984 0)"/>
      <use xlink:href="#DejaVuSans-6d" transform="translate(85.742188 0)"/>
      <use xlink:href="#DejaVuSans-65" transform="translate(183.154297 0)"/>
      <use xlink:href="#DejaVuSans-20" transform="translate(244.677734 0)"/>
      <use xlink:href="#DejaVuSans-53" transform="translate(276.464844 0)"/>
      <use xlink:href="#DejaVuSans-74" transform="translate(339.941406 0)"/>
      <use xlink:href="#DejaVuSans-65" transform="translate(379.150391 0)"/>
      <use xlink:href="#DejaVuSans-70" transform="translate(440.673828 0)"/>
      <use xlink:href="#DejaVuSans-73" transform="translate(504.150391 0)"/>
     </g>
    </g>
   </g>
   <g id="matplotlib.axis_2">
    <g id="ytick_1">
     <g id="line2d_13">
      <path d="M 61.065625 221.100511 
L 561.625625 221.100511 
" clip-path="url(#p9811db4dd6)" style="fill: none; stroke-dasharray: 0.8,1.32; stroke-dashoffset: 0; stroke: #b0b0b0; stroke-opacity: 0.6; stroke-width: 0.8"/>
     </g>
     <g id="line2d_14">
      <defs>
       <path id="m08518e812b" d="M 0 0 
L -3.5 0 
" style="stroke: #000000; stroke-width: 0.8"/>
      </defs>
      <g>
       <use xlink:href="#m08518e812b" x="61.065625" y="221.100511" style="stroke: #000000; stroke-width: 0.8"/>
      </g>
     </g>
     <g id="text_8">
      <!-- 0.0 -->
      <g transform="translate(28.620625 227.179261) scale(0.16 -0.16)">
       <defs>
        <path id="DejaVuSans-2e" d="M 684 794 
L 1344 794 
L 1344 0 
L 684 0 
L 684 794 
z
" transform="scale(0.015625)"/>
       </defs>
       <use xlink:href="#DejaVuSans-30"/>
       <use xlink:href="#DejaVuSans-2e" transform="translate(63.623047 0)"/>
       <use xlink:href="#DejaVuSans-30" transform="translate(95.410156 0)"/>
      </g>
     </g>
    </g>
    <g id="ytick_2">
     <g id="line2d_15">
      <path d="M 61.065625 175.98006 
L 561.625625 175.98006 
" clip-path="url(#p9811db4dd6)" style="fill: none; stroke-dasharray: 0.8,1.32; stroke-dashoffset: 0; stroke: #b0b0b0; stroke-opacity: 0.6; stroke-width: 0.8"/>
     </g>
     <g id="line2d_16">
      <g>
       <use xlink:href="#m08518e812b" x="61.065625" y="175.98006" style="stroke: #000000; stroke-width: 0.8"/>
      </g>
     </g>
     <g id="text_9">
      <!-- 0.2 -->
      <g transform="translate(28.620625 182.05881) scale(0.16 -0.16)">
       <use xlink:href="#DejaVuSans-30"/>
       <use xlink:href="#DejaVuSans-2e" transform="translate(63.623047 0)"/>
       <use xlink:href="#DejaVuSans-32" transform="translate(95.410156 0)"/>
      </g>
     </g>
    </g>
    <g id="ytick_3">
     <g id="line2d_17">
      <path d="M 61.065625 130.859608 
L 561.625625 130.859608 
" clip-path="url(#p9811db4dd6)" style="fill: none; stroke-dasharray: 0.8,1.32; stroke-dashoffset: 0; stroke: #b0b0b0; stroke-opacity: 0.6; stroke-width: 0.8"/>
     </g>
     <g id="line2d_18">
      <g>
       <use xlink:href="#m08518e812b" x="61.065625" y="130.859608" style="stroke: #000000; stroke-width: 0.8"/>
      </g>
     </g>
     <g id="text_10">
      <!-- 0.4 -->
      <g transform="translate(28.620625 136.938358) scale(0.16 -0.16)">
       <defs>
        <path id="DejaVuSans-34" d="M 2419 4116 
L 825 1625 
L 2419 1625 
L 2419 4116 
z
M 2253 4666 
L 3047 4666 
L 3047 1625 
L 3713 1625 
L 3713 1100 
L 3047 1100 
L 3047 0 
L 2419 0 
L 2419 1100 
L 313 1100 
L 313 1709 
L 2253 4666 
z
" transform="scale(0.015625)"/>
       </defs>
       <use xlink:href="#DejaVuSans-30"/>
       <use xlink:href="#DejaVuSans-2e" transform="translate(63.623047 0)"/>
       <use xlink:href="#DejaVuSans-34" transform="translate(95.410156 0)"/>
      </g>
     </g>
    </g>
    <g id="ytick_4">
     <g id="line2d_19">
      <path d="M 61.065625 85.739156 
L 561.625625 85.739156 
" clip-path="url(#p9811db4dd6)" style="fill: none; stroke-dasharray: 0.8,1.32; stroke-dashoffset: 0; stroke: #b0b0b0; stroke-opacity: 0.6; stroke-width: 0.8"/>
     </g>
     <g id="line2d_20">
      <g>
       <use xlink:href="#m08518e812b" x="61.065625" y="85.739156" style="stroke: #000000; stroke-width: 0.8"/>
      </g>
     </g>
     <g id="text_11">
      <!-- 0.6 -->
      <g transform="translate(28.620625 91.817906) scale(0.16 -0.16)">
       <defs>
        <path id="DejaVuSans-36" d="M 2113 2584 
Q 1688 2584 1439 2293 
Q 1191 2003 1191 1497 
Q 1191 994 1439 701 
Q 1688 409 2113 409 
Q 2538 409 2786 701 
Q 3034 994 3034 1497 
Q 3034 2003 2786 2293 
Q 2538 2584 2113 2584 
z
M 3366 4563 
L 3366 3988 
Q 3128 4100 2886 4159 
Q 2644 4219 2406 4219 
Q 1781 4219 1451 3797 
Q 1122 3375 1075 2522 
Q 1259 2794 1537 2939 
Q 1816 3084 2150 3084 
Q 2853 3084 3261 2657 
Q 3669 2231 3669 1497 
Q 3669 778 3244 343 
Q 2819 -91 2113 -91 
Q 1303 -91 875 529 
Q 447 1150 447 2328 
Q 447 3434 972 4092 
Q 1497 4750 2381 4750 
Q 2619 4750 2861 4703 
Q 3103 4656 3366 4563 
z
" transform="scale(0.015625)"/>
       </defs>
       <use xlink:href="#DejaVuSans-30"/>
       <use xlink:href="#DejaVuSans-2e" transform="translate(63.623047 0)"/>
       <use xlink:href="#DejaVuSans-36" transform="translate(95.410156 0)"/>
      </g>
     </g>
    </g>
    <g id="ytick_5">
     <g id="line2d_21">
      <path d="M 61.065625 40.618705 
L 561.625625 40.618705 
" clip-path="url(#p9811db4dd6)" style="fill: none; stroke-dasharray: 0.8,1.32; stroke-dashoffset: 0; stroke: #b0b0b0; stroke-opacity: 0.6; stroke-width: 0.8"/>
     </g>
     <g id="line2d_22">
      <g>
       <use xlink:href="#m08518e812b" x="61.065625" y="40.618705" style="stroke: #000000; stroke-width: 0.8"/>
      </g>
     </g>
     <g id="text_12">
      <!-- 0.8 -->
      <g transform="translate(28.620625 46.697455) scale(0.16 -0.16)">
       <defs>
        <path id="DejaVuSans-38" d="M 2034 2216 
Q 1584 2216 1326 1975 
Q 1069 1734 1069 1313 
Q 1069 891 1326 650 
Q 1584 409 2034 409 
Q 2484 409 2743 651 
Q 3003 894 3003 1313 
Q 3003 1734 2745 1975 
Q 2488 2216 2034 2216 
z
M 1403 2484 
Q 997 2584 770 2862 
Q 544 3141 544 3541 
Q 544 4100 942 4425 
Q 1341 4750 2034 4750 
Q 2731 4750 3128 4425 
Q 3525 4100 3525 3541 
Q 3525 3141 3298 2862 
Q 3072 2584 2669 2484 
Q 3125 2378 3379 2068 
Q 3634 1759 3634 1313 
Q 3634 634 3220 271 
Q 2806 -91 2034 -91 
Q 1263 -91 848 271 
Q 434 634 434 1313 
Q 434 1759 690 2068 
Q 947 2378 1403 2484 
z
M 1172 3481 
Q 1172 3119 1398 2916 
Q 1625 2713 2034 2713 
Q 2441 2713 2670 2916 
Q 2900 3119 2900 3481 
Q 2900 3844 2670 4047 
Q 2441 4250 2034 4250 
Q 1625 4250 1398 4047 
Q 1172 3844 1172 3481 
z
" transform="scale(0.015625)"/>
       </defs>
       <use xlink:href="#DejaVuSans-30"/>
       <use xlink:href="#DejaVuSans-2e" transform="translate(63.623047 0)"/>
       <use xlink:href="#DejaVuSans-38" transform="translate(95.410156 0)"/>
      </g>
     </g>
    </g>
    <g id="text_13">
     <!-- Feature Magnitude -->
     <g transform="translate(20.877188 213.880625) rotate(-90) scale(0.18 -0.18)">
      <defs>
       <path id="DejaVuSans-46" d="M 628 4666 
L 3309 4666 
L 3309 4134 
L 1259 4134 
L 1259 2759 
L 3109 2759 
L 3109 2228 
L 1259 2228 
L 1259 0 
L 628 0 
L 628 4666 
z
" transform="scale(0.015625)"/>
       <path id="DejaVuSans-61" d="M 2194 1759 
Q 1497 1759 1228 1600 
Q 959 1441 959 1056 
Q 959 750 1161 570 
Q 1363 391 1709 391 
Q 2188 391 2477 730 
Q 2766 1069 2766 1631 
L 2766 1759 
L 2194 1759 
z
M 3341 1997 
L 3341 0 
L 2766 0 
L 2766 531 
Q 2569 213 2275 61 
Q 1981 -91 1556 -91 
Q 1019 -91 701 211 
Q 384 513 384 1019 
Q 384 1609 779 1909 
Q 1175 2209 1959 2209 
L 2766 2209 
L 2766 2266 
Q 2766 2663 2505 2880 
Q 2244 3097 1772 3097 
Q 1472 3097 1187 3025 
Q 903 2953 641 2809 
L 641 3341 
Q 956 3463 1253 3523 
Q 1550 3584 1831 3584 
Q 2591 3584 2966 3190 
Q 3341 2797 3341 1997 
z
" transform="scale(0.015625)"/>
       <path id="DejaVuSans-75" d="M 544 1381 
L 544 3500 
L 1119 3500 
L 1119 1403 
Q 1119 906 1312 657 
Q 1506 409 1894 409 
Q 2359 409 2629 706 
Q 2900 1003 2900 1516 
L 2900 3500 
L 3475 3500 
L 3475 0 
L 2900 0 
L 2900 538 
Q 2691 219 2414 64 
Q 2138 -91 1772 -91 
Q 1169 -91 856 284 
Q 544 659 544 1381 
z
M 1991 3584 
L 1991 3584 
z
" transform="scale(0.015625)"/>
       <path id="DejaVuSans-72" d="M 2631 2963 
Q 2534 3019 2420 3045 
Q 2306 3072 2169 3072 
Q 1681 3072 1420 2755 
Q 1159 2438 1159 1844 
L 1159 0 
L 581 0 
L 581 3500 
L 1159 3500 
L 1159 2956 
Q 1341 3275 1631 3429 
Q 1922 3584 2338 3584 
Q 2397 3584 2469 3576 
Q 2541 3569 2628 3553 
L 2631 2963 
z
" transform="scale(0.015625)"/>
       <path id="DejaVuSans-4d" d="M 628 4666 
L 1569 4666 
L 2759 1491 
L 3956 4666 
L 4897 4666 
L 4897 0 
L 4281 0 
L 4281 4097 
L 3078 897 
L 2444 897 
L 1241 4097 
L 1241 0 
L 628 0 
L 628 4666 
z
" transform="scale(0.015625)"/>
       <path id="DejaVuSans-67" d="M 2906 1791 
Q 2906 2416 2648 2759 
Q 2391 3103 1925 3103 
Q 1463 3103 1205 2759 
Q 947 2416 947 1791 
Q 947 1169 1205 825 
Q 1463 481 1925 481 
Q 2391 481 2648 825 
Q 2906 1169 2906 1791 
z
M 3481 434 
Q 3481 -459 3084 -895 
Q 2688 -1331 1869 -1331 
Q 1566 -1331 1297 -1286 
Q 1028 -1241 775 -1147 
L 775 -588 
Q 1028 -725 1275 -790 
Q 1522 -856 1778 -856 
Q 2344 -856 2625 -561 
Q 2906 -266 2906 331 
L 2906 616 
Q 2728 306 2450 153 
Q 2172 0 1784 0 
Q 1141 0 747 490 
Q 353 981 353 1791 
Q 353 2603 747 3093 
Q 1141 3584 1784 3584 
Q 2172 3584 2450 3431 
Q 2728 3278 2906 2969 
L 2906 3500 
L 3481 3500 
L 3481 434 
z
" transform="scale(0.015625)"/>
       <path id="DejaVuSans-6e" d="M 3513 2113 
L 3513 0 
L 2938 0 
L 2938 2094 
Q 2938 2591 2744 2837 
Q 2550 3084 2163 3084 
Q 1697 3084 1428 2787 
Q 1159 2491 1159 1978 
L 1159 0 
L 581 0 
L 581 3500 
L 1159 3500 
L 1159 2956 
Q 1366 3272 1645 3428 
Q 1925 3584 2291 3584 
Q 2894 3584 3203 3211 
Q 3513 2838 3513 2113 
z
" transform="scale(0.015625)"/>
       <path id="DejaVuSans-64" d="M 2906 2969 
L 2906 4863 
L 3481 4863 
L 3481 0 
L 2906 0 
L 2906 525 
Q 2725 213 2448 61 
Q 2172 -91 1784 -91 
Q 1150 -91 751 415 
Q 353 922 353 1747 
Q 353 2572 751 3078 
Q 1150 3584 1784 3584 
Q 2172 3584 2448 3432 
Q 2725 3281 2906 2969 
z
M 947 1747 
Q 947 1113 1208 752 
Q 1469 391 1925 391 
Q 2381 391 2643 752 
Q 2906 1113 2906 1747 
Q 2906 2381 2643 2742 
Q 2381 3103 1925 3103 
Q 1469 3103 1208 2742 
Q 947 2381 947 1747 
z
" transform="scale(0.015625)"/>
      </defs>
      <use xlink:href="#DejaVuSans-46"/>
      <use xlink:href="#DejaVuSans-65" transform="translate(52.019531 0)"/>
      <use xlink:href="#DejaVuSans-61" transform="translate(113.542969 0)"/>
      <use xlink:href="#DejaVuSans-74" transform="translate(174.822266 0)"/>
      <use xlink:href="#DejaVuSans-75" transform="translate(214.03125 0)"/>
      <use xlink:href="#DejaVuSans-72" transform="translate(277.410156 0)"/>
      <use xlink:href="#DejaVuSans-65" transform="translate(316.273438 0)"/>
      <use xlink:href="#DejaVuSans-20" transform="translate(377.796875 0)"/>
      <use xlink:href="#DejaVuSans-4d" transform="translate(409.583984 0)"/>
      <use xlink:href="#DejaVuSans-61" transform="translate(495.863281 0)"/>
      <use xlink:href="#DejaVuSans-67" transform="translate(557.142578 0)"/>
      <use xlink:href="#DejaVuSans-6e" transform="translate(620.619141 0)"/>
      <use xlink:href="#DejaVuSans-69" transform="translate(683.998047 0)"/>
      <use xlink:href="#DejaVuSans-74" transform="translate(711.78125 0)"/>
      <use xlink:href="#DejaVuSans-75" transform="translate(750.990234 0)"/>
      <use xlink:href="#DejaVuSans-64" transform="translate(814.369141 0)"/>
      <use xlink:href="#DejaVuSans-65" transform="translate(877.845703 0)"/>
     </g>
    </g>
   </g>
   <g id="line2d_23">
    <path d="M 83.818352 163.532719 
L 85.60288 136.808191 
L 87.387408 156.034878 
L 89.171935 111.987926 
L 90.956463 129.307265 
L 92.74099 134.661104 
L 94.525518 131.145186 
L 96.310046 161.893839 
L 98.094573 181.760385 
L 99.879101 191.080838 
L 101.663629 198.495863 
L 103.448156 187.761537 
L 105.232684 152.751767 
L 107.017211 138.275562 
L 108.801739 135.733646 
L 110.586267 155.213835 
L 112.370794 171.581766 
L 114.155322 184.892941 
L 115.93985 177.820616 
L 117.724377 159.71497 
L 119.508905 137.793637 
L 121.293432 124.493454 
L 123.07796 122.419909 
L 124.862488 129.056163 
L 126.647015 143.476396 
L 128.431543 159.723899 
L 130.216071 170.138697 
L 132.000598 182.360596 
L 133.785126 191.676776 
L 135.569654 193.45682 
L 137.354181 196.116657 
L 139.138709 188.03373 
L 140.923236 178.328658 
L 144.492292 155.598754 
L 146.276819 147.894617 
L 148.061347 144.518318 
L 149.845875 143.570181 
L 151.630402 143.751634 
L 153.41493 143.474957 
L 155.199457 133.666985 
L 156.983985 130.328338 
L 158.768513 133.430561 
L 160.55304 132.130188 
L 162.337568 142.897168 
L 164.122096 148.834229 
L 165.906623 137.753753 
L 167.691151 130.147921 
L 171.260206 153.677508 
L 173.044734 182.191474 
L 174.829261 206.533529 
L 176.613789 216.647059 
L 178.398317 220.320333 
L 180.182844 202.746228 
L 181.967372 178.759236 
L 183.7519 157.230513 
L 185.536427 142.157197 
L 187.320955 136.275141 
L 189.105482 145.50759 
L 190.89001 161.166964 
L 192.674538 171.323638 
L 194.459065 170.968653 
L 196.243593 161.414328 
L 198.028121 152.908202 
L 199.812648 146.914207 
L 201.597176 146.384364 
L 203.381703 152.348473 
L 205.166231 163.104481 
L 206.950759 169.866649 
L 208.735286 171.860938 
L 210.519814 163.591804 
L 212.304342 149.372234 
L 214.088869 137.692113 
L 215.873397 130.948323 
L 217.657924 128.362355 
L 219.442452 135.840173 
L 221.22698 142.289447 
L 224.796035 162.134438 
L 226.580563 169.987574 
L 228.36509 180.418582 
L 230.149618 192.529631 
L 231.934145 190.39191 
L 233.718673 181.483287 
L 239.072256 134.4262 
L 240.856784 117.218316 
L 242.641311 116.451484 
L 244.425839 131.129265 
L 246.210367 149.204645 
L 247.994894 175.906333 
L 249.779422 183.060789 
L 251.563949 177.222399 
L 253.348477 156.827468 
L 255.133005 141.486893 
L 256.917532 135.152631 
L 258.70206 137.140021 
L 260.486588 147.065317 
L 262.271115 163.102712 
L 264.055643 174.915404 
L 265.84017 188.362649 
L 267.624698 198.361579 
L 269.409226 198.985912 
L 271.193753 195.115228 
L 272.978281 179.892393 
L 274.762809 174.336349 
L 276.547336 179.74919 
L 278.331864 202.592889 
L 280.116391 208.340963 
L 281.900919 170.077151 
L 283.685447 172.029458 
L 285.469974 186.362467 
L 287.254502 219.804633 
L 289.03903 173.9704 
L 290.823557 141.923287 
L 292.608085 122.936487 
L 294.392613 122.828414 
L 296.17714 142.148812 
L 297.961668 166.004862 
L 299.746195 181.242749 
L 301.530723 191.390796 
L 303.315251 189.171668 
L 305.099778 199.797986 
L 306.884306 211.237744 
L 308.668834 217.414015 
L 310.453361 214.744532 
L 312.237889 211.070719 
L 314.022416 211.96917 
L 315.806944 208.603696 
L 317.591472 192.124717 
L 321.160527 155.657624 
L 322.945055 140.410251 
L 324.729582 131.120834 
L 326.51411 127.344031 
L 328.298637 135.595371 
L 330.083165 147.4286 
L 331.867693 166.1226 
L 333.65222 188.410524 
L 335.436748 206.38641 
L 337.221276 220.425677 
L 339.005803 208.731617 
L 340.790331 210.234098 
L 342.574859 214.736662 
L 344.359386 213.312163 
L 346.143914 184.172491 
L 347.928441 164.629666 
L 349.712969 140.789468 
L 351.497497 127.377797 
L 353.282024 137.05427 
L 355.066552 157.933573 
L 356.85108 189.956068 
L 358.635607 218.711709 
L 360.420135 201.764272 
L 362.204662 189.334167 
L 363.98919 196.781262 
L 365.773718 213.336469 
L 367.558245 219.723363 
L 369.342773 208.055431 
L 371.127301 204.140179 
L 374.696356 199.331492 
L 376.480883 194.654147 
L 378.265411 190.647772 
L 380.049939 191.119679 
L 381.834466 194.174656 
L 383.618994 200.406353 
L 385.403522 206.00689 
L 387.188049 212.666797 
L 388.972577 217.267998 
L 390.757105 220.390254 
L 392.541632 212.729208 
L 394.32616 217.113059 
L 396.110687 218.871486 
L 397.895215 204.706456 
L 399.679743 185.577572 
L 401.46427 178.970051 
L 403.248798 175.609515 
L 405.033326 178.980862 
L 406.817853 184.268173 
L 408.602381 194.197666 
L 410.386908 207.512184 
L 412.171436 215.168561 
L 413.955964 215.768254 
L 415.740491 212.744312 
L 417.525019 220.279784 
L 419.309547 211.755908 
L 421.094074 200.997815 
L 422.878602 187.293526 
L 424.663129 168.963098 
L 428.232185 124.858552 
L 431.80124 72.075444 
L 433.585768 54.563128 
L 435.370295 45.364599 
L 438.93935 37.573239 
L 440.723878 39.412686 
L 442.508406 44.766344 
L 444.292933 66.535586 
L 446.077461 109.040712 
L 447.861989 159.578813 
L 449.646516 199.004865 
L 451.431044 214.839628 
L 453.215572 200.333571 
L 455.000099 208.012037 
L 456.784627 215.024386 
L 460.353682 158.314559 
L 462.13821 141.754582 
L 463.922737 140.060186 
L 465.707265 155.386393 
L 467.491793 184.334577 
L 469.27632 216.742263 
L 471.060848 198.471075 
L 472.845375 188.030937 
L 474.629903 192.282181 
L 476.414431 208.291478 
L 478.198958 214.833591 
L 479.983486 196.428465 
L 481.768014 185.606103 
L 483.552541 185.881053 
L 485.337069 196.308163 
L 487.121596 199.178822 
L 488.906124 197.609493 
L 490.690652 201.926254 
L 492.475179 195.445255 
L 494.259707 189.931675 
L 496.044235 176.889314 
L 497.828762 160.592188 
L 499.61329 147.764309 
L 501.397818 145.517171 
L 503.182345 152.020798 
L 504.966873 167.249507 
L 506.7514 191.358964 
L 508.535928 209.467262 
L 510.320456 213.163208 
L 512.104983 206.761573 
L 513.889511 189.507155 
L 515.674039 177.206783 
L 517.458566 182.830883 
L 519.243094 203.140362 
L 521.027621 209.089595 
L 522.812149 221.011429 
L 524.596677 212.486884 
L 528.165732 172.417174 
L 529.95026 145.985111 
L 531.734787 128.664656 
L 533.519315 138.820842 
L 535.303842 151.352828 
L 537.08837 197.724822 
L 538.872898 216.398337 
L 538.872898 216.398337 
" clip-path="url(#p9811db4dd6)" style="fill: none; stroke: #d3d3d3; stroke-width: 2; stroke-linecap: square"/>
   </g>
   <g id="line2d_24">
    <path d="M 61.065625 208.976831 
L 561.625625 208.976831 
" clip-path="url(#p9811db4dd6)" style="fill: none; stroke-dasharray: 5.55,2.4; stroke-dashoffset: 0; stroke: #ff0000; stroke-width: 1.5"/>
   </g>
   <g id="line2d_25">
    <path d="M 83.818352 175.656398 
L 85.60288 148.931874 
L 87.387408 168.158558 
L 89.171935 124.111608 
L 90.956463 141.430947 
L 92.74099 146.784787 
L 94.525518 143.268869 
L 96.310046 174.017518 
L 98.094573 193.884065 
L 99.879101 203.204517 
L 101.663629 210.619543 
L 103.448156 199.885216 
L 105.232684 164.875446 
L 107.017211 150.399245 
L 108.801739 147.857329 
L 110.586267 167.337514 
L 112.370794 183.705445 
L 114.155322 197.016621 
L 115.93985 189.944295 
L 117.724377 171.83865 
L 119.508905 149.91732 
L 121.293432 136.617137 
L 123.07796 134.543592 
L 124.862488 141.179846 
L 126.647015 155.600078 
L 128.431543 171.847578 
L 130.216071 182.262376 
L 132.000598 194.484276 
L 133.785126 203.800455 
L 135.569654 205.580501 
L 137.354181 208.240337 
L 139.138709 200.157409 
L 140.923236 190.452338 
L 144.492292 167.722433 
L 146.276819 160.0183 
L 148.061347 156.642001 
L 149.845875 155.693864 
L 151.630402 155.875317 
L 153.41493 155.598639 
L 155.199457 145.790668 
L 156.983985 142.452021 
L 158.768513 145.554244 
L 160.55304 144.253871 
L 162.337568 155.020851 
L 164.122096 160.957912 
L 165.906623 149.877436 
L 167.691151 142.271603 
L 171.260206 165.801188 
L 173.044734 194.315153 
L 174.829261 218.657209 
L 176.613789 221.100511 
L 178.398317 221.100511 
L 180.182844 214.869908 
L 181.967372 190.882915 
L 183.7519 169.354192 
L 185.536427 154.280879 
L 187.320955 148.398824 
L 189.105482 157.631272 
L 190.89001 173.290644 
L 192.674538 183.447318 
L 194.459065 183.092332 
L 196.243593 173.538007 
L 198.028121 165.031881 
L 199.812648 159.03789 
L 201.597176 158.508047 
L 203.381703 164.472156 
L 205.166231 175.22816 
L 206.950759 181.990328 
L 208.735286 183.984617 
L 210.519814 175.715484 
L 212.304342 161.495917 
L 214.088869 149.815795 
L 215.873397 143.072006 
L 217.657924 140.486038 
L 219.442452 147.963855 
L 221.22698 154.41313 
L 224.796035 174.258118 
L 226.580563 182.111253 
L 228.36509 192.542261 
L 230.149618 204.653311 
L 231.934145 202.51559 
L 233.718673 193.606967 
L 239.072256 146.549882 
L 240.856784 129.341998 
L 242.641311 128.575166 
L 244.425839 143.252948 
L 246.210367 161.328328 
L 247.994894 188.030012 
L 249.779422 195.184468 
L 251.563949 189.346078 
L 253.348477 168.951147 
L 255.133005 153.610576 
L 256.917532 147.276313 
L 258.70206 149.263704 
L 260.486588 159.189 
L 262.271115 175.226392 
L 264.055643 187.039083 
L 265.84017 200.486328 
L 267.624698 210.485259 
L 269.409226 211.109592 
L 271.193753 207.238908 
L 272.978281 192.016072 
L 274.762809 186.460028 
L 276.547336 191.872869 
L 278.331864 214.71657 
L 280.116391 220.464643 
L 281.900919 182.20083 
L 283.685447 184.153138 
L 285.469974 198.486146 
L 287.254502 221.100511 
L 289.03903 186.094079 
L 290.823557 154.04697 
L 292.608085 135.060169 
L 294.392613 134.952096 
L 296.17714 154.272495 
L 297.961668 178.128541 
L 299.746195 193.366428 
L 301.530723 203.514476 
L 303.315251 201.295347 
L 305.099778 211.921666 
L 306.884306 221.100511 
L 314.022416 221.100511 
L 315.806944 220.727376 
L 317.591472 204.248396 
L 321.160527 167.781304 
L 322.945055 152.533933 
L 324.729582 143.244516 
L 326.51411 139.467714 
L 328.298637 147.719054 
L 330.083165 159.552282 
L 331.867693 178.246279 
L 333.65222 200.534203 
L 335.436748 218.51009 
L 337.221276 221.100511 
L 339.005803 220.855297 
L 340.790331 221.100511 
L 344.359386 221.100511 
L 346.143914 196.29617 
L 347.928441 176.753346 
L 349.712969 152.91315 
L 351.497497 139.501479 
L 353.282024 149.177953 
L 355.066552 170.057252 
L 356.85108 202.079747 
L 358.635607 221.100511 
L 360.420135 213.887952 
L 362.204662 201.457846 
L 363.98919 208.904942 
L 365.773718 221.100511 
L 367.558245 221.100511 
L 369.342773 220.179111 
L 371.127301 216.263859 
L 374.696356 211.455172 
L 376.480883 206.777827 
L 378.265411 202.771451 
L 380.049939 203.243358 
L 381.834466 206.298336 
L 383.618994 212.530033 
L 385.403522 218.13057 
L 387.188049 221.100511 
L 396.110687 221.100511 
L 397.895215 216.830136 
L 399.679743 197.701251 
L 401.46427 191.09373 
L 403.248798 187.733194 
L 405.033326 191.104541 
L 406.817853 196.391852 
L 408.602381 206.321347 
L 410.386908 219.635865 
L 412.171436 221.100511 
L 419.309547 221.100511 
L 421.094074 213.121495 
L 422.878602 199.417206 
L 424.663129 181.086778 
L 428.232185 136.982235 
L 431.80124 84.199127 
L 433.585768 66.68681 
L 435.370295 57.488281 
L 438.93935 49.696921 
L 440.723878 51.536369 
L 442.508406 56.890027 
L 444.292933 78.659269 
L 446.077461 121.164395 
L 447.861989 171.702493 
L 449.646516 211.128545 
L 451.431044 221.100511 
L 453.215572 212.457251 
L 455.000099 220.135718 
L 456.784627 221.100511 
L 458.569154 197.96065 
L 460.353682 170.438238 
L 462.13821 153.878264 
L 463.922737 152.183869 
L 465.707265 167.510072 
L 467.491793 196.458256 
L 469.27632 221.100511 
L 472.845375 200.154616 
L 474.629903 204.40586 
L 476.414431 220.415159 
L 478.198958 221.100511 
L 479.983486 208.552145 
L 481.768014 197.729783 
L 483.552541 198.004732 
L 485.337069 208.431843 
L 487.121596 211.302502 
L 488.906124 209.733173 
L 490.690652 214.049934 
L 492.475179 207.568935 
L 494.259707 202.055355 
L 496.044235 189.012994 
L 497.828762 172.715868 
L 499.61329 159.887992 
L 501.397818 157.640853 
L 503.182345 164.144481 
L 504.966873 179.373187 
L 506.7514 203.482643 
L 508.535928 221.100511 
L 510.320456 221.100511 
L 512.104983 218.885253 
L 513.889511 201.630835 
L 515.674039 189.330463 
L 517.458566 194.954562 
L 519.243094 215.264042 
L 521.027621 221.100511 
L 524.596677 221.100511 
L 526.381204 204.204512 
L 528.165732 184.540853 
L 529.95026 158.108794 
L 531.734787 140.788338 
L 533.519315 150.944525 
L 535.303842 163.47651 
L 537.08837 209.848502 
L 538.872898 221.100511 
L 538.872898 221.100511 
" clip-path="url(#p9811db4dd6)" style="fill: none; stroke: #1f77b4; stroke-width: 2.5; stroke-linecap: square"/>
   </g>
   <g id="patch_3">
    <path d="M 61.065625 230.276875 
L 61.065625 28.396875 
" style="fill: none; stroke: #000000; stroke-width: 0.8; stroke-linejoin: miter; stroke-linecap: square"/>
   </g>
   <g id="patch_4">
    <path d="M 561.625625 230.276875 
L 561.625625 28.396875 
" style="fill: none; stroke: #000000; stroke-width: 0.8; stroke-linejoin: miter; stroke-linecap: square"/>
   </g>
   <g id="patch_5">
    <path d="M 61.065625 230.276875 
L 561.625625 230.276875 
" style="fill: none; stroke: #000000; stroke-width: 0.8; stroke-linejoin: miter; stroke-linecap: square"/>
   </g>
   <g id="patch_6">
    <path d="M 61.065625 28.396875 
L 561.625625 28.396875 
" style="fill: none; stroke: #000000; stroke-width: 0.8; stroke-linejoin: miter; stroke-linecap: square"/>
   </g>
   <g id="text_14">
    <!-- Channel 5 Mechanism Visualization -->
    <g transform="translate(112.408125 22.396875) scale(0.2 -0.2)">
     <defs>
      <path id="DejaVuSans-Bold-43" d="M 4288 256 
Q 3956 84 3597 -3 
Q 3238 -91 2847 -91 
Q 1681 -91 1000 561 
Q 319 1213 319 2328 
Q 319 3447 1000 4098 
Q 1681 4750 2847 4750 
Q 3238 4750 3597 4662 
Q 3956 4575 4288 4403 
L 4288 3438 
Q 3953 3666 3628 3772 
Q 3303 3878 2944 3878 
Q 2300 3878 1931 3465 
Q 1563 3053 1563 2328 
Q 1563 1606 1931 1193 
Q 2300 781 2944 781 
Q 3303 781 3628 887 
Q 3953 994 4288 1222 
L 4288 256 
z
" transform="scale(0.015625)"/>
      <path id="DejaVuSans-Bold-68" d="M 4056 2131 
L 4056 0 
L 2931 0 
L 2931 347 
L 2931 1625 
Q 2931 2084 2911 2256 
Q 2891 2428 2841 2509 
Q 2775 2619 2662 2680 
Q 2550 2741 2406 2741 
Q 2056 2741 1856 2470 
Q 1656 2200 1656 1722 
L 1656 0 
L 538 0 
L 538 4863 
L 1656 4863 
L 1656 2988 
Q 1909 3294 2193 3439 
Q 2478 3584 2822 3584 
Q 3428 3584 3742 3212 
Q 4056 2841 4056 2131 
z
" transform="scale(0.015625)"/>
      <path id="DejaVuSans-Bold-61" d="M 2106 1575 
Q 1756 1575 1579 1456 
Q 1403 1338 1403 1106 
Q 1403 894 1545 773 
Q 1688 653 1941 653 
Q 2256 653 2472 879 
Q 2688 1106 2688 1447 
L 2688 1575 
L 2106 1575 
z
M 3816 1997 
L 3816 0 
L 2688 0 
L 2688 519 
Q 2463 200 2181 54 
Q 1900 -91 1497 -91 
Q 953 -91 614 226 
Q 275 544 275 1050 
Q 275 1666 698 1953 
Q 1122 2241 2028 2241 
L 2688 2241 
L 2688 2328 
Q 2688 2594 2478 2717 
Q 2269 2841 1825 2841 
Q 1466 2841 1156 2769 
Q 847 2697 581 2553 
L 581 3406 
Q 941 3494 1303 3539 
Q 1666 3584 2028 3584 
Q 2975 3584 3395 3211 
Q 3816 2838 3816 1997 
z
" transform="scale(0.015625)"/>
      <path id="DejaVuSans-Bold-6e" d="M 4056 2131 
L 4056 0 
L 2931 0 
L 2931 347 
L 2931 1631 
Q 2931 2084 2911 2256 
Q 2891 2428 2841 2509 
Q 2775 2619 2662 2680 
Q 2550 2741 2406 2741 
Q 2056 2741 1856 2470 
Q 1656 2200 1656 1722 
L 1656 0 
L 538 0 
L 538 3500 
L 1656 3500 
L 1656 2988 
Q 1909 3294 2193 3439 
Q 2478 3584 2822 3584 
Q 3428 3584 3742 3212 
Q 4056 2841 4056 2131 
z
" transform="scale(0.015625)"/>
      <path id="DejaVuSans-Bold-65" d="M 4031 1759 
L 4031 1441 
L 1416 1441 
Q 1456 1047 1700 850 
Q 1944 653 2381 653 
Q 2734 653 3104 758 
Q 3475 863 3866 1075 
L 3866 213 
Q 3469 63 3072 -14 
Q 2675 -91 2278 -91 
Q 1328 -91 801 392 
Q 275 875 275 1747 
Q 275 2603 792 3093 
Q 1309 3584 2216 3584 
Q 3041 3584 3536 3087 
Q 4031 2591 4031 1759 
z
M 2881 2131 
Q 2881 2450 2695 2645 
Q 2509 2841 2209 2841 
Q 1884 2841 1681 2658 
Q 1478 2475 1428 2131 
L 2881 2131 
z
" transform="scale(0.015625)"/>
      <path id="DejaVuSans-Bold-6c" d="M 538 4863 
L 1656 4863 
L 1656 0 
L 538 0 
L 538 4863 
z
" transform="scale(0.015625)"/>
      <path id="DejaVuSans-Bold-20" transform="scale(0.015625)"/>
      <path id="DejaVuSans-Bold-35" d="M 678 4666 
L 3669 4666 
L 3669 3781 
L 1638 3781 
L 1638 3059 
Q 1775 3097 1914 3117 
Q 2053 3138 2203 3138 
Q 3056 3138 3531 2711 
Q 4006 2284 4006 1522 
Q 4006 766 3489 337 
Q 2972 -91 2053 -91 
Q 1656 -91 1267 -14 
Q 878 63 494 219 
L 494 1166 
Q 875 947 1217 837 
Q 1559 728 1863 728 
Q 2300 728 2551 942 
Q 2803 1156 2803 1522 
Q 2803 1891 2551 2103 
Q 2300 2316 1863 2316 
Q 1603 2316 1309 2248 
Q 1016 2181 678 2041 
L 678 4666 
z
" transform="scale(0.015625)"/>
      <path id="DejaVuSans-Bold-4d" d="M 588 4666 
L 2119 4666 
L 3181 2169 
L 4250 4666 
L 5778 4666 
L 5778 0 
L 4641 0 
L 4641 3413 
L 3566 897 
L 2803 897 
L 1728 3413 
L 1728 0 
L 588 0 
L 588 4666 
z
" transform="scale(0.015625)"/>
      <path id="DejaVuSans-Bold-63" d="M 3366 3391 
L 3366 2478 
Q 3138 2634 2908 2709 
Q 2678 2784 2431 2784 
Q 1963 2784 1702 2511 
Q 1441 2238 1441 1747 
Q 1441 1256 1702 982 
Q 1963 709 2431 709 
Q 2694 709 2930 787 
Q 3166 866 3366 1019 
L 3366 103 
Q 3103 6 2833 -42 
Q 2563 -91 2291 -91 
Q 1344 -91 809 395 
Q 275 881 275 1747 
Q 275 2613 809 3098 
Q 1344 3584 2291 3584 
Q 2566 3584 2833 3536 
Q 3100 3488 3366 3391 
z
" transform="scale(0.015625)"/>
      <path id="DejaVuSans-Bold-69" d="M 538 3500 
L 1656 3500 
L 1656 0 
L 538 0 
L 538 3500 
z
M 538 4863 
L 1656 4863 
L 1656 3950 
L 538 3950 
L 538 4863 
z
" transform="scale(0.015625)"/>
      <path id="DejaVuSans-Bold-73" d="M 3272 3391 
L 3272 2541 
Q 2913 2691 2578 2766 
Q 2244 2841 1947 2841 
Q 1628 2841 1473 2761 
Q 1319 2681 1319 2516 
Q 1319 2381 1436 2309 
Q 1553 2238 1856 2203 
L 2053 2175 
Q 2913 2066 3209 1816 
Q 3506 1566 3506 1031 
Q 3506 472 3093 190 
Q 2681 -91 1863 -91 
Q 1516 -91 1145 -36 
Q 775 19 384 128 
L 384 978 
Q 719 816 1070 734 
Q 1422 653 1784 653 
Q 2113 653 2278 743 
Q 2444 834 2444 1013 
Q 2444 1163 2330 1236 
Q 2216 1309 1875 1350 
L 1678 1375 
Q 931 1469 631 1722 
Q 331 1975 331 2491 
Q 331 3047 712 3315 
Q 1094 3584 1881 3584 
Q 2191 3584 2531 3537 
Q 2872 3491 3272 3391 
z
" transform="scale(0.015625)"/>
      <path id="DejaVuSans-Bold-6d" d="M 3781 2919 
Q 3994 3244 4286 3414 
Q 4578 3584 4928 3584 
Q 5531 3584 5847 3212 
Q 6163 2841 6163 2131 
L 6163 0 
L 5038 0 
L 5038 1825 
Q 5041 1866 5042 1909 
Q 5044 1953 5044 2034 
Q 5044 2406 4934 2573 
Q 4825 2741 4581 2741 
Q 4263 2741 4089 2478 
Q 3916 2216 3909 1719 
L 3909 0 
L 2784 0 
L 2784 1825 
Q 2784 2406 2684 2573 
Q 2584 2741 2328 2741 
Q 2006 2741 1831 2477 
Q 1656 2213 1656 1722 
L 1656 0 
L 531 0 
L 531 3500 
L 1656 3500 
L 1656 2988 
Q 1863 3284 2130 3434 
Q 2397 3584 2719 3584 
Q 3081 3584 3359 3409 
Q 3638 3234 3781 2919 
z
" transform="scale(0.015625)"/>
      <path id="DejaVuSans-Bold-56" d="M 31 4666 
L 1241 4666 
L 2478 1222 
L 3713 4666 
L 4922 4666 
L 3194 0 
L 1759 0 
L 31 4666 
z
" transform="scale(0.015625)"/>
      <path id="DejaVuSans-Bold-75" d="M 500 1363 
L 500 3500 
L 1625 3500 
L 1625 3150 
Q 1625 2866 1622 2436 
Q 1619 2006 1619 1863 
Q 1619 1441 1641 1255 
Q 1663 1069 1716 984 
Q 1784 875 1895 815 
Q 2006 756 2150 756 
Q 2500 756 2700 1025 
Q 2900 1294 2900 1772 
L 2900 3500 
L 4019 3500 
L 4019 0 
L 2900 0 
L 2900 506 
Q 2647 200 2364 54 
Q 2081 -91 1741 -91 
Q 1134 -91 817 281 
Q 500 653 500 1363 
z
" transform="scale(0.015625)"/>
      <path id="DejaVuSans-Bold-7a" d="M 366 3500 
L 3419 3500 
L 3419 2719 
L 1575 800 
L 3419 800 
L 3419 0 
L 288 0 
L 288 781 
L 2131 2700 
L 366 2700 
L 366 3500 
z
" transform="scale(0.015625)"/>
      <path id="DejaVuSans-Bold-74" d="M 1759 4494 
L 1759 3500 
L 2913 3500 
L 2913 2700 
L 1759 2700 
L 1759 1216 
Q 1759 972 1856 886 
Q 1953 800 2241 800 
L 2816 800 
L 2816 0 
L 1856 0 
Q 1194 0 917 276 
Q 641 553 641 1216 
L 641 2700 
L 84 2700 
L 84 3500 
L 641 3500 
L 641 4494 
L 1759 4494 
z
" transform="scale(0.015625)"/>
      <path id="DejaVuSans-Bold-6f" d="M 2203 2784 
Q 1831 2784 1636 2517 
Q 1441 2250 1441 1747 
Q 1441 1244 1636 976 
Q 1831 709 2203 709 
Q 2569 709 2762 976 
Q 2956 1244 2956 1747 
Q 2956 2250 2762 2517 
Q 2569 2784 2203 2784 
z
M 2203 3584 
Q 3106 3584 3614 3096 
Q 4122 2609 4122 1747 
Q 4122 884 3614 396 
Q 3106 -91 2203 -91 
Q 1297 -91 786 396 
Q 275 884 275 1747 
Q 275 2609 786 3096 
Q 1297 3584 2203 3584 
z
" transform="scale(0.015625)"/>
     </defs>
     <use xlink:href="#DejaVuSans-Bold-43"/>
     <use xlink:href="#DejaVuSans-Bold-68" transform="translate(73.388672 0)"/>
     <use xlink:href="#DejaVuSans-Bold-61" transform="translate(144.580078 0)"/>
     <use xlink:href="#DejaVuSans-Bold-6e" transform="translate(212.060547 0)"/>
     <use xlink:href="#DejaVuSans-Bold-6e" transform="translate(283.251953 0)"/>
     <use xlink:href="#DejaVuSans-Bold-65" transform="translate(354.443359 0)"/>
     <use xlink:href="#DejaVuSans-Bold-6c" transform="translate(422.265625 0)"/>
     <use xlink:href="#DejaVuSans-Bold-20" transform="translate(456.542969 0)"/>
     <use xlink:href="#DejaVuSans-Bold-35" transform="translate(491.357422 0)"/>
     <use xlink:href="#DejaVuSans-Bold-20" transform="translate(560.9375 0)"/>
     <use xlink:href="#DejaVuSans-Bold-4d" transform="translate(595.751953 0)"/>
     <use xlink:href="#DejaVuSans-Bold-65" transform="translate(695.263672 0)"/>
     <use xlink:href="#DejaVuSans-Bold-63" transform="translate(763.085938 0)"/>
     <use xlink:href="#DejaVuSans-Bold-68" transform="translate(822.363281 0)"/>
     <use xlink:href="#DejaVuSans-Bold-61" transform="translate(893.554688 0)"/>
     <use xlink:href="#DejaVuSans-Bold-6e" transform="translate(961.035156 0)"/>
     <use xlink:href="#DejaVuSans-Bold-69" transform="translate(1032.226562 0)"/>
     <use xlink:href="#DejaVuSans-Bold-73" transform="translate(1066.503906 0)"/>
     <use xlink:href="#DejaVuSans-Bold-6d" transform="translate(1126.025391 0)"/>
     <use xlink:href="#DejaVuSans-Bold-20" transform="translate(1230.224609 0)"/>
     <use xlink:href="#DejaVuSans-Bold-56" transform="translate(1265.039062 0)"/>
     <use xlink:href="#DejaVuSans-Bold-69" transform="translate(1340.681641 0)"/>
     <use xlink:href="#DejaVuSans-Bold-73" transform="translate(1374.958984 0)"/>
     <use xlink:href="#DejaVuSans-Bold-75" transform="translate(1434.480469 0)"/>
     <use xlink:href="#DejaVuSans-Bold-61" transform="translate(1505.671875 0)"/>
     <use xlink:href="#DejaVuSans-Bold-6c" transform="translate(1573.152344 0)"/>
     <use xlink:href="#DejaVuSans-Bold-69" transform="translate(1607.429688 0)"/>
     <use xlink:href="#DejaVuSans-Bold-7a" transform="translate(1641.707031 0)"/>
     <use xlink:href="#DejaVuSans-Bold-61" transform="translate(1699.910156 0)"/>
     <use xlink:href="#DejaVuSans-Bold-74" transform="translate(1767.390625 0)"/>
     <use xlink:href="#DejaVuSans-Bold-69" transform="translate(1815.193359 0)"/>
     <use xlink:href="#DejaVuSans-Bold-6f" transform="translate(1849.470703 0)"/>
     <use xlink:href="#DejaVuSans-Bold-6e" transform="translate(1918.171875 0)"/>
    </g>
   </g>
   <g id="legend_1">
    <g id="patch_7">
     <path d="M 308.680625 112.681875 
L 550.425625 112.681875 
Q 553.625625 112.681875 553.625625 109.481875 
L 553.625625 39.596875 
Q 553.625625 36.396875 550.425625 36.396875 
L 308.680625 36.396875 
Q 305.480625 36.396875 305.480625 39.596875 
L 305.480625 109.481875 
Q 305.480625 112.681875 308.680625 112.681875 
z
" style="fill: #ffffff; stroke: #000000; stroke-linejoin: miter"/>
    </g>
    <g id="line2d_26">
     <path d="M 311.880625 49.424375 
L 327.880625 49.424375 
L 343.880625 49.424375 
" style="fill: none; stroke: #d3d3d3; stroke-width: 2; stroke-linecap: square"/>
    </g>
    <g id="text_15">
     <!-- Magnitude (|x|) -->
     <g transform="translate(356.680625 55.024375) scale(0.16 -0.16)">
      <defs>
       <path id="DejaVuSans-28" d="M 1984 4856 
Q 1566 4138 1362 3434 
Q 1159 2731 1159 2009 
Q 1159 1288 1364 580 
Q 1569 -128 1984 -844 
L 1484 -844 
Q 1016 -109 783 600 
Q 550 1309 550 2009 
Q 550 2706 781 3412 
Q 1013 4119 1484 4856 
L 1984 4856 
z
" transform="scale(0.015625)"/>
       <path id="DejaVuSans-7c" d="M 1344 4891 
L 1344 -1509 
L 813 -1509 
L 813 4891 
L 1344 4891 
z
" transform="scale(0.015625)"/>
       <path id="DejaVuSans-78" d="M 3513 3500 
L 2247 1797 
L 3578 0 
L 2900 0 
L 1881 1375 
L 863 0 
L 184 0 
L 1544 1831 
L 300 3500 
L 978 3500 
L 1906 2253 
L 2834 3500 
L 3513 3500 
z
" transform="scale(0.015625)"/>
       <path id="DejaVuSans-29" d="M 513 4856 
L 1013 4856 
Q 1481 4119 1714 3412 
Q 1947 2706 1947 2009 
Q 1947 1309 1714 600 
Q 1481 -109 1013 -844 
L 513 -844 
Q 928 -128 1133 580 
Q 1338 1288 1338 2009 
Q 1338 2731 1133 3434 
Q 928 4138 513 4856 
z
" transform="scale(0.015625)"/>
      </defs>
      <use xlink:href="#DejaVuSans-4d"/>
      <use xlink:href="#DejaVuSans-61" transform="translate(86.279297 0)"/>
      <use xlink:href="#DejaVuSans-67" transform="translate(147.558594 0)"/>
      <use xlink:href="#DejaVuSans-6e" transform="translate(211.035156 0)"/>
      <use xlink:href="#DejaVuSans-69" transform="translate(274.414062 0)"/>
      <use xlink:href="#DejaVuSans-74" transform="translate(302.197266 0)"/>
      <use xlink:href="#DejaVuSans-75" transform="translate(341.40625 0)"/>
      <use xlink:href="#DejaVuSans-64" transform="translate(404.785156 0)"/>
      <use xlink:href="#DejaVuSans-65" transform="translate(468.261719 0)"/>
      <use xlink:href="#DejaVuSans-20" transform="translate(529.785156 0)"/>
      <use xlink:href="#DejaVuSans-28" transform="translate(561.572266 0)"/>
      <use xlink:href="#DejaVuSans-7c" transform="translate(600.585938 0)"/>
      <use xlink:href="#DejaVuSans-78" transform="translate(634.277344 0)"/>
      <use xlink:href="#DejaVuSans-7c" transform="translate(693.457031 0)"/>
      <use xlink:href="#DejaVuSans-29" transform="translate(727.148438 0)"/>
     </g>
    </g>
    <g id="line2d_27">
     <path d="M 311.880625 73.354375 
L 327.880625 73.354375 
L 343.880625 73.354375 
" style="fill: none; stroke-dasharray: 5.55,2.4; stroke-dashoffset: 0; stroke: #ff0000; stroke-width: 1.5"/>
    </g>
    <g id="text_16">
     <!-- Threshold () -->
     <g transform="translate(356.680625 78.954375) scale(0.16 -0.16)">
      <defs>
       <path id="DejaVuSans-68" d="M 3513 2113 
L 3513 0 
L 2938 0 
L 2938 2094 
Q 2938 2591 2744 2837 
Q 2550 3084 2163 3084 
Q 1697 3084 1428 2787 
Q 1159 2491 1159 1978 
L 1159 0 
L 581 0 
L 581 4863 
L 1159 4863 
L 1159 2956 
Q 1366 3272 1645 3428 
Q 1925 3584 2291 3584 
Q 2894 3584 3203 3211 
Q 3513 2838 3513 2113 
z
" transform="scale(0.015625)"/>
       <path id="DejaVuSans-6f" d="M 1959 3097 
Q 1497 3097 1228 2736 
Q 959 2375 959 1747 
Q 959 1119 1226 758 
Q 1494 397 1959 397 
Q 2419 397 2687 759 
Q 2956 1122 2956 1747 
Q 2956 2369 2687 2733 
Q 2419 3097 1959 3097 
z
M 1959 3584 
Q 2709 3584 3137 3096 
Q 3566 2609 3566 1747 
Q 3566 888 3137 398 
Q 2709 -91 1959 -91 
Q 1206 -91 779 398 
Q 353 888 353 1747 
Q 353 2609 779 3096 
Q 1206 3584 1959 3584 
z
" transform="scale(0.015625)"/>
       <path id="DejaVuSans-6c" d="M 603 4863 
L 1178 4863 
L 1178 0 
L 603 0 
L 603 4863 
z
" transform="scale(0.015625)"/>
       <path id="DejaVuSans-3c4" d="M 2319 638 
Q 2431 488 2769 488 
L 3047 488 
L 3047 0 
L 2700 0 
Q 2138 0 1881 300 
Q 1625 606 1625 1269 
L 1625 2925 
L 313 2925 
L 313 3500 
L 3541 3500 
L 3541 2925 
L 2213 2925 
L 2213 1234 
Q 2213 781 2319 638 
z
" transform="scale(0.015625)"/>
      </defs>
      <use xlink:href="#DejaVuSans-54"/>
      <use xlink:href="#DejaVuSans-68" transform="translate(61.083984 0)"/>
      <use xlink:href="#DejaVuSans-72" transform="translate(124.462891 0)"/>
      <use xlink:href="#DejaVuSans-65" transform="translate(163.326172 0)"/>
      <use xlink:href="#DejaVuSans-73" transform="translate(224.849609 0)"/>
      <use xlink:href="#DejaVuSans-68" transform="translate(276.949219 0)"/>
      <use xlink:href="#DejaVuSans-6f" transform="translate(340.328125 0)"/>
      <use xlink:href="#DejaVuSans-6c" transform="translate(401.509766 0)"/>
      <use xlink:href="#DejaVuSans-64" transform="translate(429.292969 0)"/>
      <use xlink:href="#DejaVuSans-20" transform="translate(492.769531 0)"/>
      <use xlink:href="#DejaVuSans-28" transform="translate(524.556641 0)"/>
      <use xlink:href="#DejaVuSans-3c4" transform="translate(563.570312 0)"/>
      <use xlink:href="#DejaVuSans-29" transform="translate(623.775391 0)"/>
     </g>
    </g>
    <g id="line2d_28">
     <path d="M 311.880625 96.909375 
L 327.880625 96.909375 
L 343.880625 96.909375 
" style="fill: none; stroke: #1f77b4; stroke-width: 2.5; stroke-linecap: square"/>
    </g>
    <g id="text_17">
     <!-- Magnitude (ReLU(|x|-)) -->
     <g transform="translate(356.680625 102.509375) scale(0.16 -0.16)">
      <defs>
       <path id="DejaVuSans-52" d="M 2841 2188 
Q 3044 2119 3236 1894 
Q 3428 1669 3622 1275 
L 4263 0 
L 3584 0 
L 2988 1197 
Q 2756 1666 2539 1819 
Q 2322 1972 1947 1972 
L 1259 1972 
L 1259 0 
L 628 0 
L 628 4666 
L 2053 4666 
Q 2853 4666 3247 4331 
Q 3641 3997 3641 3322 
Q 3641 2881 3436 2590 
Q 3231 2300 2841 2188 
z
M 1259 4147 
L 1259 2491 
L 2053 2491 
Q 2509 2491 2742 2702 
Q 2975 2913 2975 3322 
Q 2975 3731 2742 3939 
Q 2509 4147 2053 4147 
L 1259 4147 
z
" transform="scale(0.015625)"/>
       <path id="DejaVuSans-4c" d="M 628 4666 
L 1259 4666 
L 1259 531 
L 3531 531 
L 3531 0 
L 628 0 
L 628 4666 
z
" transform="scale(0.015625)"/>
       <path id="DejaVuSans-55" d="M 556 4666 
L 1191 4666 
L 1191 1831 
Q 1191 1081 1462 751 
Q 1734 422 2344 422 
Q 2950 422 3222 751 
Q 3494 1081 3494 1831 
L 3494 4666 
L 4128 4666 
L 4128 1753 
Q 4128 841 3676 375 
Q 3225 -91 2344 -91 
Q 1459 -91 1007 375 
Q 556 841 556 1753 
L 556 4666 
z
" transform="scale(0.015625)"/>
       <path id="DejaVuSans-2d" d="M 313 2009 
L 1997 2009 
L 1997 1497 
L 313 1497 
L 313 2009 
z
" transform="scale(0.015625)"/>
      </defs>
      <use xlink:href="#DejaVuSans-4d"/>
      <use xlink:href="#DejaVuSans-61" transform="translate(86.279297 0)"/>
      <use xlink:href="#DejaVuSans-67" transform="translate(147.558594 0)"/>
      <use xlink:href="#DejaVuSans-6e" transform="translate(211.035156 0)"/>
      <use xlink:href="#DejaVuSans-69" transform="translate(274.414062 0)"/>
      <use xlink:href="#DejaVuSans-74" transform="translate(302.197266 0)"/>
      <use xlink:href="#DejaVuSans-75" transform="translate(341.40625 0)"/>
      <use xlink:href="#DejaVuSans-64" transform="translate(404.785156 0)"/>
      <use xlink:href="#DejaVuSans-65" transform="translate(468.261719 0)"/>
      <use xlink:href="#DejaVuSans-20" transform="translate(529.785156 0)"/>
      <use xlink:href="#DejaVuSans-28" transform="translate(561.572266 0)"/>
      <use xlink:href="#DejaVuSans-52" transform="translate(600.585938 0)"/>
      <use xlink:href="#DejaVuSans-65" transform="translate(665.568359 0)"/>
      <use xlink:href="#DejaVuSans-4c" transform="translate(727.091797 0)"/>
      <use xlink:href="#DejaVuSans-55" transform="translate(777.804688 0)"/>
      <use xlink:href="#DejaVuSans-28" transform="translate(850.998047 0)"/>
      <use xlink:href="#DejaVuSans-7c" transform="translate(890.011719 0)"/>
      <use xlink:href="#DejaVuSans-78" transform="translate(923.703125 0)"/>
      <use xlink:href="#DejaVuSans-7c" transform="translate(982.882812 0)"/>
      <use xlink:href="#DejaVuSans-2d" transform="translate(1016.574219 0)"/>
      <use xlink:href="#DejaVuSans-3c4" transform="translate(1052.658203 0)"/>
      <use xlink:href="#DejaVuSans-29" transform="translate(1112.863281 0)"/>
      <use xlink:href="#DejaVuSans-29" transform="translate(1151.876953 0)"/>
     </g>
    </g>
   </g>
  </g>
 </g>
 <defs>
  <clipPath id="p9811db4dd6">
   <rect x="61.065625" y="28.396875" width="500.56" height="201.88"/>
  </clipPath>
 </defs>
</svg>
