<?xml version="1.0" encoding="utf-8" standalone="no"?>
<!DOCTYPE svg PUBLIC "-//W3C//DTD SVG 1.1//EN"
  "http://www.w3.org/Graphics/SVG/1.1/DTD/svg11.dtd">
<svg xmlns:xlink="http://www.w3.org/1999/xlink" width="568.825625pt" height="281.3825pt" viewBox="0 0 568.825625 281.3825" xmlns="http://www.w3.org/2000/svg" version="1.1">
 <metadata>
  <rdf:RDF xmlns:dc="http://purl.org/dc/elements/1.1/" xmlns:cc="http://creativecommons.org/ns#" xmlns:rdf="http://www.w3.org/1999/02/22-rdf-syntax-ns#">
   <cc:Work>
    <dc:type rdf:resource="http://purl.org/dc/dcmitype/StillImage"/>
    <dc:date>2026-02-05T21:19:23.966676</dc:date>
    <dc:format>image/svg+xml</dc:format>
    <dc:creator>
     <cc:Agent>
      <dc:title>Matplotlib v3.10.6, https://matplotlib.org/</dc:title>
     </cc:Agent>
    </dc:creator>
   </cc:Work>
  </rdf:RDF>
 </metadata>
 <defs>
  <style type="text/css">*{stroke-linejoin: round; stroke-linecap: butt}</style>
 </defs>
 <g id="figure_1">
  <g id="patch_1">
   <path d="M 0 281.3825 
L 568.825625 281.3825 
L 568.825625 0 
L 0 0 
z
" style="fill: #ffffff"/>
  </g>
  <g id="axes_1">
   <g id="patch_2">
    <path d="M 61.065625 230.276875 
L 561.625625 230.276875 
L 561.625625 28.396875 
L 61.065625 28.396875 
z
" style="fill: #ffffff"/>
   </g>
   <g id="FillBetweenPolyCollection_1">
    <defs>
     <path id="mfe8367fd33" d="M 83.818352 -158.918413 
L 83.818352 -60.281989 
L 85.60288 -60.281989 
L 87.387408 -60.281989 
L 89.171935 -60.281989 
L 90.956463 -60.281989 
L 92.74099 -60.281989 
L 94.525518 -60.281989 
L 96.310046 -60.281989 
L 98.094573 -60.281989 
L 99.879101 -60.281989 
L 101.663629 -60.281989 
L 103.448156 -60.281989 
L 105.232684 -60.281989 
L 107.017211 -60.281989 
L 108.801739 -60.281989 
L 110.586267 -60.281989 
L 112.370794 -60.281989 
L 114.155322 -60.281989 
L 115.93985 -60.281989 
L 117.724377 -60.281989 
L 119.508905 -60.281989 
L 121.293432 -60.281989 
L 123.07796 -60.281989 
L 124.862488 -60.281989 
L 126.647015 -60.281989 
L 128.431543 -60.281989 
L 130.216071 -60.281989 
L 132.000598 -60.281989 
L 133.785126 -60.281989 
L 135.569654 -60.281989 
L 137.354181 -60.281989 
L 139.138709 -60.281989 
L 140.923236 -60.281989 
L 142.707764 -60.281989 
L 144.492292 -60.281989 
L 146.276819 -60.281989 
L 148.061347 -60.281989 
L 149.845875 -60.281989 
L 151.630402 -60.281989 
L 153.41493 -60.281989 
L 155.199457 -60.281989 
L 156.983985 -60.281989 
L 158.768513 -60.281989 
L 160.55304 -60.281989 
L 162.337568 -60.281989 
L 164.122096 -60.281989 
L 165.906623 -60.281989 
L 167.691151 -60.281989 
L 169.475678 -60.281989 
L 171.260206 -60.281989 
L 173.044734 -60.281989 
L 174.829261 -60.281989 
L 176.613789 -60.281989 
L 178.398317 -60.281989 
L 180.182844 -60.281989 
L 181.967372 -60.281989 
L 183.7519 -60.281989 
L 185.536427 -60.281989 
L 187.320955 -60.281989 
L 189.105482 -60.281989 
L 190.89001 -60.281989 
L 192.674538 -60.281989 
L 194.459065 -60.281989 
L 196.243593 -60.281989 
L 198.028121 -60.281989 
L 199.812648 -60.281989 
L 201.597176 -60.281989 
L 203.381703 -60.281989 
L 205.166231 -60.281989 
L 206.950759 -60.281989 
L 208.735286 -60.281989 
L 210.519814 -60.281989 
L 212.304342 -60.281989 
L 214.088869 -60.281989 
L 215.873397 -60.281989 
L 217.657924 -60.281989 
L 219.442452 -60.281989 
L 221.22698 -60.281989 
L 223.011507 -60.281989 
L 224.796035 -60.281989 
L 226.580563 -60.281989 
L 228.36509 -60.281989 
L 230.149618 -60.281989 
L 231.934145 -60.281989 
L 233.718673 -60.281989 
L 235.503201 -60.281989 
L 237.287728 -60.281989 
L 239.072256 -60.281989 
L 240.856784 -60.281989 
L 242.641311 -60.281989 
L 244.425839 -60.281989 
L 246.210367 -60.281989 
L 247.994894 -60.281989 
L 249.779422 -60.281989 
L 251.563949 -60.281989 
L 253.348477 -60.281989 
L 255.133005 -60.281989 
L 256.917532 -60.281989 
L 258.70206 -60.281989 
L 260.486588 -60.281989 
L 262.271115 -60.281989 
L 264.055643 -60.281989 
L 265.84017 -60.281989 
L 267.624698 -60.281989 
L 269.409226 -60.281989 
L 271.193753 -60.281989 
L 272.978281 -60.281989 
L 274.762809 -60.281989 
L 276.547336 -60.281989 
L 278.331864 -60.281989 
L 280.116391 -60.281989 
L 281.900919 -60.281989 
L 283.685447 -60.281989 
L 285.469974 -60.281989 
L 287.254502 -60.281989 
L 289.03903 -60.281989 
L 290.823557 -60.281989 
L 292.608085 -60.281989 
L 294.392613 -60.281989 
L 296.17714 -60.281989 
L 297.961668 -60.281989 
L 299.746195 -60.281989 
L 301.530723 -60.281989 
L 303.315251 -60.281989 
L 305.099778 -60.281989 
L 306.884306 -60.281989 
L 308.668834 -60.281989 
L 310.453361 -60.281989 
L 312.237889 -60.281989 
L 314.022416 -60.281989 
L 315.806944 -60.281989 
L 317.591472 -60.281989 
L 319.375999 -60.281989 
L 321.160527 -60.281989 
L 322.945055 -60.281989 
L 324.729582 -60.281989 
L 326.51411 -60.281989 
L 328.298637 -60.281989 
L 330.083165 -60.281989 
L 331.867693 -60.281989 
L 333.65222 -60.281989 
L 335.436748 -60.281989 
L 337.221276 -60.281989 
L 339.005803 -60.281989 
L 340.790331 -60.281989 
L 342.574859 -60.281989 
L 344.359386 -60.281989 
L 346.143914 -60.281989 
L 347.928441 -60.281989 
L 349.712969 -60.281989 
L 351.497497 -60.281989 
L 353.282024 -60.281989 
L 355.066552 -60.281989 
L 356.85108 -60.281989 
L 358.635607 -60.281989 
L 360.420135 -60.281989 
L 362.204662 -60.281989 
L 363.98919 -60.281989 
L 365.773718 -60.281989 
L 367.558245 -60.281989 
L 369.342773 -60.281989 
L 371.127301 -60.281989 
L 372.911828 -60.281989 
L 374.696356 -60.281989 
L 376.480883 -60.281989 
L 378.265411 -60.281989 
L 380.049939 -60.281989 
L 381.834466 -60.281989 
L 383.618994 -60.281989 
L 385.403522 -60.281989 
L 387.188049 -60.281989 
L 388.972577 -60.281989 
L 390.757105 -60.281989 
L 392.541632 -60.281989 
L 394.32616 -60.281989 
L 396.110687 -60.281989 
L 397.895215 -60.281989 
L 399.679743 -60.281989 
L 401.46427 -60.281989 
L 403.248798 -60.281989 
L 405.033326 -60.281989 
L 406.817853 -60.281989 
L 408.602381 -60.281989 
L 410.386908 -60.281989 
L 412.171436 -60.281989 
L 413.955964 -60.281989 
L 415.740491 -60.281989 
L 417.525019 -60.281989 
L 419.309547 -60.281989 
L 421.094074 -60.281989 
L 422.878602 -60.281989 
L 424.663129 -60.281989 
L 426.447657 -60.281989 
L 428.232185 -60.281989 
L 430.016712 -60.281989 
L 431.80124 -60.281989 
L 433.585768 -60.281989 
L 435.370295 -60.281989 
L 437.154823 -60.281989 
L 438.93935 -60.281989 
L 440.723878 -60.281989 
L 442.508406 -60.281989 
L 444.292933 -60.281989 
L 446.077461 -60.281989 
L 447.861989 -60.281989 
L 449.646516 -60.281989 
L 451.431044 -60.281989 
L 453.215572 -60.281989 
L 455.000099 -60.281989 
L 456.784627 -60.281989 
L 458.569154 -60.281989 
L 460.353682 -60.281989 
L 462.13821 -60.281989 
L 463.922737 -60.281989 
L 465.707265 -60.281989 
L 467.491793 -60.281989 
L 469.27632 -60.281989 
L 471.060848 -60.281989 
L 472.845375 -60.281989 
L 474.629903 -60.281989 
L 476.414431 -60.281989 
L 478.198958 -60.281989 
L 479.983486 -60.281989 
L 481.768014 -60.281989 
L 483.552541 -60.281989 
L 485.337069 -60.281989 
L 487.121596 -60.281989 
L 488.906124 -60.281989 
L 490.690652 -60.281989 
L 492.475179 -60.281989 
L 494.259707 -60.281989 
L 496.044235 -60.281989 
L 497.828762 -60.281989 
L 499.61329 -60.281989 
L 501.397818 -60.281989 
L 503.182345 -60.281989 
L 504.966873 -60.281989 
L 506.7514 -60.281989 
L 508.535928 -60.281989 
L 510.320456 -60.281989 
L 512.104983 -60.281989 
L 513.889511 -60.281989 
L 515.674039 -60.281989 
L 517.458566 -60.281989 
L 519.243094 -60.281989 
L 521.027621 -60.281989 
L 522.812149 -60.281989 
L 524.596677 -60.281989 
L 526.381204 -60.281989 
L 528.165732 -60.281989 
L 529.95026 -60.281989 
L 531.734787 -60.281989 
L 533.519315 -60.281989 
L 535.303842 -60.281989 
L 537.08837 -60.281989 
L 538.872898 -60.281989 
L 538.872898 -158.918413 
L 538.872898 -158.918413 
L 537.08837 -158.918413 
L 535.303842 -158.918413 
L 533.519315 -158.918413 
L 531.734787 -158.918413 
L 529.95026 -158.918413 
L 528.165732 -158.918413 
L 526.381204 -158.918413 
L 524.596677 -158.918413 
L 522.812149 -158.918413 
L 521.027621 -158.918413 
L 519.243094 -158.918413 
L 517.458566 -158.918413 
L 515.674039 -158.918413 
L 513.889511 -158.918413 
L 512.104983 -158.918413 
L 510.320456 -158.918413 
L 508.535928 -158.918413 
L 506.7514 -158.918413 
L 504.966873 -158.918413 
L 503.182345 -158.918413 
L 501.397818 -158.918413 
L 499.61329 -158.918413 
L 497.828762 -158.918413 
L 496.044235 -158.918413 
L 494.259707 -158.918413 
L 492.475179 -158.918413 
L 490.690652 -158.918413 
L 488.906124 -158.918413 
L 487.121596 -158.918413 
L 485.337069 -158.918413 
L 483.552541 -158.918413 
L 481.768014 -158.918413 
L 479.983486 -158.918413 
L 478.198958 -158.918413 
L 476.414431 -158.918413 
L 474.629903 -158.918413 
L 472.845375 -158.918413 
L 471.060848 -158.918413 
L 469.27632 -158.918413 
L 467.491793 -158.918413 
L 465.707265 -158.918413 
L 463.922737 -158.918413 
L 462.13821 -158.918413 
L 460.353682 -158.918413 
L 458.569154 -158.918413 
L 456.784627 -158.918413 
L 455.000099 -158.918413 
L 453.215572 -158.918413 
L 451.431044 -158.918413 
L 449.646516 -158.918413 
L 447.861989 -158.918413 
L 446.077461 -158.918413 
L 444.292933 -158.918413 
L 442.508406 -158.918413 
L 440.723878 -158.918413 
L 438.93935 -158.918413 
L 437.154823 -158.918413 
L 435.370295 -158.918413 
L 433.585768 -158.918413 
L 431.80124 -158.918413 
L 430.016712 -158.918413 
L 428.232185 -158.918413 
L 426.447657 -158.918413 
L 424.663129 -158.918413 
L 422.878602 -158.918413 
L 421.094074 -158.918413 
L 419.309547 -158.918413 
L 417.525019 -158.918413 
L 415.740491 -158.918413 
L 413.955964 -158.918413 
L 412.171436 -158.918413 
L 410.386908 -158.918413 
L 408.602381 -158.918413 
L 406.817853 -158.918413 
L 405.033326 -158.918413 
L 403.248798 -158.918413 
L 401.46427 -158.918413 
L 399.679743 -158.918413 
L 397.895215 -158.918413 
L 396.110687 -158.918413 
L 394.32616 -158.918413 
L 392.541632 -158.918413 
L 390.757105 -158.918413 
L 388.972577 -158.918413 
L 387.188049 -158.918413 
L 385.403522 -158.918413 
L 383.618994 -158.918413 
L 381.834466 -158.918413 
L 380.049939 -158.918413 
L 378.265411 -158.918413 
L 376.480883 -158.918413 
L 374.696356 -158.918413 
L 372.911828 -158.918413 
L 371.127301 -158.918413 
L 369.342773 -158.918413 
L 367.558245 -158.918413 
L 365.773718 -158.918413 
L 363.98919 -158.918413 
L 362.204662 -158.918413 
L 360.420135 -158.918413 
L 358.635607 -158.918413 
L 356.85108 -158.918413 
L 355.066552 -158.918413 
L 353.282024 -158.918413 
L 351.497497 -158.918413 
L 349.712969 -158.918413 
L 347.928441 -158.918413 
L 346.143914 -158.918413 
L 344.359386 -158.918413 
L 342.574859 -158.918413 
L 340.790331 -158.918413 
L 339.005803 -158.918413 
L 337.221276 -158.918413 
L 335.436748 -158.918413 
L 333.65222 -158.918413 
L 331.867693 -158.918413 
L 330.083165 -158.918413 
L 328.298637 -158.918413 
L 326.51411 -158.918413 
L 324.729582 -158.918413 
L 322.945055 -158.918413 
L 321.160527 -158.918413 
L 319.375999 -158.918413 
L 317.591472 -158.918413 
L 315.806944 -158.918413 
L 314.022416 -158.918413 
L 312.237889 -158.918413 
L 310.453361 -158.918413 
L 308.668834 -158.918413 
L 306.884306 -158.918413 
L 305.099778 -158.918413 
L 303.315251 -158.918413 
L 301.530723 -158.918413 
L 299.746195 -158.918413 
L 297.961668 -158.918413 
L 296.17714 -158.918413 
L 294.392613 -158.918413 
L 292.608085 -158.918413 
L 290.823557 -158.918413 
L 289.03903 -158.918413 
L 287.254502 -158.918413 
L 285.469974 -158.918413 
L 283.685447 -158.918413 
L 281.900919 -158.918413 
L 280.116391 -158.918413 
L 278.331864 -158.918413 
L 276.547336 -158.918413 
L 274.762809 -158.918413 
L 272.978281 -158.918413 
L 271.193753 -158.918413 
L 269.409226 -158.918413 
L 267.624698 -158.918413 
L 265.84017 -158.918413 
L 264.055643 -158.918413 
L 262.271115 -158.918413 
L 260.486588 -158.918413 
L 258.70206 -158.918413 
L 256.917532 -158.918413 
L 255.133005 -158.918413 
L 253.348477 -158.918413 
L 251.563949 -158.918413 
L 249.779422 -158.918413 
L 247.994894 -158.918413 
L 246.210367 -158.918413 
L 244.425839 -158.918413 
L 242.641311 -158.918413 
L 240.856784 -158.918413 
L 239.072256 -158.918413 
L 237.287728 -158.918413 
L 235.503201 -158.918413 
L 233.718673 -158.918413 
L 231.934145 -158.918413 
L 230.149618 -158.918413 
L 228.36509 -158.918413 
L 226.580563 -158.918413 
L 224.796035 -158.918413 
L 223.011507 -158.918413 
L 221.22698 -158.918413 
L 219.442452 -158.918413 
L 217.657924 -158.918413 
L 215.873397 -158.918413 
L 214.088869 -158.918413 
L 212.304342 -158.918413 
L 210.519814 -158.918413 
L 208.735286 -158.918413 
L 206.950759 -158.918413 
L 205.166231 -158.918413 
L 203.381703 -158.918413 
L 201.597176 -158.918413 
L 199.812648 -158.918413 
L 198.028121 -158.918413 
L 196.243593 -158.918413 
L 194.459065 -158.918413 
L 192.674538 -158.918413 
L 190.89001 -158.918413 
L 189.105482 -158.918413 
L 187.320955 -158.918413 
L 185.536427 -158.918413 
L 183.7519 -158.918413 
L 181.967372 -158.918413 
L 180.182844 -158.918413 
L 178.398317 -158.918413 
L 176.613789 -158.918413 
L 174.829261 -158.918413 
L 173.044734 -158.918413 
L 171.260206 -158.918413 
L 169.475678 -158.918413 
L 167.691151 -158.918413 
L 165.906623 -158.918413 
L 164.122096 -158.918413 
L 162.337568 -158.918413 
L 160.55304 -158.918413 
L 158.768513 -158.918413 
L 156.983985 -158.918413 
L 155.199457 -158.918413 
L 153.41493 -158.918413 
L 151.630402 -158.918413 
L 149.845875 -158.918413 
L 148.061347 -158.918413 
L 146.276819 -158.918413 
L 144.492292 -158.918413 
L 142.707764 -158.918413 
L 140.923236 -158.918413 
L 139.138709 -158.918413 
L 137.354181 -158.918413 
L 135.569654 -158.918413 
L 133.785126 -158.918413 
L 132.000598 -158.918413 
L 130.216071 -158.918413 
L 128.431543 -158.918413 
L 126.647015 -158.918413 
L 124.862488 -158.918413 
L 123.07796 -158.918413 
L 121.293432 -158.918413 
L 119.508905 -158.918413 
L 117.724377 -158.918413 
L 115.93985 -158.918413 
L 114.155322 -158.918413 
L 112.370794 -158.918413 
L 110.586267 -158.918413 
L 108.801739 -158.918413 
L 107.017211 -158.918413 
L 105.232684 -158.918413 
L 103.448156 -158.918413 
L 101.663629 -158.918413 
L 99.879101 -158.918413 
L 98.094573 -158.918413 
L 96.310046 -158.918413 
L 94.525518 -158.918413 
L 92.74099 -158.918413 
L 90.956463 -158.918413 
L 89.171935 -158.918413 
L 87.387408 -158.918413 
L 85.60288 -158.918413 
L 83.818352 -158.918413 
z
" style="stroke: #ff0000; stroke-opacity: 0.1"/>
    </defs>
    <g clip-path="url(#p7d747ba780)">
     <use xlink:href="#mfe8367fd33" x="0" y="281.3825" style="fill: #ff0000; fill-opacity: 0.1; stroke: #ff0000; stroke-opacity: 0.1"/>
    </g>
   </g>
   <g id="matplotlib.axis_1">
    <g id="xtick_1">
     <g id="line2d_1">
      <path d="M 83.818352 230.276875 
L 83.818352 28.396875 
" clip-path="url(#p7d747ba780)" style="fill: none; stroke-dasharray: 0.8,1.32; stroke-dashoffset: 0; stroke: #b0b0b0; stroke-opacity: 0.6; stroke-width: 0.8"/>
     </g>
     <g id="line2d_2">
      <defs>
       <path id="mf528b1aadc" d="M 0 0 
L 0 3.5 
" style="stroke: #000000; stroke-width: 0.8"/>
      </defs>
      <g>
       <use xlink:href="#mf528b1aadc" x="83.818352" y="230.276875" style="stroke: #000000; stroke-width: 0.8"/>
      </g>
     </g>
     <g id="text_1">
      <!-- 0 -->
      <g transform="translate(78.728352 249.434375) scale(0.16 -0.16)">
       <defs>
        <path id="DejaVuSans-30" d="M 2034 4250 
Q 1547 4250 1301 3770 
Q 1056 3291 1056 2328 
Q 1056 1369 1301 889 
Q 1547 409 2034 409 
Q 2525 409 2770 889 
Q 3016 1369 3016 2328 
Q 3016 3291 2770 3770 
Q 2525 4250 2034 4250 
z
M 2034 4750 
Q 2819 4750 3233 4129 
Q 3647 3509 3647 2328 
Q 3647 1150 3233 529 
Q 2819 -91 2034 -91 
Q 1250 -91 836 529 
Q 422 1150 422 2328 
Q 422 3509 836 4129 
Q 1250 4750 2034 4750 
z
" transform="scale(0.015625)"/>
       </defs>
       <use xlink:href="#DejaVuSans-30"/>
      </g>
     </g>
    </g>
    <g id="xtick_2">
     <g id="line2d_3">
      <path d="M 173.044734 230.276875 
L 173.044734 28.396875 
" clip-path="url(#p7d747ba780)" style="fill: none; stroke-dasharray: 0.8,1.32; stroke-dashoffset: 0; stroke: #b0b0b0; stroke-opacity: 0.6; stroke-width: 0.8"/>
     </g>
     <g id="line2d_4">
      <g>
       <use xlink:href="#mf528b1aadc" x="173.044734" y="230.276875" style="stroke: #000000; stroke-width: 0.8"/>
      </g>
     </g>
     <g id="text_2">
      <!-- 50 -->
      <g transform="translate(162.864734 249.434375) scale(0.16 -0.16)">
       <defs>
        <path id="DejaVuSans-35" d="M 691 4666 
L 3169 4666 
L 3169 4134 
L 1269 4134 
L 1269 2991 
Q 1406 3038 1543 3061 
Q 1681 3084 1819 3084 
Q 2600 3084 3056 2656 
Q 3513 2228 3513 1497 
Q 3513 744 3044 326 
Q 2575 -91 1722 -91 
Q 1428 -91 1123 -41 
Q 819 9 494 109 
L 494 744 
Q 775 591 1075 516 
Q 1375 441 1709 441 
Q 2250 441 2565 725 
Q 2881 1009 2881 1497 
Q 2881 1984 2565 2268 
Q 2250 2553 1709 2553 
Q 1456 2553 1204 2497 
Q 953 2441 691 2322 
L 691 4666 
z
" transform="scale(0.015625)"/>
       </defs>
       <use xlink:href="#DejaVuSans-35"/>
       <use xlink:href="#DejaVuSans-30" transform="translate(63.623047 0)"/>
      </g>
     </g>
    </g>
    <g id="xtick_3">
     <g id="line2d_5">
      <path d="M 262.271115 230.276875 
L 262.271115 28.396875 
" clip-path="url(#p7d747ba780)" style="fill: none; stroke-dasharray: 0.8,1.32; stroke-dashoffset: 0; stroke: #b0b0b0; stroke-opacity: 0.6; stroke-width: 0.8"/>
     </g>
     <g id="line2d_6">
      <g>
       <use xlink:href="#mf528b1aadc" x="262.271115" y="230.276875" style="stroke: #000000; stroke-width: 0.8"/>
      </g>
     </g>
     <g id="text_3">
      <!-- 100 -->
      <g transform="translate(247.001115 249.434375) scale(0.16 -0.16)">
       <defs>
        <path id="DejaVuSans-31" d="M 794 531 
L 1825 531 
L 1825 4091 
L 703 3866 
L 703 4441 
L 1819 4666 
L 2450 4666 
L 2450 531 
L 3481 531 
L 3481 0 
L 794 0 
L 794 531 
z
" transform="scale(0.015625)"/>
       </defs>
       <use xlink:href="#DejaVuSans-31"/>
       <use xlink:href="#DejaVuSans-30" transform="translate(63.623047 0)"/>
       <use xlink:href="#DejaVuSans-30" transform="translate(127.246094 0)"/>
      </g>
     </g>
    </g>
    <g id="xtick_4">
     <g id="line2d_7">
      <path d="M 351.497497 230.276875 
L 351.497497 28.396875 
" clip-path="url(#p7d747ba780)" style="fill: none; stroke-dasharray: 0.8,1.32; stroke-dashoffset: 0; stroke: #b0b0b0; stroke-opacity: 0.6; stroke-width: 0.8"/>
     </g>
     <g id="line2d_8">
      <g>
       <use xlink:href="#mf528b1aadc" x="351.497497" y="230.276875" style="stroke: #000000; stroke-width: 0.8"/>
      </g>
     </g>
     <g id="text_4">
      <!-- 150 -->
      <g transform="translate(336.227497 249.434375) scale(0.16 -0.16)">
       <use xlink:href="#DejaVuSans-31"/>
       <use xlink:href="#DejaVuSans-35" transform="translate(63.623047 0)"/>
       <use xlink:href="#DejaVuSans-30" transform="translate(127.246094 0)"/>
      </g>
     </g>
    </g>
    <g id="xtick_5">
     <g id="line2d_9">
      <path d="M 440.723878 230.276875 
L 440.723878 28.396875 
" clip-path="url(#p7d747ba780)" style="fill: none; stroke-dasharray: 0.8,1.32; stroke-dashoffset: 0; stroke: #b0b0b0; stroke-opacity: 0.6; stroke-width: 0.8"/>
     </g>
     <g id="line2d_10">
      <g>
       <use xlink:href="#mf528b1aadc" x="440.723878" y="230.276875" style="stroke: #000000; stroke-width: 0.8"/>
      </g>
     </g>
     <g id="text_5">
      <!-- 200 -->
      <g transform="translate(425.453878 249.434375) scale(0.16 -0.16)">
       <defs>
        <path id="DejaVuSans-32" d="M 1228 531 
L 3431 531 
L 3431 0 
L 469 0 
L 469 531 
Q 828 903 1448 1529 
Q 2069 2156 2228 2338 
Q 2531 2678 2651 2914 
Q 2772 3150 2772 3378 
Q 2772 3750 2511 3984 
Q 2250 4219 1831 4219 
Q 1534 4219 1204 4116 
Q 875 4013 500 3803 
L 500 4441 
Q 881 4594 1212 4672 
Q 1544 4750 1819 4750 
Q 2544 4750 2975 4387 
Q 3406 4025 3406 3419 
Q 3406 3131 3298 2873 
Q 3191 2616 2906 2266 
Q 2828 2175 2409 1742 
Q 1991 1309 1228 531 
z
" transform="scale(0.015625)"/>
       </defs>
       <use xlink:href="#DejaVuSans-32"/>
       <use xlink:href="#DejaVuSans-30" transform="translate(63.623047 0)"/>
       <use xlink:href="#DejaVuSans-30" transform="translate(127.246094 0)"/>
      </g>
     </g>
    </g>
    <g id="xtick_6">
     <g id="line2d_11">
      <path d="M 529.95026 230.276875 
L 529.95026 28.396875 
" clip-path="url(#p7d747ba780)" style="fill: none; stroke-dasharray: 0.8,1.32; stroke-dashoffset: 0; stroke: #b0b0b0; stroke-opacity: 0.6; stroke-width: 0.8"/>
     </g>
     <g id="line2d_12">
      <g>
       <use xlink:href="#mf528b1aadc" x="529.95026" y="230.276875" style="stroke: #000000; stroke-width: 0.8"/>
      </g>
     </g>
     <g id="text_6">
      <!-- 250 -->
      <g transform="translate(514.68026 249.434375) scale(0.16 -0.16)">
       <use xlink:href="#DejaVuSans-32"/>
       <use xlink:href="#DejaVuSans-35" transform="translate(63.623047 0)"/>
       <use xlink:href="#DejaVuSans-30" transform="translate(127.246094 0)"/>
      </g>
     </g>
    </g>
    <g id="text_7">
     <!-- Time Steps -->
     <g transform="translate(261.283125 270.439062) scale(0.18 -0.18)">
      <defs>
       <path id="DejaVuSans-54" d="M -19 4666 
L 3928 4666 
L 3928 4134 
L 2272 4134 
L 2272 0 
L 1638 0 
L 1638 4134 
L -19 4134 
L -19 4666 
z
" transform="scale(0.015625)"/>
       <path id="DejaVuSans-69" d="M 603 3500 
L 1178 3500 
L 1178 0 
L 603 0 
L 603 3500 
z
M 603 4863 
L 1178 4863 
L 1178 4134 
L 603 4134 
L 603 4863 
z
" transform="scale(0.015625)"/>
       <path id="DejaVuSans-6d" d="M 3328 2828 
Q 3544 3216 3844 3400 
Q 4144 3584 4550 3584 
Q 5097 3584 5394 3201 
Q 5691 2819 5691 2113 
L 5691 0 
L 5113 0 
L 5113 2094 
Q 5113 2597 4934 2840 
Q 4756 3084 4391 3084 
Q 3944 3084 3684 2787 
Q 3425 2491 3425 1978 
L 3425 0 
L 2847 0 
L 2847 2094 
Q 2847 2600 2669 2842 
Q 2491 3084 2119 3084 
Q 1678 3084 1418 2786 
Q 1159 2488 1159 1978 
L 1159 0 
L 581 0 
L 581 3500 
L 1159 3500 
L 1159 2956 
Q 1356 3278 1631 3431 
Q 1906 3584 2284 3584 
Q 2666 3584 2933 3390 
Q 3200 3197 3328 2828 
z
" transform="scale(0.015625)"/>
       <path id="DejaVuSans-65" d="M 3597 1894 
L 3597 1613 
L 953 1613 
Q 991 1019 1311 708 
Q 1631 397 2203 397 
Q 2534 397 2845 478 
Q 3156 559 3463 722 
L 3463 178 
Q 3153 47 2828 -22 
Q 2503 -91 2169 -91 
Q 1331 -91 842 396 
Q 353 884 353 1716 
Q 353 2575 817 3079 
Q 1281 3584 2069 3584 
Q 2775 3584 3186 3129 
Q 3597 2675 3597 1894 
z
M 3022 2063 
Q 3016 2534 2758 2815 
Q 2500 3097 2075 3097 
Q 1594 3097 1305 2825 
Q 1016 2553 972 2059 
L 3022 2063 
z
" transform="scale(0.015625)"/>
       <path id="DejaVuSans-20" transform="scale(0.015625)"/>
       <path id="DejaVuSans-53" d="M 3425 4513 
L 3425 3897 
Q 3066 4069 2747 4153 
Q 2428 4238 2131 4238 
Q 1616 4238 1336 4038 
Q 1056 3838 1056 3469 
Q 1056 3159 1242 3001 
Q 1428 2844 1947 2747 
L 2328 2669 
Q 3034 2534 3370 2195 
Q 3706 1856 3706 1288 
Q 3706 609 3251 259 
Q 2797 -91 1919 -91 
Q 1588 -91 1214 -16 
Q 841 59 441 206 
L 441 856 
Q 825 641 1194 531 
Q 1563 422 1919 422 
Q 2459 422 2753 634 
Q 3047 847 3047 1241 
Q 3047 1584 2836 1778 
Q 2625 1972 2144 2069 
L 1759 2144 
Q 1053 2284 737 2584 
Q 422 2884 422 3419 
Q 422 4038 858 4394 
Q 1294 4750 2059 4750 
Q 2388 4750 2728 4690 
Q 3069 4631 3425 4513 
z
" transform="scale(0.015625)"/>
       <path id="DejaVuSans-74" d="M 1172 4494 
L 1172 3500 
L 2356 3500 
L 2356 3053 
L 1172 3053 
L 1172 1153 
Q 1172 725 1289 603 
Q 1406 481 1766 481 
L 2356 481 
L 2356 0 
L 1766 0 
Q 1100 0 847 248 
Q 594 497 594 1153 
L 594 3053 
L 172 3053 
L 172 3500 
L 594 3500 
L 594 4494 
L 1172 4494 
z
" transform="scale(0.015625)"/>
       <path id="DejaVuSans-70" d="M 1159 525 
L 1159 -1331 
L 581 -1331 
L 581 3500 
L 1159 3500 
L 1159 2969 
Q 1341 3281 1617 3432 
Q 1894 3584 2278 3584 
Q 2916 3584 3314 3078 
Q 3713 2572 3713 1747 
Q 3713 922 3314 415 
Q 2916 -91 2278 -91 
Q 1894 -91 1617 61 
Q 1341 213 1159 525 
z
M 3116 1747 
Q 3116 2381 2855 2742 
Q 2594 3103 2138 3103 
Q 1681 3103 1420 2742 
Q 1159 2381 1159 1747 
Q 1159 1113 1420 752 
Q 1681 391 2138 391 
Q 2594 391 2855 752 
Q 3116 1113 3116 1747 
z
" transform="scale(0.015625)"/>
       <path id="DejaVuSans-73" d="M 2834 3397 
L 2834 2853 
Q 2591 2978 2328 3040 
Q 2066 3103 1784 3103 
Q 1356 3103 1142 2972 
Q 928 2841 928 2578 
Q 928 2378 1081 2264 
Q 1234 2150 1697 2047 
L 1894 2003 
Q 2506 1872 2764 1633 
Q 3022 1394 3022 966 
Q 3022 478 2636 193 
Q 2250 -91 1575 -91 
Q 1294 -91 989 -36 
Q 684 19 347 128 
L 347 722 
Q 666 556 975 473 
Q 1284 391 1588 391 
Q 1994 391 2212 530 
Q 2431 669 2431 922 
Q 2431 1156 2273 1281 
Q 2116 1406 1581 1522 
L 1381 1569 
Q 847 1681 609 1914 
Q 372 2147 372 2553 
Q 372 3047 722 3315 
Q 1072 3584 1716 3584 
Q 2034 3584 2315 3537 
Q 2597 3491 2834 3397 
z
" transform="scale(0.015625)"/>
      </defs>
      <use xlink:href="#DejaVuSans-54"/>
      <use xlink:href="#DejaVuSans-69" transform="translate(57.958984 0)"/>
      <use xlink:href="#DejaVuSans-6d" transform="translate(85.742188 0)"/>
      <use xlink:href="#DejaVuSans-65" transform="translate(183.154297 0)"/>
      <use xlink:href="#DejaVuSans-20" transform="translate(244.677734 0)"/>
      <use xlink:href="#DejaVuSans-53" transform="translate(276.464844 0)"/>
      <use xlink:href="#DejaVuSans-74" transform="translate(339.941406 0)"/>
      <use xlink:href="#DejaVuSans-65" transform="translate(379.150391 0)"/>
      <use xlink:href="#DejaVuSans-70" transform="translate(440.673828 0)"/>
      <use xlink:href="#DejaVuSans-73" transform="translate(504.150391 0)"/>
     </g>
    </g>
   </g>
   <g id="matplotlib.axis_2">
    <g id="ytick_1">
     <g id="line2d_13">
      <path d="M 61.065625 221.100511 
L 561.625625 221.100511 
" clip-path="url(#p7d747ba780)" style="fill: none; stroke-dasharray: 0.8,1.32; stroke-dashoffset: 0; stroke: #b0b0b0; stroke-opacity: 0.6; stroke-width: 0.8"/>
     </g>
     <g id="line2d_14">
      <defs>
       <path id="mb710faeeae" d="M 0 0 
L -3.5 0 
" style="stroke: #000000; stroke-width: 0.8"/>
      </defs>
      <g>
       <use xlink:href="#mb710faeeae" x="61.065625" y="221.100511" style="stroke: #000000; stroke-width: 0.8"/>
      </g>
     </g>
     <g id="text_8">
      <!-- 0.0 -->
      <g transform="translate(28.620625 227.179261) scale(0.16 -0.16)">
       <defs>
        <path id="DejaVuSans-2e" d="M 684 794 
L 1344 794 
L 1344 0 
L 684 0 
L 684 794 
z
" transform="scale(0.015625)"/>
       </defs>
       <use xlink:href="#DejaVuSans-30"/>
       <use xlink:href="#DejaVuSans-2e" transform="translate(63.623047 0)"/>
       <use xlink:href="#DejaVuSans-30" transform="translate(95.410156 0)"/>
      </g>
     </g>
    </g>
    <g id="ytick_2">
     <g id="line2d_15">
      <path d="M 61.065625 181.511673 
L 561.625625 181.511673 
" clip-path="url(#p7d747ba780)" style="fill: none; stroke-dasharray: 0.8,1.32; stroke-dashoffset: 0; stroke: #b0b0b0; stroke-opacity: 0.6; stroke-width: 0.8"/>
     </g>
     <g id="line2d_16">
      <g>
       <use xlink:href="#mb710faeeae" x="61.065625" y="181.511673" style="stroke: #000000; stroke-width: 0.8"/>
      </g>
     </g>
     <g id="text_9">
      <!-- 0.1 -->
      <g transform="translate(28.620625 187.590423) scale(0.16 -0.16)">
       <use xlink:href="#DejaVuSans-30"/>
       <use xlink:href="#DejaVuSans-2e" transform="translate(63.623047 0)"/>
       <use xlink:href="#DejaVuSans-31" transform="translate(95.410156 0)"/>
      </g>
     </g>
    </g>
    <g id="ytick_3">
     <g id="line2d_17">
      <path d="M 61.065625 141.922836 
L 561.625625 141.922836 
" clip-path="url(#p7d747ba780)" style="fill: none; stroke-dasharray: 0.8,1.32; stroke-dashoffset: 0; stroke: #b0b0b0; stroke-opacity: 0.6; stroke-width: 0.8"/>
     </g>
     <g id="line2d_18">
      <g>
       <use xlink:href="#mb710faeeae" x="61.065625" y="141.922836" style="stroke: #000000; stroke-width: 0.8"/>
      </g>
     </g>
     <g id="text_10">
      <!-- 0.2 -->
      <g transform="translate(28.620625 148.001586) scale(0.16 -0.16)">
       <use xlink:href="#DejaVuSans-30"/>
       <use xlink:href="#DejaVuSans-2e" transform="translate(63.623047 0)"/>
       <use xlink:href="#DejaVuSans-32" transform="translate(95.410156 0)"/>
      </g>
     </g>
    </g>
    <g id="ytick_4">
     <g id="line2d_19">
      <path d="M 61.065625 102.333998 
L 561.625625 102.333998 
" clip-path="url(#p7d747ba780)" style="fill: none; stroke-dasharray: 0.8,1.32; stroke-dashoffset: 0; stroke: #b0b0b0; stroke-opacity: 0.6; stroke-width: 0.8"/>
     </g>
     <g id="line2d_20">
      <g>
       <use xlink:href="#mb710faeeae" x="61.065625" y="102.333998" style="stroke: #000000; stroke-width: 0.8"/>
      </g>
     </g>
     <g id="text_11">
      <!-- 0.3 -->
      <g transform="translate(28.620625 108.412748) scale(0.16 -0.16)">
       <defs>
        <path id="DejaVuSans-33" d="M 2597 2516 
Q 3050 2419 3304 2112 
Q 3559 1806 3559 1356 
Q 3559 666 3084 287 
Q 2609 -91 1734 -91 
Q 1441 -91 1130 -33 
Q 819 25 488 141 
L 488 750 
Q 750 597 1062 519 
Q 1375 441 1716 441 
Q 2309 441 2620 675 
Q 2931 909 2931 1356 
Q 2931 1769 2642 2001 
Q 2353 2234 1838 2234 
L 1294 2234 
L 1294 2753 
L 1863 2753 
Q 2328 2753 2575 2939 
Q 2822 3125 2822 3475 
Q 2822 3834 2567 4026 
Q 2313 4219 1838 4219 
Q 1578 4219 1281 4162 
Q 984 4106 628 3988 
L 628 4550 
Q 988 4650 1302 4700 
Q 1616 4750 1894 4750 
Q 2613 4750 3031 4423 
Q 3450 4097 3450 3541 
Q 3450 3153 3228 2886 
Q 3006 2619 2597 2516 
z
" transform="scale(0.015625)"/>
       </defs>
       <use xlink:href="#DejaVuSans-30"/>
       <use xlink:href="#DejaVuSans-2e" transform="translate(63.623047 0)"/>
       <use xlink:href="#DejaVuSans-33" transform="translate(95.410156 0)"/>
      </g>
     </g>
    </g>
    <g id="ytick_5">
     <g id="line2d_21">
      <path d="M 61.065625 62.74516 
L 561.625625 62.74516 
" clip-path="url(#p7d747ba780)" style="fill: none; stroke-dasharray: 0.8,1.32; stroke-dashoffset: 0; stroke: #b0b0b0; stroke-opacity: 0.6; stroke-width: 0.8"/>
     </g>
     <g id="line2d_22">
      <g>
       <use xlink:href="#mb710faeeae" x="61.065625" y="62.74516" style="stroke: #000000; stroke-width: 0.8"/>
      </g>
     </g>
     <g id="text_12">
      <!-- 0.4 -->
      <g transform="translate(28.620625 68.82391) scale(0.16 -0.16)">
       <defs>
        <path id="DejaVuSans-34" d="M 2419 4116 
L 825 1625 
L 2419 1625 
L 2419 4116 
z
M 2253 4666 
L 3047 4666 
L 3047 1625 
L 3713 1625 
L 3713 1100 
L 3047 1100 
L 3047 0 
L 2419 0 
L 2419 1100 
L 313 1100 
L 313 1709 
L 2253 4666 
z
" transform="scale(0.015625)"/>
       </defs>
       <use xlink:href="#DejaVuSans-30"/>
       <use xlink:href="#DejaVuSans-2e" transform="translate(63.623047 0)"/>
       <use xlink:href="#DejaVuSans-34" transform="translate(95.410156 0)"/>
      </g>
     </g>
    </g>
    <g id="text_13">
     <!-- Feature Magnitude -->
     <g transform="translate(20.877188 213.880625) rotate(-90) scale(0.18 -0.18)">
      <defs>
       <path id="DejaVuSans-46" d="M 628 4666 
L 3309 4666 
L 3309 4134 
L 1259 4134 
L 1259 2759 
L 3109 2759 
L 3109 2228 
L 1259 2228 
L 1259 0 
L 628 0 
L 628 4666 
z
" transform="scale(0.015625)"/>
       <path id="DejaVuSans-61" d="M 2194 1759 
Q 1497 1759 1228 1600 
Q 959 1441 959 1056 
Q 959 750 1161 570 
Q 1363 391 1709 391 
Q 2188 391 2477 730 
Q 2766 1069 2766 1631 
L 2766 1759 
L 2194 1759 
z
M 3341 1997 
L 3341 0 
L 2766 0 
L 2766 531 
Q 2569 213 2275 61 
Q 1981 -91 1556 -91 
Q 1019 -91 701 211 
Q 384 513 384 1019 
Q 384 1609 779 1909 
Q 1175 2209 1959 2209 
L 2766 2209 
L 2766 2266 
Q 2766 2663 2505 2880 
Q 2244 3097 1772 3097 
Q 1472 3097 1187 3025 
Q 903 2953 641 2809 
L 641 3341 
Q 956 3463 1253 3523 
Q 1550 3584 1831 3584 
Q 2591 3584 2966 3190 
Q 3341 2797 3341 1997 
z
" transform="scale(0.015625)"/>
       <path id="DejaVuSans-75" d="M 544 1381 
L 544 3500 
L 1119 3500 
L 1119 1403 
Q 1119 906 1312 657 
Q 1506 409 1894 409 
Q 2359 409 2629 706 
Q 2900 1003 2900 1516 
L 2900 3500 
L 3475 3500 
L 3475 0 
L 2900 0 
L 2900 538 
Q 2691 219 2414 64 
Q 2138 -91 1772 -91 
Q 1169 -91 856 284 
Q 544 659 544 1381 
z
M 1991 3584 
L 1991 3584 
z
" transform="scale(0.015625)"/>
       <path id="DejaVuSans-72" d="M 2631 2963 
Q 2534 3019 2420 3045 
Q 2306 3072 2169 3072 
Q 1681 3072 1420 2755 
Q 1159 2438 1159 1844 
L 1159 0 
L 581 0 
L 581 3500 
L 1159 3500 
L 1159 2956 
Q 1341 3275 1631 3429 
Q 1922 3584 2338 3584 
Q 2397 3584 2469 3576 
Q 2541 3569 2628 3553 
L 2631 2963 
z
" transform="scale(0.015625)"/>
       <path id="DejaVuSans-4d" d="M 628 4666 
L 1569 4666 
L 2759 1491 
L 3956 4666 
L 4897 4666 
L 4897 0 
L 4281 0 
L 4281 4097 
L 3078 897 
L 2444 897 
L 1241 4097 
L 1241 0 
L 628 0 
L 628 4666 
z
" transform="scale(0.015625)"/>
       <path id="DejaVuSans-67" d="M 2906 1791 
Q 2906 2416 2648 2759 
Q 2391 3103 1925 3103 
Q 1463 3103 1205 2759 
Q 947 2416 947 1791 
Q 947 1169 1205 825 
Q 1463 481 1925 481 
Q 2391 481 2648 825 
Q 2906 1169 2906 1791 
z
M 3481 434 
Q 3481 -459 3084 -895 
Q 2688 -1331 1869 -1331 
Q 1566 -1331 1297 -1286 
Q 1028 -1241 775 -1147 
L 775 -588 
Q 1028 -725 1275 -790 
Q 1522 -856 1778 -856 
Q 2344 -856 2625 -561 
Q 2906 -266 2906 331 
L 2906 616 
Q 2728 306 2450 153 
Q 2172 0 1784 0 
Q 1141 0 747 490 
Q 353 981 353 1791 
Q 353 2603 747 3093 
Q 1141 3584 1784 3584 
Q 2172 3584 2450 3431 
Q 2728 3278 2906 2969 
L 2906 3500 
L 3481 3500 
L 3481 434 
z
" transform="scale(0.015625)"/>
       <path id="DejaVuSans-6e" d="M 3513 2113 
L 3513 0 
L 2938 0 
L 2938 2094 
Q 2938 2591 2744 2837 
Q 2550 3084 2163 3084 
Q 1697 3084 1428 2787 
Q 1159 2491 1159 1978 
L 1159 0 
L 581 0 
L 581 3500 
L 1159 3500 
L 1159 2956 
Q 1366 3272 1645 3428 
Q 1925 3584 2291 3584 
Q 2894 3584 3203 3211 
Q 3513 2838 3513 2113 
z
" transform="scale(0.015625)"/>
       <path id="DejaVuSans-64" d="M 2906 2969 
L 2906 4863 
L 3481 4863 
L 3481 0 
L 2906 0 
L 2906 525 
Q 2725 213 2448 61 
Q 2172 -91 1784 -91 
Q 1150 -91 751 415 
Q 353 922 353 1747 
Q 353 2572 751 3078 
Q 1150 3584 1784 3584 
Q 2172 3584 2448 3432 
Q 2725 3281 2906 2969 
z
M 947 1747 
Q 947 1113 1208 752 
Q 1469 391 1925 391 
Q 2381 391 2643 752 
Q 2906 1113 2906 1747 
Q 2906 2381 2643 2742 
Q 2381 3103 1925 3103 
Q 1469 3103 1208 2742 
Q 947 2381 947 1747 
z
" transform="scale(0.015625)"/>
      </defs>
      <use xlink:href="#DejaVuSans-46"/>
      <use xlink:href="#DejaVuSans-65" transform="translate(52.019531 0)"/>
      <use xlink:href="#DejaVuSans-61" transform="translate(113.542969 0)"/>
      <use xlink:href="#DejaVuSans-74" transform="translate(174.822266 0)"/>
      <use xlink:href="#DejaVuSans-75" transform="translate(214.03125 0)"/>
      <use xlink:href="#DejaVuSans-72" transform="translate(277.410156 0)"/>
      <use xlink:href="#DejaVuSans-65" transform="translate(316.273438 0)"/>
      <use xlink:href="#DejaVuSans-20" transform="translate(377.796875 0)"/>
      <use xlink:href="#DejaVuSans-4d" transform="translate(409.583984 0)"/>
      <use xlink:href="#DejaVuSans-61" transform="translate(495.863281 0)"/>
      <use xlink:href="#DejaVuSans-67" transform="translate(557.142578 0)"/>
      <use xlink:href="#DejaVuSans-6e" transform="translate(620.619141 0)"/>
      <use xlink:href="#DejaVuSans-69" transform="translate(683.998047 0)"/>
      <use xlink:href="#DejaVuSans-74" transform="translate(711.78125 0)"/>
      <use xlink:href="#DejaVuSans-75" transform="translate(750.990234 0)"/>
      <use xlink:href="#DejaVuSans-64" transform="translate(814.369141 0)"/>
      <use xlink:href="#DejaVuSans-65" transform="translate(877.845703 0)"/>
     </g>
    </g>
   </g>
   <g id="line2d_23">
    <path d="M 83.818352 79.514603 
L 85.60288 106.474344 
L 87.387408 119.470522 
L 90.956463 67.118008 
L 92.74099 81.783611 
L 94.525518 97.673321 
L 96.310046 93.050758 
L 98.094573 81.907647 
L 99.879101 71.969011 
L 101.663629 68.172076 
L 103.448156 72.063292 
L 105.232684 79.650367 
L 107.017211 75.235692 
L 108.801739 71.585186 
L 110.586267 78.70974 
L 114.155322 86.673891 
L 115.93985 89.138104 
L 117.724377 94.876288 
L 119.508905 98.159486 
L 121.293432 94.906409 
L 123.07796 98.491516 
L 124.862488 99.212162 
L 126.647015 97.019124 
L 128.431543 94.02573 
L 130.216071 87.867075 
L 132.000598 80.592162 
L 133.785126 77.061493 
L 135.569654 83.515615 
L 137.354181 84.981483 
L 139.138709 79.29605 
L 140.923236 70.184009 
L 142.707764 66.625378 
L 144.492292 75.130344 
L 146.276819 91.081818 
L 148.061347 101.978271 
L 149.845875 103.56256 
L 153.41493 90.616183 
L 156.983985 103.558772 
L 158.768513 107.103753 
L 160.55304 99.65794 
L 162.337568 87.358588 
L 164.122096 83.967305 
L 165.906623 89.4995 
L 167.691151 93.071759 
L 169.475678 99.951473 
L 171.260206 98.086996 
L 173.044734 92.359372 
L 174.829261 90.150736 
L 178.398317 98.721231 
L 180.182844 96.842053 
L 181.967372 90.220512 
L 183.7519 82.522226 
L 185.536427 82.294163 
L 187.320955 86.54779 
L 189.105482 95.38481 
L 190.89001 100.569248 
L 192.674538 99.463066 
L 194.459065 92.174125 
L 196.243593 87.582132 
L 198.028121 89.504361 
L 199.812648 99.047645 
L 201.597176 102.557974 
L 203.381703 99.783428 
L 205.166231 90.186898 
L 206.950759 84.170249 
L 208.735286 82.743257 
L 210.519814 91.408315 
L 212.304342 98.353003 
L 214.088869 102.322643 
L 215.873397 110.496935 
L 217.657924 112.180436 
L 219.442452 115.307943 
L 221.22698 123.404767 
L 223.011507 127.038235 
L 224.796035 123.948856 
L 226.580563 115.816206 
L 228.36509 109.731633 
L 230.149618 108.488047 
L 231.934145 101.60497 
L 233.718673 96.419624 
L 235.503201 84.706981 
L 237.287728 70.990146 
L 239.072256 59.336732 
L 240.856784 60.687589 
L 242.641311 67.025556 
L 244.425839 74.766481 
L 246.210367 70.844648 
L 247.994894 68.339802 
L 249.779422 67.244781 
L 251.563949 70.984235 
L 255.133005 89.594666 
L 256.917532 91.39785 
L 258.70206 88.199565 
L 260.486588 84.036137 
L 262.271115 86.982478 
L 264.055643 91.393154 
L 265.84017 95.080247 
L 267.624698 97.212452 
L 269.409226 88.667808 
L 271.193753 84.59105 
L 272.978281 86.219441 
L 274.762809 95.589512 
L 276.547336 99.788018 
L 278.331864 94.080026 
L 280.116391 85.965327 
L 281.900919 82.572817 
L 285.469974 98.122498 
L 287.254502 98.157527 
L 289.03903 98.624578 
L 290.823557 92.408996 
L 292.608085 84.041458 
L 294.392613 82.622146 
L 296.17714 85.59671 
L 297.961668 86.34592 
L 299.746195 77.140872 
L 301.530723 72.336685 
L 303.315251 72.503856 
L 305.099778 77.520509 
L 306.884306 79.169488 
L 308.668834 80.488254 
L 310.453361 75.800587 
L 312.237889 70.22699 
L 314.022416 63.497045 
L 317.591472 72.208448 
L 319.375999 75.667595 
L 321.160527 64.626317 
L 322.945055 55.141954 
L 324.729582 52.631917 
L 326.51411 59.81728 
L 328.298637 69.754901 
L 330.083165 70.739713 
L 331.867693 64.806632 
L 333.65222 62.144855 
L 335.436748 61.733846 
L 337.221276 67.077563 
L 339.005803 76.180165 
L 340.790331 79.882477 
L 342.574859 81.5263 
L 344.359386 68.564833 
L 346.143914 58.120813 
L 347.928441 53.199845 
L 349.712969 53.919983 
L 351.497497 59.644375 
L 353.282024 59.187482 
L 355.066552 54.465246 
L 356.85108 53.603774 
L 358.635607 57.915379 
L 360.420135 70.451219 
L 362.204662 81.435653 
L 363.98919 85.335836 
L 365.773718 81.831984 
L 367.558245 75.932257 
L 369.342773 75.804551 
L 371.127301 77.980694 
L 372.911828 76.074935 
L 374.696356 71.108979 
L 376.480883 70.523779 
L 378.265411 71.251669 
L 380.049939 77.340537 
L 381.834466 87.123103 
L 383.618994 88.106075 
L 385.403522 86.643581 
L 387.188049 83.478297 
L 388.972577 81.060452 
L 390.757105 83.313579 
L 392.541632 84.79062 
L 394.32616 84.378915 
L 396.110687 79.714739 
L 397.895215 73.365859 
L 399.679743 74.459168 
L 401.46427 81.86817 
L 403.248798 85.972182 
L 405.033326 87.033601 
L 406.817853 82.147403 
L 408.602381 72.401989 
L 410.386908 73.786448 
L 412.171436 77.554394 
L 413.955964 82.589618 
L 415.740491 89.404689 
L 417.525019 83.484432 
L 419.309547 73.921516 
L 421.094074 65.545011 
L 422.878602 66.26496 
L 424.663129 75.560006 
L 426.447657 77.43982 
L 428.232185 70.710052 
L 430.016712 59.018635 
L 431.80124 52.909769 
L 433.585768 59.187505 
L 435.370295 68.458989 
L 437.154823 72.030929 
L 438.93935 64.315571 
L 440.723878 55.243786 
L 442.508406 54.568812 
L 444.292933 60.938717 
L 446.077461 66.794201 
L 447.861989 68.025752 
L 449.646516 66.836168 
L 451.431044 65.927066 
L 453.215572 59.918581 
L 455.000099 57.225586 
L 456.784627 62.279369 
L 458.569154 70.434147 
L 460.353682 74.857706 
L 462.13821 72.19068 
L 463.922737 65.248906 
L 465.707265 65.297917 
L 467.491793 70.665737 
L 469.27632 78.203731 
L 471.060848 84.705188 
L 472.845375 84.462448 
L 474.629903 80.040233 
L 476.414431 80.956426 
L 478.198958 85.396019 
L 479.983486 89.256878 
L 481.768014 84.674087 
L 483.552541 71.592973 
L 485.337069 67.511024 
L 487.121596 70.8257 
L 488.906124 79.443282 
L 490.690652 80.079003 
L 492.475179 73.793409 
L 494.259707 62.765911 
L 496.044235 57.634282 
L 497.828762 67.609411 
L 499.61329 82.162564 
L 501.397818 87.259481 
L 503.182345 78.301799 
L 504.966873 63.324116 
L 506.7514 53.616434 
L 508.535928 59.206241 
L 510.320456 70.502223 
L 512.104983 80.770506 
L 513.889511 79.448697 
L 515.674039 70.754579 
L 517.458566 65.811666 
L 519.243094 64.967975 
L 521.027621 68.98462 
L 522.812149 75.973811 
L 524.596677 77.58271 
L 526.381204 80.24011 
L 528.165732 78.047331 
L 529.95026 66.53381 
L 531.734787 48.922868 
L 533.519315 47.506129 
L 535.303842 37.573239 
L 537.08837 40.465721 
L 538.872898 50.878393 
L 538.872898 50.878393 
" clip-path="url(#p7d747ba780)" style="fill: none; stroke: #d3d3d3; stroke-width: 2; stroke-linecap: square"/>
   </g>
   <g id="line2d_24">
    <path d="M 61.065625 122.464087 
L 561.625625 122.464087 
" clip-path="url(#p7d747ba780)" style="fill: none; stroke-dasharray: 5.55,2.4; stroke-dashoffset: 0; stroke: #ff0000; stroke-width: 1.5"/>
   </g>
   <g id="line2d_25">
    <path d="M 83.818352 178.151027 
L 85.60288 205.110769 
L 87.387408 218.106946 
L 90.956463 165.754432 
L 92.74099 180.420035 
L 94.525518 196.309745 
L 96.310046 191.687182 
L 98.094573 180.544072 
L 99.879101 170.605436 
L 101.663629 166.808501 
L 103.448156 170.699717 
L 105.232684 178.286792 
L 107.017211 173.872116 
L 108.801739 170.221611 
L 110.586267 177.346165 
L 114.155322 185.310316 
L 115.93985 187.774528 
L 117.724377 193.512712 
L 119.508905 196.79591 
L 121.293432 193.542834 
L 123.07796 197.12794 
L 124.862488 197.848586 
L 126.647015 195.655548 
L 128.431543 192.662154 
L 130.216071 186.503499 
L 132.000598 179.228586 
L 133.785126 175.697917 
L 135.569654 182.15204 
L 137.354181 183.617907 
L 139.138709 177.932474 
L 140.923236 168.820433 
L 142.707764 165.261802 
L 144.492292 173.766768 
L 146.276819 189.718243 
L 148.061347 200.614696 
L 149.845875 202.198984 
L 153.41493 189.252607 
L 156.983985 202.195197 
L 158.768513 205.740177 
L 160.55304 198.294365 
L 162.337568 185.995012 
L 164.122096 182.603729 
L 165.906623 188.135925 
L 167.691151 191.708183 
L 169.475678 198.587897 
L 171.260206 196.723421 
L 173.044734 190.995796 
L 174.829261 188.787161 
L 178.398317 197.357655 
L 180.182844 195.478478 
L 181.967372 188.856937 
L 183.7519 181.15865 
L 185.536427 180.930587 
L 187.320955 185.184215 
L 189.105482 194.021235 
L 190.89001 199.205673 
L 192.674538 198.099491 
L 194.459065 190.81055 
L 196.243593 186.218556 
L 198.028121 188.140786 
L 199.812648 197.68407 
L 201.597176 201.194398 
L 203.381703 198.419853 
L 205.166231 188.823323 
L 206.950759 182.806673 
L 208.735286 181.379681 
L 210.519814 190.04474 
L 212.304342 196.989427 
L 214.088869 200.959067 
L 215.873397 209.13336 
L 217.657924 210.816861 
L 219.442452 213.944367 
L 221.22698 221.100511 
L 224.796035 221.100511 
L 226.580563 214.45263 
L 228.36509 208.368057 
L 230.149618 207.124471 
L 231.934145 200.241395 
L 233.718673 195.056048 
L 235.503201 183.343406 
L 237.287728 169.62657 
L 239.072256 157.973156 
L 240.856784 159.324013 
L 242.641311 165.66198 
L 244.425839 173.402906 
L 246.210367 169.481073 
L 247.994894 166.976227 
L 249.779422 165.881206 
L 251.563949 169.620659 
L 255.133005 188.231091 
L 256.917532 190.034275 
L 258.70206 186.83599 
L 260.486588 182.672561 
L 262.271115 185.618903 
L 264.055643 190.029579 
L 265.84017 193.716671 
L 267.624698 195.848877 
L 269.409226 187.304233 
L 271.193753 183.227475 
L 272.978281 184.855865 
L 274.762809 194.225937 
L 276.547336 198.424442 
L 278.331864 192.71645 
L 280.116391 184.601752 
L 281.900919 181.209242 
L 285.469974 196.758922 
L 287.254502 196.793952 
L 289.03903 197.261003 
L 290.823557 191.04542 
L 292.608085 182.677882 
L 294.392613 181.258571 
L 296.17714 184.233134 
L 297.961668 184.982344 
L 299.746195 175.777297 
L 301.530723 170.973109 
L 303.315251 171.140281 
L 305.099778 176.156934 
L 306.884306 177.805913 
L 308.668834 179.124678 
L 310.453361 174.437011 
L 312.237889 168.863415 
L 314.022416 162.13347 
L 317.591472 170.844873 
L 319.375999 174.30402 
L 321.160527 163.262741 
L 322.945055 153.778379 
L 324.729582 151.268342 
L 326.51411 158.453705 
L 328.298637 168.391326 
L 330.083165 169.376138 
L 331.867693 163.443056 
L 333.65222 160.78128 
L 335.436748 160.370271 
L 337.221276 165.713987 
L 339.005803 174.816589 
L 340.790331 178.518901 
L 342.574859 180.162724 
L 344.359386 167.201257 
L 346.143914 156.757237 
L 347.928441 151.836269 
L 349.712969 152.556408 
L 351.497497 158.280799 
L 353.282024 157.823906 
L 355.066552 153.10167 
L 356.85108 152.240199 
L 358.635607 156.551804 
L 360.420135 169.087643 
L 362.204662 180.072077 
L 363.98919 183.97226 
L 365.773718 180.468409 
L 367.558245 174.568681 
L 369.342773 174.440976 
L 371.127301 176.617118 
L 372.911828 174.711359 
L 374.696356 169.745404 
L 376.480883 169.160204 
L 378.265411 169.888094 
L 380.049939 175.976961 
L 381.834466 185.759528 
L 383.618994 186.742499 
L 385.403522 185.280006 
L 387.188049 182.114721 
L 388.972577 179.696877 
L 390.757105 181.950004 
L 392.541632 183.427045 
L 394.32616 183.01534 
L 396.110687 178.351164 
L 397.895215 172.002283 
L 399.679743 173.095593 
L 401.46427 180.504595 
L 403.248798 184.608607 
L 405.033326 185.670025 
L 406.817853 180.783827 
L 408.602381 171.038413 
L 410.386908 172.422872 
L 412.171436 176.190819 
L 413.955964 181.226043 
L 415.740491 188.041113 
L 417.525019 182.120856 
L 419.309547 172.55794 
L 421.094074 164.181435 
L 422.878602 164.901385 
L 424.663129 174.19643 
L 426.447657 176.076245 
L 428.232185 169.346477 
L 430.016712 157.65506 
L 431.80124 151.546194 
L 433.585768 157.82393 
L 435.370295 167.095414 
L 437.154823 170.667354 
L 438.93935 162.951995 
L 440.723878 153.880211 
L 442.508406 153.205237 
L 444.292933 159.575142 
L 446.077461 165.430625 
L 447.861989 166.662177 
L 449.646516 165.472592 
L 451.431044 164.563491 
L 453.215572 158.555006 
L 455.000099 155.862011 
L 456.784627 160.915793 
L 458.569154 169.070571 
L 460.353682 173.494131 
L 462.13821 170.827104 
L 463.922737 163.885331 
L 465.707265 163.934341 
L 467.491793 169.302162 
L 469.27632 176.840155 
L 471.060848 183.341613 
L 472.845375 183.098872 
L 474.629903 178.676658 
L 476.414431 179.59285 
L 478.198958 184.032444 
L 479.983486 187.893303 
L 481.768014 183.310512 
L 483.552541 170.229398 
L 485.337069 166.147449 
L 487.121596 169.462124 
L 488.906124 178.079706 
L 490.690652 178.715427 
L 492.475179 172.429833 
L 494.259707 161.402335 
L 496.044235 156.270707 
L 497.828762 166.245835 
L 499.61329 180.798988 
L 501.397818 185.895906 
L 503.182345 176.938223 
L 504.966873 161.960541 
L 506.7514 152.252859 
L 508.535928 157.842666 
L 510.320456 169.138648 
L 512.104983 179.406931 
L 513.889511 178.085122 
L 515.674039 169.391004 
L 517.458566 164.448091 
L 519.243094 163.604399 
L 521.027621 167.621044 
L 522.812149 174.610235 
L 524.596677 176.219135 
L 526.381204 178.876534 
L 528.165732 176.683756 
L 529.95026 165.170235 
L 531.734787 147.559293 
L 533.519315 146.142553 
L 535.303842 136.209663 
L 537.08837 139.102145 
L 538.872898 149.514817 
L 538.872898 149.514817 
" clip-path="url(#p7d747ba780)" style="fill: none; stroke: #1f77b4; stroke-width: 2.5; stroke-linecap: square"/>
   </g>
   <g id="patch_3">
    <path d="M 61.065625 230.276875 
L 61.065625 28.396875 
" style="fill: none; stroke: #000000; stroke-width: 0.8; stroke-linejoin: miter; stroke-linecap: square"/>
   </g>
   <g id="patch_4">
    <path d="M 561.625625 230.276875 
L 561.625625 28.396875 
" style="fill: none; stroke: #000000; stroke-width: 0.8; stroke-linejoin: miter; stroke-linecap: square"/>
   </g>
   <g id="patch_5">
    <path d="M 61.065625 230.276875 
L 561.625625 230.276875 
" style="fill: none; stroke: #000000; stroke-width: 0.8; stroke-linejoin: miter; stroke-linecap: square"/>
   </g>
   <g id="patch_6">
    <path d="M 61.065625 28.396875 
L 561.625625 28.396875 
" style="fill: none; stroke: #000000; stroke-width: 0.8; stroke-linejoin: miter; stroke-linecap: square"/>
   </g>
   <g id="text_14">
    <!-- Channel 1 Mechanism Visualization -->
    <g transform="translate(112.408125 22.396875) scale(0.2 -0.2)">
     <defs>
      <path id="DejaVuSans-Bold-43" d="M 4288 256 
Q 3956 84 3597 -3 
Q 3238 -91 2847 -91 
Q 1681 -91 1000 561 
Q 319 1213 319 2328 
Q 319 3447 1000 4098 
Q 1681 4750 2847 4750 
Q 3238 4750 3597 4662 
Q 3956 4575 4288 4403 
L 4288 3438 
Q 3953 3666 3628 3772 
Q 3303 3878 2944 3878 
Q 2300 3878 1931 3465 
Q 1563 3053 1563 2328 
Q 1563 1606 1931 1193 
Q 2300 781 2944 781 
Q 3303 781 3628 887 
Q 3953 994 4288 1222 
L 4288 256 
z
" transform="scale(0.015625)"/>
      <path id="DejaVuSans-Bold-68" d="M 4056 2131 
L 4056 0 
L 2931 0 
L 2931 347 
L 2931 1625 
Q 2931 2084 2911 2256 
Q 2891 2428 2841 2509 
Q 2775 2619 2662 2680 
Q 2550 2741 2406 2741 
Q 2056 2741 1856 2470 
Q 1656 2200 1656 1722 
L 1656 0 
L 538 0 
L 538 4863 
L 1656 4863 
L 1656 2988 
Q 1909 3294 2193 3439 
Q 2478 3584 2822 3584 
Q 3428 3584 3742 3212 
Q 4056 2841 4056 2131 
z
" transform="scale(0.015625)"/>
      <path id="DejaVuSans-Bold-61" d="M 2106 1575 
Q 1756 1575 1579 1456 
Q 1403 1338 1403 1106 
Q 1403 894 1545 773 
Q 1688 653 1941 653 
Q 2256 653 2472 879 
Q 2688 1106 2688 1447 
L 2688 1575 
L 2106 1575 
z
M 3816 1997 
L 3816 0 
L 2688 0 
L 2688 519 
Q 2463 200 2181 54 
Q 1900 -91 1497 -91 
Q 953 -91 614 226 
Q 275 544 275 1050 
Q 275 1666 698 1953 
Q 1122 2241 2028 2241 
L 2688 2241 
L 2688 2328 
Q 2688 2594 2478 2717 
Q 2269 2841 1825 2841 
Q 1466 2841 1156 2769 
Q 847 2697 581 2553 
L 581 3406 
Q 941 3494 1303 3539 
Q 1666 3584 2028 3584 
Q 2975 3584 3395 3211 
Q 3816 2838 3816 1997 
z
" transform="scale(0.015625)"/>
      <path id="DejaVuSans-Bold-6e" d="M 4056 2131 
L 4056 0 
L 2931 0 
L 2931 347 
L 2931 1631 
Q 2931 2084 2911 2256 
Q 2891 2428 2841 2509 
Q 2775 2619 2662 2680 
Q 2550 2741 2406 2741 
Q 2056 2741 1856 2470 
Q 1656 2200 1656 1722 
L 1656 0 
L 538 0 
L 538 3500 
L 1656 3500 
L 1656 2988 
Q 1909 3294 2193 3439 
Q 2478 3584 2822 3584 
Q 3428 3584 3742 3212 
Q 4056 2841 4056 2131 
z
" transform="scale(0.015625)"/>
      <path id="DejaVuSans-Bold-65" d="M 4031 1759 
L 4031 1441 
L 1416 1441 
Q 1456 1047 1700 850 
Q 1944 653 2381 653 
Q 2734 653 3104 758 
Q 3475 863 3866 1075 
L 3866 213 
Q 3469 63 3072 -14 
Q 2675 -91 2278 -91 
Q 1328 -91 801 392 
Q 275 875 275 1747 
Q 275 2603 792 3093 
Q 1309 3584 2216 3584 
Q 3041 3584 3536 3087 
Q 4031 2591 4031 1759 
z
M 2881 2131 
Q 2881 2450 2695 2645 
Q 2509 2841 2209 2841 
Q 1884 2841 1681 2658 
Q 1478 2475 1428 2131 
L 2881 2131 
z
" transform="scale(0.015625)"/>
      <path id="DejaVuSans-Bold-6c" d="M 538 4863 
L 1656 4863 
L 1656 0 
L 538 0 
L 538 4863 
z
" transform="scale(0.015625)"/>
      <path id="DejaVuSans-Bold-20" transform="scale(0.015625)"/>
      <path id="DejaVuSans-Bold-31" d="M 750 831 
L 1813 831 
L 1813 3847 
L 722 3622 
L 722 4441 
L 1806 4666 
L 2950 4666 
L 2950 831 
L 4013 831 
L 4013 0 
L 750 0 
L 750 831 
z
" transform="scale(0.015625)"/>
      <path id="DejaVuSans-Bold-4d" d="M 588 4666 
L 2119 4666 
L 3181 2169 
L 4250 4666 
L 5778 4666 
L 5778 0 
L 4641 0 
L 4641 3413 
L 3566 897 
L 2803 897 
L 1728 3413 
L 1728 0 
L 588 0 
L 588 4666 
z
" transform="scale(0.015625)"/>
      <path id="DejaVuSans-Bold-63" d="M 3366 3391 
L 3366 2478 
Q 3138 2634 2908 2709 
Q 2678 2784 2431 2784 
Q 1963 2784 1702 2511 
Q 1441 2238 1441 1747 
Q 1441 1256 1702 982 
Q 1963 709 2431 709 
Q 2694 709 2930 787 
Q 3166 866 3366 1019 
L 3366 103 
Q 3103 6 2833 -42 
Q 2563 -91 2291 -91 
Q 1344 -91 809 395 
Q 275 881 275 1747 
Q 275 2613 809 3098 
Q 1344 3584 2291 3584 
Q 2566 3584 2833 3536 
Q 3100 3488 3366 3391 
z
" transform="scale(0.015625)"/>
      <path id="DejaVuSans-Bold-69" d="M 538 3500 
L 1656 3500 
L 1656 0 
L 538 0 
L 538 3500 
z
M 538 4863 
L 1656 4863 
L 1656 3950 
L 538 3950 
L 538 4863 
z
" transform="scale(0.015625)"/>
      <path id="DejaVuSans-Bold-73" d="M 3272 3391 
L 3272 2541 
Q 2913 2691 2578 2766 
Q 2244 2841 1947 2841 
Q 1628 2841 1473 2761 
Q 1319 2681 1319 2516 
Q 1319 2381 1436 2309 
Q 1553 2238 1856 2203 
L 2053 2175 
Q 2913 2066 3209 1816 
Q 3506 1566 3506 1031 
Q 3506 472 3093 190 
Q 2681 -91 1863 -91 
Q 1516 -91 1145 -36 
Q 775 19 384 128 
L 384 978 
Q 719 816 1070 734 
Q 1422 653 1784 653 
Q 2113 653 2278 743 
Q 2444 834 2444 1013 
Q 2444 1163 2330 1236 
Q 2216 1309 1875 1350 
L 1678 1375 
Q 931 1469 631 1722 
Q 331 1975 331 2491 
Q 331 3047 712 3315 
Q 1094 3584 1881 3584 
Q 2191 3584 2531 3537 
Q 2872 3491 3272 3391 
z
" transform="scale(0.015625)"/>
      <path id="DejaVuSans-Bold-6d" d="M 3781 2919 
Q 3994 3244 4286 3414 
Q 4578 3584 4928 3584 
Q 5531 3584 5847 3212 
Q 6163 2841 6163 2131 
L 6163 0 
L 5038 0 
L 5038 1825 
Q 5041 1866 5042 1909 
Q 5044 1953 5044 2034 
Q 5044 2406 4934 2573 
Q 4825 2741 4581 2741 
Q 4263 2741 4089 2478 
Q 3916 2216 3909 1719 
L 3909 0 
L 2784 0 
L 2784 1825 
Q 2784 2406 2684 2573 
Q 2584 2741 2328 2741 
Q 2006 2741 1831 2477 
Q 1656 2213 1656 1722 
L 1656 0 
L 531 0 
L 531 3500 
L 1656 3500 
L 1656 2988 
Q 1863 3284 2130 3434 
Q 2397 3584 2719 3584 
Q 3081 3584 3359 3409 
Q 3638 3234 3781 2919 
z
" transform="scale(0.015625)"/>
      <path id="DejaVuSans-Bold-56" d="M 31 4666 
L 1241 4666 
L 2478 1222 
L 3713 4666 
L 4922 4666 
L 3194 0 
L 1759 0 
L 31 4666 
z
" transform="scale(0.015625)"/>
      <path id="DejaVuSans-Bold-75" d="M 500 1363 
L 500 3500 
L 1625 3500 
L 1625 3150 
Q 1625 2866 1622 2436 
Q 1619 2006 1619 1863 
Q 1619 1441 1641 1255 
Q 1663 1069 1716 984 
Q 1784 875 1895 815 
Q 2006 756 2150 756 
Q 2500 756 2700 1025 
Q 2900 1294 2900 1772 
L 2900 3500 
L 4019 3500 
L 4019 0 
L 2900 0 
L 2900 506 
Q 2647 200 2364 54 
Q 2081 -91 1741 -91 
Q 1134 -91 817 281 
Q 500 653 500 1363 
z
" transform="scale(0.015625)"/>
      <path id="DejaVuSans-Bold-7a" d="M 366 3500 
L 3419 3500 
L 3419 2719 
L 1575 800 
L 3419 800 
L 3419 0 
L 288 0 
L 288 781 
L 2131 2700 
L 366 2700 
L 366 3500 
z
" transform="scale(0.015625)"/>
      <path id="DejaVuSans-Bold-74" d="M 1759 4494 
L 1759 3500 
L 2913 3500 
L 2913 2700 
L 1759 2700 
L 1759 1216 
Q 1759 972 1856 886 
Q 1953 800 2241 800 
L 2816 800 
L 2816 0 
L 1856 0 
Q 1194 0 917 276 
Q 641 553 641 1216 
L 641 2700 
L 84 2700 
L 84 3500 
L 641 3500 
L 641 4494 
L 1759 4494 
z
" transform="scale(0.015625)"/>
      <path id="DejaVuSans-Bold-6f" d="M 2203 2784 
Q 1831 2784 1636 2517 
Q 1441 2250 1441 1747 
Q 1441 1244 1636 976 
Q 1831 709 2203 709 
Q 2569 709 2762 976 
Q 2956 1244 2956 1747 
Q 2956 2250 2762 2517 
Q 2569 2784 2203 2784 
z
M 2203 3584 
Q 3106 3584 3614 3096 
Q 4122 2609 4122 1747 
Q 4122 884 3614 396 
Q 3106 -91 2203 -91 
Q 1297 -91 786 396 
Q 275 884 275 1747 
Q 275 2609 786 3096 
Q 1297 3584 2203 3584 
z
" transform="scale(0.015625)"/>
     </defs>
     <use xlink:href="#DejaVuSans-Bold-43"/>
     <use xlink:href="#DejaVuSans-Bold-68" transform="translate(73.388672 0)"/>
     <use xlink:href="#DejaVuSans-Bold-61" transform="translate(144.580078 0)"/>
     <use xlink:href="#DejaVuSans-Bold-6e" transform="translate(212.060547 0)"/>
     <use xlink:href="#DejaVuSans-Bold-6e" transform="translate(283.251953 0)"/>
     <use xlink:href="#DejaVuSans-Bold-65" transform="translate(354.443359 0)"/>
     <use xlink:href="#DejaVuSans-Bold-6c" transform="translate(422.265625 0)"/>
     <use xlink:href="#DejaVuSans-Bold-20" transform="translate(456.542969 0)"/>
     <use xlink:href="#DejaVuSans-Bold-31" transform="translate(491.357422 0)"/>
     <use xlink:href="#DejaVuSans-Bold-20" transform="translate(560.9375 0)"/>
     <use xlink:href="#DejaVuSans-Bold-4d" transform="translate(595.751953 0)"/>
     <use xlink:href="#DejaVuSans-Bold-65" transform="translate(695.263672 0)"/>
     <use xlink:href="#DejaVuSans-Bold-63" transform="translate(763.085938 0)"/>
     <use xlink:href="#DejaVuSans-Bold-68" transform="translate(822.363281 0)"/>
     <use xlink:href="#DejaVuSans-Bold-61" transform="translate(893.554688 0)"/>
     <use xlink:href="#DejaVuSans-Bold-6e" transform="translate(961.035156 0)"/>
     <use xlink:href="#DejaVuSans-Bold-69" transform="translate(1032.226562 0)"/>
     <use xlink:href="#DejaVuSans-Bold-73" transform="translate(1066.503906 0)"/>
     <use xlink:href="#DejaVuSans-Bold-6d" transform="translate(1126.025391 0)"/>
     <use xlink:href="#DejaVuSans-Bold-20" transform="translate(1230.224609 0)"/>
     <use xlink:href="#DejaVuSans-Bold-56" transform="translate(1265.039062 0)"/>
     <use xlink:href="#DejaVuSans-Bold-69" transform="translate(1340.681641 0)"/>
     <use xlink:href="#DejaVuSans-Bold-73" transform="translate(1374.958984 0)"/>
     <use xlink:href="#DejaVuSans-Bold-75" transform="translate(1434.480469 0)"/>
     <use xlink:href="#DejaVuSans-Bold-61" transform="translate(1505.671875 0)"/>
     <use xlink:href="#DejaVuSans-Bold-6c" transform="translate(1573.152344 0)"/>
     <use xlink:href="#DejaVuSans-Bold-69" transform="translate(1607.429688 0)"/>
     <use xlink:href="#DejaVuSans-Bold-7a" transform="translate(1641.707031 0)"/>
     <use xlink:href="#DejaVuSans-Bold-61" transform="translate(1699.910156 0)"/>
     <use xlink:href="#DejaVuSans-Bold-74" transform="translate(1767.390625 0)"/>
     <use xlink:href="#DejaVuSans-Bold-69" transform="translate(1815.193359 0)"/>
     <use xlink:href="#DejaVuSans-Bold-6f" transform="translate(1849.470703 0)"/>
     <use xlink:href="#DejaVuSans-Bold-6e" transform="translate(1918.171875 0)"/>
    </g>
   </g>
   <g id="legend_1">
    <g id="patch_7">
     <path d="M 308.680625 112.681875 
L 550.425625 112.681875 
Q 553.625625 112.681875 553.625625 109.481875 
L 553.625625 39.596875 
Q 553.625625 36.396875 550.425625 36.396875 
L 308.680625 36.396875 
Q 305.480625 36.396875 305.480625 39.596875 
L 305.480625 109.481875 
Q 305.480625 112.681875 308.680625 112.681875 
z
" style="fill: #ffffff; stroke: #000000; stroke-linejoin: miter"/>
    </g>
    <g id="line2d_26">
     <path d="M 311.880625 49.424375 
L 327.880625 49.424375 
L 343.880625 49.424375 
" style="fill: none; stroke: #d3d3d3; stroke-width: 2; stroke-linecap: square"/>
    </g>
    <g id="text_15">
     <!-- Magnitude (|x|) -->
     <g transform="translate(356.680625 55.024375) scale(0.16 -0.16)">
      <defs>
       <path id="DejaVuSans-28" d="M 1984 4856 
Q 1566 4138 1362 3434 
Q 1159 2731 1159 2009 
Q 1159 1288 1364 580 
Q 1569 -128 1984 -844 
L 1484 -844 
Q 1016 -109 783 600 
Q 550 1309 550 2009 
Q 550 2706 781 3412 
Q 1013 4119 1484 4856 
L 1984 4856 
z
" transform="scale(0.015625)"/>
       <path id="DejaVuSans-7c" d="M 1344 4891 
L 1344 -1509 
L 813 -1509 
L 813 4891 
L 1344 4891 
z
" transform="scale(0.015625)"/>
       <path id="DejaVuSans-78" d="M 3513 3500 
L 2247 1797 
L 3578 0 
L 2900 0 
L 1881 1375 
L 863 0 
L 184 0 
L 1544 1831 
L 300 3500 
L 978 3500 
L 1906 2253 
L 2834 3500 
L 3513 3500 
z
" transform="scale(0.015625)"/>
       <path id="DejaVuSans-29" d="M 513 4856 
L 1013 4856 
Q 1481 4119 1714 3412 
Q 1947 2706 1947 2009 
Q 1947 1309 1714 600 
Q 1481 -109 1013 -844 
L 513 -844 
Q 928 -128 1133 580 
Q 1338 1288 1338 2009 
Q 1338 2731 1133 3434 
Q 928 4138 513 4856 
z
" transform="scale(0.015625)"/>
      </defs>
      <use xlink:href="#DejaVuSans-4d"/>
      <use xlink:href="#DejaVuSans-61" transform="translate(86.279297 0)"/>
      <use xlink:href="#DejaVuSans-67" transform="translate(147.558594 0)"/>
      <use xlink:href="#DejaVuSans-6e" transform="translate(211.035156 0)"/>
      <use xlink:href="#DejaVuSans-69" transform="translate(274.414062 0)"/>
      <use xlink:href="#DejaVuSans-74" transform="translate(302.197266 0)"/>
      <use xlink:href="#DejaVuSans-75" transform="translate(341.40625 0)"/>
      <use xlink:href="#DejaVuSans-64" transform="translate(404.785156 0)"/>
      <use xlink:href="#DejaVuSans-65" transform="translate(468.261719 0)"/>
      <use xlink:href="#DejaVuSans-20" transform="translate(529.785156 0)"/>
      <use xlink:href="#DejaVuSans-28" transform="translate(561.572266 0)"/>
      <use xlink:href="#DejaVuSans-7c" transform="translate(600.585938 0)"/>
      <use xlink:href="#DejaVuSans-78" transform="translate(634.277344 0)"/>
      <use xlink:href="#DejaVuSans-7c" transform="translate(693.457031 0)"/>
      <use xlink:href="#DejaVuSans-29" transform="translate(727.148438 0)"/>
     </g>
    </g>
    <g id="line2d_27">
     <path d="M 311.880625 73.354375 
L 327.880625 73.354375 
L 343.880625 73.354375 
" style="fill: none; stroke-dasharray: 5.55,2.4; stroke-dashoffset: 0; stroke: #ff0000; stroke-width: 1.5"/>
    </g>
    <g id="text_16">
     <!-- Threshold () -->
     <g transform="translate(356.680625 78.954375) scale(0.16 -0.16)">
      <defs>
       <path id="DejaVuSans-68" d="M 3513 2113 
L 3513 0 
L 2938 0 
L 2938 2094 
Q 2938 2591 2744 2837 
Q 2550 3084 2163 3084 
Q 1697 3084 1428 2787 
Q 1159 2491 1159 1978 
L 1159 0 
L 581 0 
L 581 4863 
L 1159 4863 
L 1159 2956 
Q 1366 3272 1645 3428 
Q 1925 3584 2291 3584 
Q 2894 3584 3203 3211 
Q 3513 2838 3513 2113 
z
" transform="scale(0.015625)"/>
       <path id="DejaVuSans-6f" d="M 1959 3097 
Q 1497 3097 1228 2736 
Q 959 2375 959 1747 
Q 959 1119 1226 758 
Q 1494 397 1959 397 
Q 2419 397 2687 759 
Q 2956 1122 2956 1747 
Q 2956 2369 2687 2733 
Q 2419 3097 1959 3097 
z
M 1959 3584 
Q 2709 3584 3137 3096 
Q 3566 2609 3566 1747 
Q 3566 888 3137 398 
Q 2709 -91 1959 -91 
Q 1206 -91 779 398 
Q 353 888 353 1747 
Q 353 2609 779 3096 
Q 1206 3584 1959 3584 
z
" transform="scale(0.015625)"/>
       <path id="DejaVuSans-6c" d="M 603 4863 
L 1178 4863 
L 1178 0 
L 603 0 
L 603 4863 
z
" transform="scale(0.015625)"/>
       <path id="DejaVuSans-3c4" d="M 2319 638 
Q 2431 488 2769 488 
L 3047 488 
L 3047 0 
L 2700 0 
Q 2138 0 1881 300 
Q 1625 606 1625 1269 
L 1625 2925 
L 313 2925 
L 313 3500 
L 3541 3500 
L 3541 2925 
L 2213 2925 
L 2213 1234 
Q 2213 781 2319 638 
z
" transform="scale(0.015625)"/>
      </defs>
      <use xlink:href="#DejaVuSans-54"/>
      <use xlink:href="#DejaVuSans-68" transform="translate(61.083984 0)"/>
      <use xlink:href="#DejaVuSans-72" transform="translate(124.462891 0)"/>
      <use xlink:href="#DejaVuSans-65" transform="translate(163.326172 0)"/>
      <use xlink:href="#DejaVuSans-73" transform="translate(224.849609 0)"/>
      <use xlink:href="#DejaVuSans-68" transform="translate(276.949219 0)"/>
      <use xlink:href="#DejaVuSans-6f" transform="translate(340.328125 0)"/>
      <use xlink:href="#DejaVuSans-6c" transform="translate(401.509766 0)"/>
      <use xlink:href="#DejaVuSans-64" transform="translate(429.292969 0)"/>
      <use xlink:href="#DejaVuSans-20" transform="translate(492.769531 0)"/>
      <use xlink:href="#DejaVuSans-28" transform="translate(524.556641 0)"/>
      <use xlink:href="#DejaVuSans-3c4" transform="translate(563.570312 0)"/>
      <use xlink:href="#DejaVuSans-29" transform="translate(623.775391 0)"/>
     </g>
    </g>
    <g id="line2d_28">
     <path d="M 311.880625 96.909375 
L 327.880625 96.909375 
L 343.880625 96.909375 
" style="fill: none; stroke: #1f77b4; stroke-width: 2.5; stroke-linecap: square"/>
    </g>
    <g id="text_17">
     <!-- Magnitude (ReLU(|x|-)) -->
     <g transform="translate(356.680625 102.509375) scale(0.16 -0.16)">
      <defs>
       <path id="DejaVuSans-52" d="M 2841 2188 
Q 3044 2119 3236 1894 
Q 3428 1669 3622 1275 
L 4263 0 
L 3584 0 
L 2988 1197 
Q 2756 1666 2539 1819 
Q 2322 1972 1947 1972 
L 1259 1972 
L 1259 0 
L 628 0 
L 628 4666 
L 2053 4666 
Q 2853 4666 3247 4331 
Q 3641 3997 3641 3322 
Q 3641 2881 3436 2590 
Q 3231 2300 2841 2188 
z
M 1259 4147 
L 1259 2491 
L 2053 2491 
Q 2509 2491 2742 2702 
Q 2975 2913 2975 3322 
Q 2975 3731 2742 3939 
Q 2509 4147 2053 4147 
L 1259 4147 
z
" transform="scale(0.015625)"/>
       <path id="DejaVuSans-4c" d="M 628 4666 
L 1259 4666 
L 1259 531 
L 3531 531 
L 3531 0 
L 628 0 
L 628 4666 
z
" transform="scale(0.015625)"/>
       <path id="DejaVuSans-55" d="M 556 4666 
L 1191 4666 
L 1191 1831 
Q 1191 1081 1462 751 
Q 1734 422 2344 422 
Q 2950 422 3222 751 
Q 3494 1081 3494 1831 
L 3494 4666 
L 4128 4666 
L 4128 1753 
Q 4128 841 3676 375 
Q 3225 -91 2344 -91 
Q 1459 -91 1007 375 
Q 556 841 556 1753 
L 556 4666 
z
" transform="scale(0.015625)"/>
       <path id="DejaVuSans-2d" d="M 313 2009 
L 1997 2009 
L 1997 1497 
L 313 1497 
L 313 2009 
z
" transform="scale(0.015625)"/>
      </defs>
      <use xlink:href="#DejaVuSans-4d"/>
      <use xlink:href="#DejaVuSans-61" transform="translate(86.279297 0)"/>
      <use xlink:href="#DejaVuSans-67" transform="translate(147.558594 0)"/>
      <use xlink:href="#DejaVuSans-6e" transform="translate(211.035156 0)"/>
      <use xlink:href="#DejaVuSans-69" transform="translate(274.414062 0)"/>
      <use xlink:href="#DejaVuSans-74" transform="translate(302.197266 0)"/>
      <use xlink:href="#DejaVuSans-75" transform="translate(341.40625 0)"/>
      <use xlink:href="#DejaVuSans-64" transform="translate(404.785156 0)"/>
      <use xlink:href="#DejaVuSans-65" transform="translate(468.261719 0)"/>
      <use xlink:href="#DejaVuSans-20" transform="translate(529.785156 0)"/>
      <use xlink:href="#DejaVuSans-28" transform="translate(561.572266 0)"/>
      <use xlink:href="#DejaVuSans-52" transform="translate(600.585938 0)"/>
      <use xlink:href="#DejaVuSans-65" transform="translate(665.568359 0)"/>
      <use xlink:href="#DejaVuSans-4c" transform="translate(727.091797 0)"/>
      <use xlink:href="#DejaVuSans-55" transform="translate(777.804688 0)"/>
      <use xlink:href="#DejaVuSans-28" transform="translate(850.998047 0)"/>
      <use xlink:href="#DejaVuSans-7c" transform="translate(890.011719 0)"/>
      <use xlink:href="#DejaVuSans-78" transform="translate(923.703125 0)"/>
      <use xlink:href="#DejaVuSans-7c" transform="translate(982.882812 0)"/>
      <use xlink:href="#DejaVuSans-2d" transform="translate(1016.574219 0)"/>
      <use xlink:href="#DejaVuSans-3c4" transform="translate(1052.658203 0)"/>
      <use xlink:href="#DejaVuSans-29" transform="translate(1112.863281 0)"/>
      <use xlink:href="#DejaVuSans-29" transform="translate(1151.876953 0)"/>
     </g>
    </g>
   </g>
  </g>
 </g>
 <defs>
  <clipPath id="p7d747ba780">
   <rect x="61.065625" y="28.396875" width="500.56" height="201.88"/>
  </clipPath>
 </defs>
</svg>
