<?xml version="1.0" encoding="utf-8" standalone="no"?>
<!DOCTYPE svg PUBLIC "-//W3C//DTD SVG 1.1//EN"
  "http://www.w3.org/Graphics/SVG/1.1/DTD/svg11.dtd">
<svg xmlns:xlink="http://www.w3.org/1999/xlink" width="432pt" height="180pt" viewBox="0 0 432 180" xmlns="http://www.w3.org/2000/svg" version="1.1">
 <metadata>
  <rdf:RDF xmlns:dc="http://purl.org/dc/elements/1.1/" xmlns:cc="http://creativecommons.org/ns#" xmlns:rdf="http://www.w3.org/1999/02/22-rdf-syntax-ns#">
   <cc:Work>
    <dc:type rdf:resource="http://purl.org/dc/dcmitype/StillImage"/>
    <dc:date>2025-11-18T18:06:53.162256</dc:date>
    <dc:format>image/svg+xml</dc:format>
    <dc:creator>
     <cc:Agent>
      <dc:title>Matplotlib v3.10.6, https://matplotlib.org/</dc:title>
     </cc:Agent>
    </dc:creator>
   </cc:Work>
  </rdf:RDF>
 </metadata>
 <defs>
  <style type="text/css">*{stroke-linejoin: round; stroke-linecap: butt}</style>
 </defs>
 <g id="figure_1">
  <g id="patch_1">
   <path d="M 0 180 
L 432 180 
L 432 0 
L 0 0 
L 0 180 
z
" style="fill: none"/>
  </g>
  <g id="axes_1">
   <g id="line2d_1">
    <path d="M 19.636364 118.464828 
L 21.176471 122.209866 
L 22.716578 116.859155 
L 24.256684 110.056561 
L 25.796791 108.450888 
L 27.336898 107.075907 
L 28.877005 106.311523 
L 30.417112 106.157717 
L 31.957219 103.864551 
L 35.037433 91.941942 
L 38.117647 84.37497 
L 39.657754 83.533676 
L 41.197861 84.451866 
L 42.737968 81.625002 
L 44.278075 81.168196 
L 45.818182 85.754538 
L 47.358289 83.538278 
L 48.898396 82.696983 
L 50.438503 82.696979 
L 51.97861 82.240182 
L 53.518717 80.254613 
L 55.058824 82.547774 
L 56.59893 83.312163 
L 58.139037 91.412837 
L 59.679144 95.999175 
L 61.219251 93.936696 
L 62.759358 86.754211 
L 64.299465 87.364799 
L 65.839572 91.109832 
L 67.379679 103.109356 
L 68.919786 111.210028 
L 72 109.758153 
L 73.540107 108.229376 
L 75.080214 111.820618 
L 76.620321 111.74372 
L 78.160428 110.061151 
L 79.700535 107.844883 
L 81.240642 109.37366 
L 82.780749 116.786851 
L 84.320856 120.454989 
L 85.860963 123.204949 
L 87.40107 133.444991 
L 88.941176 135.127566 
L 90.481283 142.083951 
L 92.02139 147.357767 
L 93.561497 150.415323 
L 95.101604 148.732754 
L 96.641711 159.280386 
L 98.181818 145.521402 
L 99.721925 145.675195 
L 101.262032 144.910811 
L 102.802139 150.949015 
L 104.342246 157.674713 
L 105.882353 156.91032 
L 107.42246 154.847852 
L 108.962567 155.612241 
L 110.502674 159.434179 
L 112.042781 161.804242 
L 113.582888 165.318595 
L 115.122995 164.631105 
L 116.663102 163.256119 
L 118.203209 160.198568 
L 119.743316 158.74669 
L 121.283422 161.650453 
L 122.823529 168.453044 
L 124.363636 171.587485 
L 125.903743 171.741284 
L 127.44385 171.053793 
L 128.983957 171.818182 
L 130.524064 170.976895 
L 132.064171 161.116753 
L 133.604278 159.434179 
L 135.144385 158.136099 
L 136.684492 154.775548 
L 138.224599 153.477464 
L 139.764706 153.02067 
L 141.304813 154.549445 
L 142.84492 155.544529 
L 144.385027 147.982139 
L 147.465241 115.208723 
L 149.005348 102.223315 
L 150.545455 83.964079 
L 152.085561 64.252976 
L 153.625668 50.580068 
L 155.165775 39.12344 
L 156.705882 22.316081 
L 158.245989 8.181818 
L 159.786096 11.773056 
L 161.326203 30.71977 
L 162.86631 51.878158 
L 164.406417 77.161495 
L 165.946524 105.656174 
L 167.486631 130.10281 
L 169.026738 147.520752 
L 170.566845 159.36187 
L 172.106952 166.313674 
L 173.647059 158.136099 
L 175.187166 146.444176 
L 176.727273 139.718487 
L 178.26738 140.405976 
L 179.807487 141.704052 
L 181.347594 145.982789 
L 182.887701 146.824079 
L 184.427807 149.650935 
L 185.967914 152.785385 
L 187.508021 157.828505 
L 189.048128 155.381544 
L 190.588235 148.578953 
L 192.128342 147.737667 
L 193.668449 141.699463 
L 195.208556 140.01689 
L 196.748663 148.348257 
L 198.28877 142.997543 
L 199.828877 140.935079 
L 201.368984 140.093792 
L 202.909091 136.348748 
L 204.449198 133.978686 
L 205.989305 133.060503 
L 207.529412 131.53173 
L 209.069519 127.940481 
L 210.609626 128.171178 
L 212.149733 126.565502 
L 213.68984 127.176088 
L 215.229947 126.411701 
L 216.770053 124.806028 
L 218.31016 124.959827 
L 219.850267 126.719299 
L 221.390374 129.01246 
L 222.930481 125.878007 
L 226.010695 124.118542 
L 227.550802 126.642403 
L 229.090909 128.248076 
L 230.631016 127.483685 
L 232.171123 122.974253 
L 235.251337 110.667152 
L 236.791444 102.412684 
L 238.331551 101.037702 
L 239.871658 104.782745 
L 241.411765 110.056561 
L 242.951872 114.642889 
L 244.491979 116.094766 
L 246.032086 113.191012 
L 247.572193 111.739125 
L 249.112299 109.522864 
L 250.652406 104.249044 
L 252.192513 109.522869 
L 253.73262 99.50893 
L 255.272727 94.388895 
L 256.812834 91.40825 
L 258.352941 92.326435 
L 261.433155 95.30709 
L 262.973262 88.581392 
L 264.513369 78.03376 
L 266.053476 75.05311 
L 267.593583 71.461858 
L 269.13369 63.817981 
L 270.673797 59.919151 
L 272.213904 59.996046 
L 273.754011 67.029327 
L 275.294118 71.158868 
L 276.834225 71.312659 
L 278.374332 73.759612 
L 279.914439 76.740271 
L 281.454545 75.975873 
L 282.994652 70.932753 
L 284.534759 67.341511 
L 286.074866 69.634673 
L 287.614973 74.374806 
L 289.15508 79.571717 
L 290.695187 79.725513 
L 292.235294 67.726004 
L 293.775401 59.471529 
L 295.315508 59.548424 
L 296.855615 61.995382 
L 298.395722 57.409049 
L 299.935829 54.962102 
L 303.016043 49.38528 
L 304.55615 48.620901 
L 306.096257 44.952759 
L 307.636364 44.798948 
L 309.176471 45.563346 
L 310.716578 39.448246 
L 312.256684 31.881254 
L 313.796791 37.996374 
L 315.336898 41.587611 
L 316.877005 44.568261 
L 318.417112 45.789446 
L 319.957219 51.293959 
L 321.497326 51.140167 
L 323.037433 48.770106 
L 324.57754 43.799275 
L 326.117647 41.275422 
L 327.657754 41.121621 
L 329.197861 39.285261 
L 330.737968 35.540223 
L 333.818182 39.588256 
L 335.358289 40.886347 
L 336.898396 39.203778 
L 338.438503 39.891252 
L 339.97861 39.049977 
L 341.518717 40.424973 
L 343.058824 41.189352 
L 344.59893 44.78058 
L 347.679144 46.155556 
L 349.219251 40.271153 
L 350.759358 37.901091 
L 352.299465 42.333622 
L 353.839572 42.256717 
L 355.379679 43.708618 
L 356.919786 45.468083 
L 358.459893 56.015714 
L 360 57.698283 
L 361.540107 57.544492 
L 363.080214 60.448246 
L 364.620321 64.116389 
L 366.160428 66.563346 
L 367.700535 66.563346 
L 369.240642 64.347085 
L 370.780749 62.664507 
L 372.320856 58.001279 
L 373.860963 54.866848 
L 375.40107 52.573681 
L 378.481283 55.785028 
L 380.02139 58.001288 
L 381.561497 59.530066 
L 383.101604 64.803882 
L 384.641711 64.803882 
L 386.181818 66.486451 
L 387.721925 64.27019 
L 389.262032 58.078174 
L 390.802139 55.631227 
L 392.342246 51.655482 
L 393.882353 44.165405 
L 395.42246 44.165405 
L 396.962567 44.319196 
L 398.502674 41.949134 
L 400.042781 45.617287 
L 401.582888 47.069159 
L 404.663102 44.165405 
L 406.203209 44.2423 
L 407.743316 42.559741 
L 409.283422 47.679756 
L 410.823529 51.50169 
L 412.363636 53.261155 
L 412.363636 53.261155 
" clip-path="url(#p3c0d121a70)" style="fill: none; stroke: #d62728; stroke-width: 1.5; stroke-linecap: round"/>
   </g>
  </g>
 </g>
 <defs>
  <clipPath id="p3c0d121a70">
   <rect x="0" y="0" width="432" height="180"/>
  </clipPath>
 </defs>
</svg>
