<?xml version="1.0" encoding="utf-8" standalone="no"?>
<!DOCTYPE svg PUBLIC "-//W3C//DTD SVG 1.1//EN"
  "http://www.w3.org/Graphics/SVG/1.1/DTD/svg11.dtd">
<svg xmlns:xlink="http://www.w3.org/1999/xlink" width="432pt" height="180pt" viewBox="0 0 432 180" xmlns="http://www.w3.org/2000/svg" version="1.1">
 <metadata>
  <rdf:RDF xmlns:dc="http://purl.org/dc/elements/1.1/" xmlns:cc="http://creativecommons.org/ns#" xmlns:rdf="http://www.w3.org/1999/02/22-rdf-syntax-ns#">
   <cc:Work>
    <dc:type rdf:resource="http://purl.org/dc/dcmitype/StillImage"/>
    <dc:date>2025-11-18T18:06:53.209614</dc:date>
    <dc:format>image/svg+xml</dc:format>
    <dc:creator>
     <cc:Agent>
      <dc:title>Matplotlib v3.10.6, https://matplotlib.org/</dc:title>
     </cc:Agent>
    </dc:creator>
   </cc:Work>
  </rdf:RDF>
 </metadata>
 <defs>
  <style type="text/css">*{stroke-linejoin: round; stroke-linecap: butt}</style>
 </defs>
 <g id="figure_1">
  <g id="patch_1">
   <path d="M 0 180 
L 432 180 
L 432 0 
L 0 0 
L 0 180 
z
" style="fill: none"/>
  </g>
  <g id="axes_1">
   <g id="line2d_1">
    <path d="M 19.636364 28.829693 
L 21.176471 31.689465 
L 22.716578 31.130023 
L 24.256684 28.20768 
L 25.796791 27.585663 
L 27.336898 25.907347 
L 28.877005 25.035035 
L 30.417112 26.901075 
L 31.957219 26.838499 
L 33.497326 21.428099 
L 35.037433 17.821165 
L 36.57754 11.229312 
L 38.117647 8.181818 
L 39.657754 11.229314 
L 41.197861 11.354461 
L 42.737968 13.779944 
L 44.278075 15.645985 
L 45.818182 15.086549 
L 47.358289 12.410765 
L 48.898396 10.979015 
L 50.438503 13.404494 
L 51.97861 14.089082 
L 53.518717 16.017697 
L 55.058824 22.050113 
L 56.59893 31.752036 
L 58.139037 32.808338 
L 59.679144 29.447969 
L 61.219251 27.644503 
L 62.759358 26.959916 
L 64.299465 27.644503 
L 65.839572 35.046095 
L 67.379679 40.519072 
L 68.919786 43.007127 
L 70.459893 38.156166 
L 72 36.41527 
L 73.540107 37.037291 
L 75.080214 38.778182 
L 76.620321 39.462764 
L 78.160428 39.650491 
L 79.700535 35.671846 
L 81.240642 29.01742 
L 82.780749 26.466785 
L 84.320856 27.523088 
L 85.860963 26.713352 
L 87.40107 28.641967 
L 88.941176 31.255173 
L 90.481283 35.174984 
L 92.02139 38.781915 
L 93.561497 37.412738 
L 95.101604 34.114941 
L 96.641711 29.885995 
L 98.181818 24.475595 
L 101.262032 29.389132 
L 102.802139 31.192599 
L 104.342246 34.799533 
L 105.882353 40.522806 
L 107.42246 38.71934 
L 108.962567 31.93976 
L 110.502674 31.255173 
L 112.042781 34.240092 
L 113.582888 33.555503 
L 115.122995 32.248899 
L 116.663102 33.18379 
L 118.203209 38.159901 
L 119.743316 44.876905 
L 121.283422 48.421265 
L 122.823529 46.492646 
L 124.363636 41.641686 
L 127.44385 36.97845 
L 130.524064 40.89826 
L 132.064171 46.621533 
L 135.144385 50.791644 
L 136.684492 49.856754 
L 138.224599 52.712786 
L 139.764706 64.461 
L 141.304813 72.848848 
L 144.385027 114.254806 
L 145.925134 137.817563 
L 147.465241 158.082495 
L 149.005348 171.818182 
L 150.545455 170.816967 
L 152.085561 163.290223 
L 153.625668 150.97884 
L 156.705882 128.663864 
L 158.245989 120.279745 
L 159.786096 107.729269 
L 161.326203 99.094858 
L 162.86631 88.156376 
L 164.406417 80.324228 
L 165.946524 71.866335 
L 169.026738 61.601233 
L 170.566845 55.071956 
L 172.106952 49.911857 
L 173.647059 45.870633 
L 175.187166 48.112121 
L 176.727273 54.954278 
L 178.26738 59.245797 
L 179.807487 61.174424 
L 181.347594 57.070621 
L 182.887701 55.951743 
L 184.427807 59.683826 
L 185.967914 66.525979 
L 187.508021 68.763743 
L 189.048128 65.778817 
L 190.588235 59.249539 
L 192.128342 58.690102 
L 193.668449 55.517456 
L 195.208556 57.32092 
L 196.748663 53.338539 
L 198.28877 54.582566 
L 199.828877 59.621251 
L 201.368984 71.067806 
L 202.909091 83.445505 
L 204.449198 89.540493 
L 205.989305 79.463115 
L 207.529412 63.290754 
L 209.069519 44.196053 
L 210.609626 38.535353 
L 212.149733 50.541342 
L 215.229947 87.424159 
L 216.770053 90.659371 
L 218.31016 84.564383 
L 219.850267 72.87127 
L 221.390374 69.698624 
L 222.930481 73.305557 
L 224.470588 81.888604 
L 226.010695 87.549309 
L 227.550802 88.171316 
L 229.090909 86.305281 
L 230.631016 86.367856 
L 232.171123 84.99867 
L 233.71123 89.787068 
L 235.251337 89.290193 
L 238.331551 105.525134 
L 239.871658 106.769157 
L 241.411765 90.409075 
L 242.951872 75.915029 
L 244.491979 64.843923 
L 246.032086 68.016577 
L 247.572193 80.519418 
L 249.112299 90.346509 
L 250.652406 92.087394 
L 252.192513 75.105288 
L 253.73262 72.057797 
L 255.272727 69.632317 
L 256.812834 78.340509 
L 258.352941 80.765989 
L 259.893048 79.893674 
L 261.433155 74.792414 
L 262.973262 68.075411 
L 264.513369 63.036722 
L 266.053476 64.343328 
L 267.593583 71.744918 
L 269.13369 83.997477 
L 270.673797 102.407589 
L 272.213904 115.407317 
L 273.754011 118.64252 
L 275.294118 114.288427 
L 276.834225 99.794393 
L 278.374332 79.142775 
L 279.914439 62.782685 
L 281.454545 57.931721 
L 282.994652 71.428307 
L 286.074866 104.332483 
L 287.614973 105.513927 
L 289.15508 105.948223 
L 290.695187 99.728072 
L 292.235294 90.460439 
L 293.775401 85.421755 
L 295.315508 81.192806 
L 296.855615 88.966112 
L 298.395722 94.376513 
L 299.935829 98.855757 
L 301.475936 95.311399 
L 303.016043 84.052577 
L 304.55615 75.469531 
L 306.096257 77.335574 
L 307.636364 72.981476 
L 309.176471 74.910094 
L 310.716578 78.892471 
L 312.256684 83.309153 
L 313.796791 83.99374 
L 315.336898 79.142775 
L 316.877005 69.315701 
L 318.417112 63.158139 
L 319.957219 62.101832 
L 321.497326 71.122911 
L 323.037433 74.358123 
L 324.57754 68.634856 
L 326.117647 59.242065 
L 327.657754 50.65902 
L 329.197861 45.373771 
L 330.737968 49.168428 
L 332.278075 57.939195 
L 333.818182 65.465943 
L 335.358289 76.971332 
L 336.898396 72.930112 
L 338.438503 60.552408 
L 339.97861 44.008329 
L 341.518717 29.639431 
L 343.058824 31.4429 
L 344.59893 43.758027 
L 346.139037 58.252078 
L 347.679144 71.189214 
L 349.219251 72.495812 
L 350.759358 57.755212 
L 352.299465 37.850766 
L 353.839572 36.356436 
L 355.379679 40.773108 
L 356.919786 55.764019 
L 358.459893 58.377223 
L 360 53.960552 
L 361.540107 58.87409 
L 363.080214 34.427819 
L 364.620321 31.505476 
L 366.160428 33.43409 
L 367.700535 31.00861 
L 369.240642 24.229031 
L 370.780749 21.615825 
L 372.320856 30.820884 
L 373.860963 45.252356 
L 375.40107 57.008046 
L 376.941176 56.511184 
L 378.481283 44.196049 
L 381.561497 36.419011 
L 383.101604 43.32374 
L 384.641711 58.87409 
L 386.181818 70.32064 
L 387.721925 64.597365 
L 389.262032 59.433526 
L 390.802139 52.528798 
L 392.342246 50.913059 
L 393.882353 58.252078 
L 395.42246 60.368416 
L 396.962567 57.817787 
L 398.502674 47.802988 
L 400.042781 40.835685 
L 401.582888 36.54416 
L 403.122995 49.047015 
L 404.663102 60.430987 
L 406.203209 77.100218 
L 407.743316 74.052723 
L 409.283422 66.463404 
L 412.363636 46.621533 
L 412.363636 46.621533 
" clip-path="url(#p4329394ebd)" style="fill: none; stroke: #d62728; stroke-width: 1.5; stroke-linecap: round"/>
   </g>
  </g>
 </g>
 <defs>
  <clipPath id="p4329394ebd">
   <rect x="0" y="0" width="432" height="180"/>
  </clipPath>
 </defs>
</svg>
